<svg aria-hidden="true" style="position: absolute; width: 0; height: 0; overflow: hidden;" version="1.1" xmlns="http://www.w3.org/2000/svg" xmlns:xlink="http://www.w3.org/1999/xlink">
<defs>
<symbol id="icon-logo" viewBox="0 0 151 32">
<path fill="#fff" style="fill: var(--color1, #fff)" d="M8.626 17.848l-3.316 3.368v4.689h-2.59v-18.133h2.59v10.129l9.844-10.129h2.953l-7.746 8.16 8.238 9.973h-3.031l-6.942-8.056zM31.458 26.112c-1.83 0-3.48-0.396-4.948-1.192-1.448-0.798-2.623-1.932-3.448-3.301l-0.023-0.041c-0.829-1.417-1.243-2.996-1.243-4.741s0.414-3.325 1.243-4.741c0.843-1.405 2.020-2.532 3.424-3.293l0.047-0.023c1.467-0.812 3.118-1.218 4.948-1.218 1.813 0 3.454 0.405 4.922 1.218 1.446 0.779 2.616 1.907 3.423 3.275l0.022 0.041c0.829 1.399 1.243 2.979 1.243 4.741s-0.414 3.351-1.243 4.766c-0.839 1.401-2.005 2.526-3.397 3.292l-0.046 0.023c-1.469 0.794-3.109 1.192-4.922 1.192zM31.458 23.806c1.33 0 2.522-0.302 3.575-0.907 1.056-0.594 1.909-1.439 2.497-2.455l0.017-0.032c0.586-1.001 0.932-2.203 0.932-3.486 0-0.031-0-0.062-0.001-0.093l0 0.005c0-1.312-0.311-2.496-0.933-3.549-0.599-1.060-1.453-1.914-2.48-2.496l-0.032-0.017c-1.053-0.605-2.245-0.907-3.575-0.907s-2.539 0.302-3.627 0.907c-1.065 0.603-1.925 1.456-2.521 2.481l-0.017 0.032c-0.605 1.053-0.907 2.237-0.907 3.549s0.302 2.504 0.907 3.575c0.619 1.045 1.478 1.888 2.505 2.469l0.034 0.017c1.088 0.605 2.296 0.907 3.627 0.907zM46.552 17.719h6.968v2.15h-6.968v-2.15z"></path>
<path fill="#48e3ae" style="fill: var(--color2, #48e3ae)" d="M65.173 12.382v3.109h7.563v4.611h-7.563v5.803h-6.115v-18.133h14.741v4.611h-8.626zM78.321 7.771h6.114v18.133h-6.114v-18.133zM96.728 26.319c-1.502 0-2.971-0.165-4.404-0.492-1.417-0.346-2.581-0.803-3.497-1.373l1.969-4.456c0.833 0.486 1.796 0.901 2.81 1.195l0.091 0.023c0.922 0.271 1.982 0.431 3.078 0.44l0.005 0c0.847 0 1.451-0.078 1.813-0.233 0.363-0.172 0.544-0.424 0.544-0.751 0-0.381-0.241-0.664-0.725-0.855-0.466-0.19-1.243-0.396-2.331-0.622-1.399-0.294-2.565-0.605-3.497-0.933-0.965-0.364-1.782-0.931-2.43-1.652l-0.005-0.006c-0.69-0.777-1.036-1.822-1.036-3.134 0-1.14 0.32-2.176 0.96-3.109 0.638-0.933 1.588-1.667 2.85-2.202 1.277-0.535 2.822-0.803 4.635-0.803 1.243 0 2.461 0.137 3.653 0.414 1.21 0.259 2.27 0.648 3.186 1.166l-1.839 4.43c-1.778-0.899-3.462-1.347-5.051-1.347-1.571 0-2.357 0.381-2.357 1.14 0 0.363 0.233 0.64 0.701 0.829 0.465 0.172 1.234 0.363 2.304 0.57 1.382 0.259 2.548 0.561 3.497 0.907 0.978 0.343 1.806 0.903 2.456 1.627l0.005 0.005c0.709 0.76 1.062 1.797 1.062 3.109 0 0.013 0 0.028 0 0.044 0 1.147-0.359 2.209-0.97 3.082l0.011-0.017c-0.64 0.914-1.597 1.649-2.875 2.202-1.26 0.535-2.798 0.803-4.611 0.803zM118.961 26.319c-1.917 0-3.643-0.396-5.181-1.192-1.509-0.79-2.737-1.935-3.604-3.328l-0.023-0.039c-0.864-1.451-1.295-3.092-1.295-4.922s0.431-3.462 1.295-4.896c0.88-1.44 2.111-2.588 3.576-3.344l0.050-0.024c1.538-0.812 3.264-1.218 5.181-1.218 1.762 0 3.333 0.311 4.715 0.933 1.38 0.619 2.529 1.535 3.404 2.674l0.015 0.021-3.86 3.445c-1.123-1.417-2.444-2.124-3.962-2.124-1.28 0-2.307 0.414-3.084 1.243-0.777 0.812-1.166 1.908-1.166 3.29s0.389 2.487 1.166 3.316c0.777 0.812 1.804 1.218 3.083 1.218 1.519 0 2.84-0.709 3.963-2.124l3.86 3.445c-0.891 1.159-2.040 2.075-3.364 2.672l-0.055 0.022c-1.382 0.622-2.953 0.933-4.715 0.933zM149.326 7.771v18.133h-6.115v-6.683h-5.647v6.683h-6.112v-18.133h6.112v6.424h5.649v-6.424h6.112z"></path>
</symbol>
<symbol id="icon-fin" viewBox="0 0 29 32">
<path fill="#ffb7a8" style="fill: var(--color3, #ffb7a8)" d="M21.945 12.202c-0.126 0.029-0.27 0.045-0.419 0.045-0.007 0-0.015-0-0.022-0h0.001c-1.029-0.006-1.221-0.013-1.221-0.013v-0.549s0.421-0.458 0.806-0.657c0.122-0.063 0.241-0.1 0.341-0.088 0.407 0.050-0.103 0.358-0.126 0.372 0.039-0.011 1.25-0.365 1.488-0.075 0.203 0.247-0.122 0.801-0.848 0.963z"></path>
<path fill="#ea847d" style="fill: var(--color4, #ea847d)" d="M21.944 12.202c-0.126 0.029-0.27 0.045-0.419 0.045-0.007 0-0.015-0-0.022-0h0.001c-1.029-0.006-1.221-0.013-1.221-0.013v-0.549s0.421-0.458 0.806-0.656c0 0-0.697 1.082 0.855 1.172z"></path>
<path fill="#f9d679" style="fill: var(--color5, #f9d679)" d="M21.063 27.121c4.504 0 8.155-3.482 8.155-7.777s-3.651-7.777-8.155-7.777-8.155 3.482-8.155 7.777 3.651 7.777 8.155 7.777z"></path>
<path fill="#ffba52" style="fill: var(--color6, #ffba52)" d="M22.066 22.67l-0.3-0.722c-0.498 0.171-1.046 0.223-1.401 0.15l-0.080-0.779c0.125 0.020 0.268 0.031 0.415 0.031 0.337 0 0.66-0.060 0.958-0.17l-0.019 0.006c0.492-0.186 0.731-0.544 0.583-0.901-0.139-0.335-0.503-0.448-1.164-0.43-0.937 0.027-1.616-0.129-1.904-0.822-0.265-0.64 0-1.307 0.73-1.741l-0.303-0.729 0.64-0.242 0.288 0.692c0.498-0.171 0.88-0.187 1.179-0.162l0.074 0.765c-0.221-0.011-0.636-0.052-1.167 0.149-0.546 0.207-0.63 0.548-0.525 0.801 0.127 0.305 0.479 0.37 1.248 0.372 1.004-0.017 1.562 0.237 1.837 0.899 0.263 0.633 0.034 1.365-0.768 1.824l0.319 0.767-0.64 0.242z"></path>
<path fill="#ffba52" style="fill: var(--color6, #ffba52)" d="M21.064 25.441c-3.518 0-6.381-2.73-6.381-6.085s2.861-6.083 6.381-6.083 6.381 2.73 6.381 6.085c0 3.355-2.863 6.083-6.381 6.083zM21.064 14.165c-1.077 0-2.129 0.304-3.024 0.875s-1.593 1.381-2.005 2.33c-0.262 0.585-0.414 1.268-0.414 1.986 0 0.359 0.038 0.709 0.11 1.046l-0.006-0.033c0.21 1.007 0.728 1.932 1.49 2.658s1.731 1.221 2.787 1.421c0.319 0.063 0.686 0.1 1.061 0.1 0.75 0 1.467-0.145 2.123-0.409l-0.038 0.014c0.995-0.393 1.845-1.058 2.443-1.912 0.572-0.803 0.915-1.803 0.917-2.884v-0c-0.002-1.376-0.576-2.695-1.597-3.668s-2.404-1.52-3.847-1.522v-0.002z"></path>
<path fill="#6d3842" style="fill: var(--color7, #6d3842)" d="M3.93 31.654c0.049 0.325-3.847-0.562-3.847-0.562s-0.265-0.535 0.152-1.405c0.164-0.341 0.513-0.307 0.834-0.178 0.245 0.106 0.473 0.242 0.681 0.405 0 0 1.504 0.999 2.012 1.511 0.099 0.097 0.16 0.177 0.168 0.229zM9.217 31.849s-0.351-0.489-0.077-1.41c0.058-0.197 0.189-0.292 0.351-0.324 0.463-0.094 1.182 0.324 1.182 0.324s1.595 0.742 2.205 1.176c0.127 0.091 0.211 0.168 0.229 0.222 0.101 0.313-3.89 0.013-3.89 0.013z"></path>
<path fill="#3d2042" style="fill: var(--color8, #3d2042)" d="M9.217 31.849s-0.351-0.489-0.077-1.41c0.058-0.197 0.189-0.292 0.351-0.324l0.141 0.179s0.919 1.754 3.246 1.32c0.127 0.091 0.211 0.169 0.229 0.223 0.101 0.313-3.89 0.013-3.89 0.013z"></path>
<path fill="#2b2f54" style="fill: var(--color9, #2b2f54)" d="M6.373 24.763c-0.179 0.433-0.369 0.8-0.587 1.148l0.019-0.032c-1.541 2.519-4.359 4.306-4.359 4.306l-1.251-0.597s3.696-3.633 3.468-7.645c-0.12-2.131-0.257-4.201-0.359-5.674-0.099-1.59-0.153-2.328-0.211-3.066l0.058 0.932 4.094 4.392s0.379 3.144-0.872 6.235z"></path>
<path fill="#14182d" style="fill: var(--color10, #14182d)" d="M6.373 24.763c-0.179 0.433-0.369 0.8-0.587 1.148l0.019-0.032s0.114-3.358-0.341-5.525c-0.351-1.671-1.603-3.384-2.16-4.083-0.088-1.3-0.152-2.134-0.152-2.134l4.094 4.392s0.379 3.143-0.872 6.233z"></path>
<path fill="#2b2f54" style="fill: var(--color9, #2b2f54)" d="M10.671 30.438h-1.531s0.438-6.036-0.758-8.821c-1.288-3-5.496-5.133-5.344-8.061 0.065-1.261 0.545-2.045 1.070-2.53 0.695-0.642 1.47-0.759 1.47-0.759l2.919 2.928s0.43 0.521 0.994 1.533c0.62 1.099 1.171 2.376 1.584 3.712l0.038 0.141c1.44 4.699-0.44 11.857-0.44 11.857z"></path>
<path fill="#14182d" style="fill: var(--color10, #14182d)" d="M9.328 14.445c-2.734 0.003-3.303-1.49-3.657-2.407s-1.565-1.012-1.565-1.012c0.696-0.642 1.47-0.759 1.47-0.759l2.919 2.928s0.269 0.238 0.833 1.25z"></path>
<path fill="#ffb7a8" style="fill: var(--color3, #ffb7a8)" d="M15.426 5.737l-1.307 0.787s-0.96-0.921-0.448-1.481c0.015-0.022 0.326-0.181 0.638-0.338l0.309-0.141c0.183-0.090 0.246-0.117 0.246-0.117s0.96-0.011 0.562 1.29z"></path>
<path fill="#ea847d" style="fill: var(--color4, #ea847d)" d="M15.426 5.737l-1.138 0.686c0.011-0.028 0.437-1.049 0.33-1.858 0.183-0.090 0.246-0.117 0.246-0.117s0.96-0.012 0.562 1.289z"></path>
<path fill="#ffb7a8" style="fill: var(--color3, #ffb7a8)" d="M18.811 4.535c-0.046 0.351-0.148 0.669-0.297 0.959l0.008-0.016c-0.275 0.25-0.563 0.485-0.866 0.705-0.523 0.379-1.176 0.759-1.636 0.723-0.89-0.072-1.156-2.458-1.156-2.458-0.027-0.009-0.531-0.171-0.354-0.702 0.114-0.337 0.341-0.669 0.496-0.871 0.094-0.123 0.162-0.198 0.162-0.198l2.273-0.217c0.226 0.091 0.437 0.214 0.626 0.364 0.405 0.318 0.839 0.865 0.744 1.711z"></path>
<path fill="#6d3842" style="fill: var(--color7, #6d3842)" d="M20.739 5.785c-3.943 1.302-3.032-2.783-3.298-2.94s-1.82 1.133-1.82 1.133c-0.417-1.049-1.113-0.232-1.113-0.232s-0.595-1.572 0.163-2.44c0.758-0.867 1.935-0.256 1.935-0.256s-0.303-0.976 0.985-1.048c1.289-0.072 1.554 2.639 1.554 2.639s1.44-2.603 3.221-2.35c0.526 0.074 0.943 0.471 1.168 1.026 0.537 1.325-0.020 3.552-2.798 4.469z"></path>
<path fill="#8978f7" style="fill: var(--color11, #8978f7)" d="M14.666 7.313c-0.235 0.878-1.099 1.982-2.247 2.554-1.705 0.849-2.72 2.142-2.956 3.055-0.322 1.247-1.971 0.434-2.559-0.578-0.178-0.291-0.394-0.539-0.644-0.747l-0.005-0.004-0.004-0.003c-0.583-0.499-1.23-0.81-1.299-1.235-0.183-1.127 2.432-2.254 3.001-3.030s2.491-2.311 3.538-2.644c1.080-0.343 2.299-0.193 2.382 0.256 0 0-0.034 0.635 0.649 1.343 0.223 0.233 0.258 0.604 0.144 1.033z"></path>
<path fill="#614bf4" style="fill: var(--color12, #614bf4)" d="M14.665 7.315c-0.235 0.878-1.099 1.982-2.246 2.554-1.706 0.849-2.721 2.142-2.957 3.055-0.322 1.247-1.971 0.434-2.559-0.578-0.178-0.291-0.394-0.539-0.644-0.747l-0.005-0.004c1.208 1.012 3.494-0.334 4.099-2.159 0.31-0.938 0.333-2.334 0.333-2.334s0.84-0.498 3.090 0.064c0.356 1.371 0.864 0.206 0.889 0.149z"></path>
<path fill="#8978f7" style="fill: var(--color11, #8978f7)" d="M20.436 12.389c-0.33 0.039-0.654 0.073-0.97 0.102-0.133 0.011-0.261 0.022-0.388 0.032l-0.056 0.004c-2.745 0.206-4.834-0.027-5.789-0.669-1.112-0.747-4.051-5.746-1.63-6.371 1.391-0.359 2.122 0.551 2.312 2.612s3.071 2.639 4.701 2.819c0.625 0.069 1.056 0.127 1.348 0.174 0.47 0.074 0.585 0.115 0.585 0.115s0.342 0.723-0.114 1.181z"></path>
<path fill="#3d2042" style="fill: var(--color8, #3d2042)" d="M20.739 5.785c-3.943 1.302-3.032-2.783-3.297-2.94s-1.82 1.133-1.82 1.133c-0.417-1.049-1.113-0.232-1.113-0.232s0.032-0.871 0.545-0.979c0.512-0.108 0.619 0.561 0.619 0.561s1.295-1.32 1.863-1.446c0.569-0.127 0.944 0.689 1.023 1.392 0.133 1.175 1.213 2.458 3.449 1.175 2.211-1.267 1.545-3.087 1.529-3.13 0.536 1.324-0.021 3.551-2.798 4.468z"></path>
</symbol>
<symbol id="icon-fond" viewBox="0 0 24 32">
<path fill="#82eec8" style="fill: var(--color13, #82eec8)" d="M21.15 10.086c0-5.57-4.734-10.086-10.575-10.086s-10.575 4.516-10.575 10.086c0 3.652 2.035 6.851 5.083 8.621 0 0 1.212 0.745 1.212 4.267h8.56c0-3.522 1.212-4.267 1.212-4.267 3.048-1.77 5.083-4.968 5.083-8.621z"></path>
<path fill="#fff" style="fill: var(--color1, #fff)" d="M12.216 23.338h-2.734l-0.018-0.185c-0.004-0.040-0.393-4.037-0.749-6.224-0.206-1.263-0.553-2.677-0.936-3.803-0.335-0.092-0.628-0.219-0.899-0.38l0.017 0.009c-0.68-0.393-1.077-0.945-1.061-1.476 0.008-0.274 0.139-0.501 0.35-0.608 0.126-0.064 0.389-0.139 0.746 0.071 0.423 0.25 0.829 1.058 1.18 2.040 0.901 0.161 1.754-0.183 2.411-0.999-0.628-0.841-0.964-1.975-1.004-2.8-0.034-0.703 0.146-1.156 0.508-1.274 0.395-0.129 0.764-0.014 1.038 0.326 0.658 0.812 0.647 2.728-0.005 3.729 0.312 0.354 0.682 0.617 1.103 0.715 0.246 0.061 0.529 0.096 0.82 0.099h0.002c0.526-1.425 1.21-1.992 1.772-2.010 0.012-0.001 0.025-0.001 0.039-0.001 0.158 0 0.305 0.051 0.424 0.137l-0.002-0.001c0.132 0.095 0.223 0.232 0.258 0.386 0.091 0.368-0.095 0.823-0.485 1.187-0.431 0.405-1.026 0.643-1.696 0.697-0.15 0.46-0.288 1.016-0.403 1.685-0.713 4.143-0.679 8.432-0.678 8.475l0.002 0.205zM9.873 22.931h1.911c0.003-0.908 0.056-4.68 0.684-8.339 0.090-0.544 0.217-1.082 0.378-1.611-0.265-0.011-0.529-0.047-0.787-0.107-0.492-0.114-0.913-0.393-1.264-0.764-0.696 0.818-1.594 1.198-2.539 1.103 0.416 1.28 0.735 2.745 0.883 3.654 0.313 1.928 0.652 5.248 0.733 6.064h0zM6.472 11.011c-0.001-0-0.003-0-0.004-0-0.029 0-0.057 0.007-0.081 0.019l0.001-0c-0.074 0.037-0.12 0.135-0.123 0.261-0.009 0.296 0.211 0.745 0.856 1.117 0.154 0.090 0.316 0.168 0.483 0.233-0.305-0.801-0.621-1.388-0.9-1.553-0.085-0.050-0.165-0.076-0.231-0.076zM14.783 10.974h-0.013c-0.321 0.010-0.859 0.392-1.323 1.573 0.492-0.070 0.922-0.261 1.241-0.56 0.28-0.263 0.425-0.579 0.369-0.806-0.013-0.062-0.047-0.115-0.095-0.151l-0.001-0c-0.046-0.035-0.104-0.055-0.166-0.055-0.004 0-0.008 0-0.011 0l0.001-0h-0.001zM10.332 8.064c-0.057 0.001-0.114 0.011-0.168 0.030-0.123 0.040-0.246 0.33-0.219 0.871 0.035 0.723 0.33 1.694 0.836 2.438 0.505-0.943 0.418-2.533-0.058-3.121-0.139-0.17-0.275-0.218-0.391-0.218z"></path>
<path fill="#44e5ad" style="fill: var(--color14, #44e5ad)" d="M15.862 23.819v0.132c0 0.224-0.094 0.439-0.261 0.598s-0.394 0.248-0.63 0.248h-8.793c-0.001 0-0.002 0-0.003 0-0.216 0-0.414-0.074-0.571-0.199l0.002 0.001c-0.155-0.122-0.265-0.296-0.304-0.495l-0.001-0.005c-0.009-0.044-0.014-0.095-0.014-0.147 0-0 0-0.001 0-0.002v0-0.132c0-0.224 0.094-0.439 0.261-0.598s0.394-0.248 0.63-0.248h8.793c0.236 0 0.463 0.089 0.63 0.248s0.261 0.374 0.261 0.598z"></path>
<path fill="#35d69e" style="fill: var(--color15, #35d69e)" d="M15.862 23.819v0.132c0 0.224-0.094 0.439-0.261 0.598s-0.394 0.248-0.631 0.248h-8.805c-0.001 0-0.002 0-0.003 0-0.216 0-0.415-0.074-0.572-0.199l0.002 0.001c-0.155-0.122-0.265-0.296-0.305-0.495l-0.001-0.005h7.948c0.236 0 0.463-0.089 0.63-0.248s0.261-0.374 0.261-0.598v-0.131c0-0.050-0.004-0.1-0.014-0.149h0.859c0.236 0 0.463 0.089 0.63 0.248s0.261 0.373 0.261 0.597z"></path>
<path fill="#44e5ad" style="fill: var(--color14, #44e5ad)" d="M15.133 25.642v0.132c0 0.466-0.344 0.846-0.768 0.846h-7.58c-0.378 0-0.692-0.301-0.756-0.697-0.008-0.044-0.012-0.094-0.012-0.145 0-0.001 0-0.002 0-0.003v0-0.132c0-0.466 0.344-0.846 0.768-0.846h7.58c0.424 0 0.768 0.379 0.768 0.846z"></path>
<path fill="#35d69e" style="fill: var(--color15, #35d69e)" d="M15.133 25.642v0.132c0 0.466-0.344 0.846-0.769 0.846h-7.59c-0.379 0-0.693-0.301-0.757-0.697h6.851c0.424 0 0.769-0.378 0.769-0.845v-0.132c0-0 0-0.001 0-0.001 0-0.052-0.004-0.103-0.013-0.153l0.001 0.005h0.74c0.425 0 0.769 0.379 0.769 0.846z"></path>
<path fill="#44e5ad" style="fill: var(--color14, #44e5ad)" d="M13.857 27.381v0.119c0 0.1-0.021 0.199-0.061 0.291-0.043 0.096-0.102 0.179-0.174 0.247l-0 0c-0.073 0.069-0.16 0.125-0.255 0.163l-0.005 0.002c-0.098 0.038-0.202 0.058-0.308 0.058h-4.772c-0.189 0-0.372-0.063-0.517-0.177-0.14-0.11-0.239-0.266-0.275-0.445l-0.001-0.005c-0.008-0.040-0.013-0.086-0.013-0.133v-0.119c0-0.1 0.021-0.199 0.061-0.291s0.1-0.176 0.175-0.247c0.075-0.071 0.164-0.127 0.261-0.165s0.202-0.058 0.308-0.058h4.772c0.213 0 0.418 0.080 0.568 0.223s0.236 0.336 0.236 0.538zM11.669 29.022v0.118c0 0.1-0.021 0.199-0.060 0.291s-0.099 0.176-0.173 0.247c-0.074 0.071-0.162 0.127-0.258 0.165s-0.2 0.058-0.305 0.058h-0.596c-0.2 0-0.392-0.072-0.539-0.201-0.157-0.137-0.256-0.337-0.257-0.56v-0.119c0-0.1 0.021-0.199 0.060-0.291s0.098-0.176 0.173-0.247c0.074-0.071 0.162-0.127 0.258-0.165 0.090-0.037 0.195-0.058 0.305-0.058h0.596c0.026 0 0.053 0.001 0.079 0.004 0.202 0.019 0.38 0.11 0.511 0.246l0 0c0.127 0.132 0.205 0.312 0.206 0.511v0z"></path>
<path fill="#f9d67b" style="fill: var(--color16, #f9d67b)" opacity="0.2" d="M10.666 15.498c5.085 0 9.208-3.428 9.208-7.658s-4.122-7.658-9.208-7.658-9.208 3.428-9.208 7.658c0 4.229 4.122 7.658 9.208 7.658z"></path>
<path fill="#f9d67b" style="fill: var(--color16, #f9d67b)" opacity="0.3" d="M10.666 9.299c3.776 0 6.837-1.959 6.837-4.376s-3.061-4.376-6.837-4.376c-3.776 0-6.837 1.959-6.837 4.376s3.061 4.376 6.838 4.376z"></path>
<path fill="#35d69e" style="fill: var(--color15, #35d69e)" d="M13.857 27.438v0.111c0 0.093-0.021 0.186-0.061 0.272-0.044 0.091-0.103 0.167-0.174 0.23l-0.001 0.001c-0.074 0.065-0.161 0.117-0.256 0.152l-0.006 0.002c-0.098 0.036-0.202 0.054-0.308 0.054h-4.782c-0.002 0-0.003 0-0.005 0-0.192 0-0.37-0.062-0.515-0.168l0.002 0.002c-0.145-0.107-0.243-0.256-0.276-0.421h5.248c0.381 0 0.691-0.318 0.691-0.711v-0.111c0-0.017 0-0.034-0.002-0.050 0.134 0.059 0.246 0.15 0.325 0.262s0.12 0.242 0.12 0.374z"></path>
<path fill="#35d69e" style="fill: var(--color15, #35d69e)" d="M11.669 29.019v0.119c0 0.1-0.021 0.2-0.061 0.292-0.043 0.097-0.101 0.179-0.172 0.248l-0 0c-0.074 0.071-0.162 0.127-0.259 0.165-0.090 0.037-0.195 0.058-0.305 0.058-0 0-0.001 0-0.001 0h-0.596c-0.2 0-0.392-0.072-0.54-0.202-0.142-0.124-0.236-0.298-0.254-0.495l-0-0.003h0.584c0.235 0 0.46-0.089 0.626-0.248s0.26-0.375 0.26-0.6v-0.094c0.197 0.019 0.379 0.107 0.511 0.247s0.206 0.322 0.207 0.512z"></path>
<path fill="#fca69d" style="fill: var(--color17, #fca69d)" d="M5.684 17.794c-0.23 0.234-1.024 0.304-1.429 0.123-0.17-0.076-0.27-0.197-0.233-0.368 0.126-0.582 0.589-0.095 0.904-0.236s-0.41-0.020-0.2-0.211c0.088-0.079 0.239-0.072 0.385-0.036 0.154 0.041 0.288 0.095 0.414 0.162l-0.011-0.005s0.368 0.17 0.169 0.572z"></path>
<path fill="#ea847d" style="fill: var(--color4, #ea847d)" d="M5.684 17.794c-0.23 0.234-1.024 0.304-1.428 0.123 0.375 0.103 0.818-0.024 0.892-0.313 0.016-0.064 0.025-0.137 0.025-0.212 0-0.117-0.022-0.229-0.063-0.332l0.002 0.006c0.154 0.041 0.288 0.095 0.414 0.162l-0.011-0.005s0.368 0.171 0.168 0.573z"></path>
<path fill="#8978f7" style="fill: var(--color11, #8978f7)" d="M10.757 12.787v2.753s0 1.043-1.227 1.538c-0.386 0.156-1.254 0.441-2.126 0.635-0.63 0.141-1.263 0.233-1.716 0.194-0.407-0.080-0.336-0.696-0.336-0.696s0-0.307 1.206-0.522c1.206-0.214 2.174-0.562 2.903-2.287s1.297-1.616 1.297-1.616z"></path>
<path fill="#614bf4" style="fill: var(--color12, #614bf4)" d="M10.757 12.787v2.753s0 1.043-1.227 1.538c-0.386 0.156-1.254 0.441-2.126 0.635 0.609-0.234 1.427-0.332 2.056-1.284 0.515-0.782 0.14-1.478 0.463-2.441s0.834-1.202 0.834-1.202z"></path>
<path fill="#8978f7" style="fill: var(--color11, #8978f7)" d="M10.489 30.8l-0.417 0.097-0.158-0.398-0.135 0.452s-1.003 0.237-1.387 0.161c-0.161-0.031-0.145-0.109-0.046-0.204 0.136-0.132 0.43-0.299 0.633-0.43 0.35-0.226 0.8-0.484 0.8-0.484l0.552-0.050s0.259 0.459 0.158 0.857z"></path>
<path fill="#614bf4" style="fill: var(--color12, #614bf4)" d="M10.489 30.8l-0.417 0.097-0.158-0.398-0.135 0.452s-1.003 0.237-1.387 0.161c-0.161-0.031-0.145-0.109-0.046-0.204-0.132 0.202 0.35 0.153 1.046-0.148s0.594-0.689 0.594-0.689l-0.021-0.094 0.367-0.033s0.259 0.458 0.158 0.856z"></path>
<path fill="#8978f7" style="fill: var(--color11, #8978f7)" d="M14.814 31.887c-0.4 0.13-1.305-0.401-1.305-0.401v-0.522l-0.157 0.391-0.253-0.17c-0.084-0.331 0.168-0.782 0.168-0.782 0.079-0.042 0.17-0.060 0.26-0.051 0.128 0.014 0.251 0.055 0.36 0.121 0 0 0.263 0.391 0.673 0.682 0.246 0.175 0.432 0.357 0.455 0.503 0.014 0.097-0.043 0.177-0.202 0.229z"></path>
<path fill="#614bf4" style="fill: var(--color12, #614bf4)" d="M14.814 31.887c-0.4 0.13-1.305-0.401-1.305-0.401v-0.522l-0.157 0.391-0.253-0.17c-0.084-0.331 0.168-0.782 0.168-0.782 0.079-0.042 0.17-0.060 0.26-0.051l0.077 0.214s-0.023 0.54 0.511 0.936c0.508 0.376 0.866 0.377 0.9 0.155 0.015 0.097-0.043 0.177-0.202 0.229z"></path>
<path fill="#2b2f54" style="fill: var(--color9, #2b2f54)" d="M12.3 20.944s-0.545 2.818-1.048 5.343c-0.344 1.732-0.669 3.325-0.783 3.775-0.224 0.264-0.761 0-0.761 0s-0.249-1.083-0.249-5.477c0-3.296 0.319-4.915 0.479-5.518 0.025-0.098 0.054-0.194 0.089-0.289h2.040l0.232 2.166z"></path>
<path fill="#14182d" style="fill: var(--color10, #14182d)" d="M12.3 20.944s-0.545 2.818-1.048 5.343c-0.134-0.866-0.396-2.79-0.373-4.41 0.032-2.166-0.941-2.81-0.941-2.81 0.025-0.098 0.054-0.194 0.089-0.289h2.040l0.232 2.166z"></path>
<path fill="#2b2f54" style="fill: var(--color9, #2b2f54)" d="M14.109 30.452c-0.357 0.401-0.926 0-0.926 0s-0.316-1.745-0.883-5.296c-0.768-5.254-1.090-7.155-1.422-9.052l0.501 3.461c-0.044-0.259-0.068-0.398-0.068-0.398s1.494-1.053 2.535-0.391c0.231 0.353 0.368 1.378 0.44 2.688 0.173 3.154-0.028 7.954-0.177 8.989z"></path>
<path fill="#14182d" style="fill: var(--color10, #14182d)" d="M14.286 21.465c-0.015-0.035-0.491-1.17-1.221-1.584-0.743-0.421-1.685-0.315-1.685-0.315l-0.068-0.398s1.494-1.053 2.535-0.391c0.231 0.354 0.368 1.38 0.439 2.689z"></path>
<path fill="#fca69d" style="fill: var(--color17, #fca69d)" d="M12.657 12.29c-0.365 0.589-0.281 0.562-0.365 0.589s-0.841-0.315-0.841-0.315 0.002-0.050 0-0.127c-0.003-0.201-0.025-0.587-0.141-0.756 0.266-0.265 0.583-0.48 0.935-0.628l0.019-0.007c0.007 0.17 0.026 0.338 0.057 0.505 0.052 0.28 0.151 0.599 0.336 0.738z"></path>
<path fill="#e57673" style="fill: var(--color18, #e57673)" d="M12.313 11.506c-0.567 0.288-0.862 0.932-0.862 0.932-0.003-0.201-0.025-0.587-0.141-0.756 0.266-0.265 0.583-0.48 0.934-0.628l0.019-0.007c0.003 0.165 0.021 0.323 0.052 0.477l-0.003-0.017z"></path>
<path fill="#fca69d" style="fill: var(--color17, #fca69d)" d="M12.552 10.923s-0.121 0.271-0.329 0.409c-0.142 0.168-0.238 0.11-0.248 0.103 0 0-0.841 0.752-1.273 0.461-0.221-0.148-0.276-0.542-0.278-0.891 0-0.212 0.015-0.424 0.046-0.634 0.025-0.077 0.067-0.149 0.124-0.208 0.303-0.319 0.96-0.309 1.022-0.284 0.074 0.029 0.705 0.222 0.705 0.222l0.087 0.309 0.143 0.513z"></path>
<path fill="#ea847d" style="fill: var(--color4, #ea847d)" d="M12.552 10.923s-0.121 0.271-0.329 0.409c-0.142 0.168-0.238 0.11-0.248 0.103 0.309 0.054 0.46-0.609 0.2-0.702s-0.414 0.221-0.414 0.221c-0.309-0.020-0.351-0.368-0.568-0.395-0.162-0.020-0.572 0.289-0.769 0.446 0-0.212 0.015-0.424 0.046-0.633 0.025-0.078 0.067-0.149 0.124-0.209l0.297-0.158h0.771l0.746 0.405 0.143 0.513z"></path>
<path fill="#6a3442" style="fill: var(--color19, #6a3442)" d="M12.964 10.743c-0.304 0.324-0.741 0.589-0.741 0.589s0.364-0.58-0.014-0.74c-0.379-0.161-0.449 0.362-0.449 0.362s-0.463-0.375-0.323-0.682c0 0-2.033 0.909-2.664-0.441-0.253-0.542-0.226-0.925-0.016-1.153 0.315-0.339 1.039-0.334 1.853 0.003 1.36 0.562 1.585-0.294 1.991 0.133s0.098 0.762 0.098 0.762 0.463 0.067 0.547 0.575c0.031 0.189-0.102 0.401-0.282 0.592z"></path>
<path fill="#8978f7" style="fill: var(--color11, #8978f7)" d="M14.424 19.018c-0.316 0.522-1.578-0.301-2.23 0.2s-1.368 0.421-2.019 0c-0.652-0.421-0.548-0.254-0.126-1.845 0.402-1.517 0.095-2.929 0.147-3.571s0.4-1.033 1.255-1.394c0.498 0.251 1.206-0.117 1.206-0.117s1.157 0.408 1.22 0.769c0.025 0.144 0.027 0.502 0.015 0.976-0.019 0.714-0.069 1.691-0.12 2.595-0.084 1.505 0.442 1.444 0.652 2.387z"></path>
<path fill="#614bf4" style="fill: var(--color12, #614bf4)" d="M14.424 19.018c-0.316 0.522-1.578-0.301-2.23 0.2 0.365-0.321 0.673-0.651 0.699-1.504s-0.826-0.996-0.826-0.996l-0.364-0.884s0.927-0.274 1.001-0.797c0.043-0.302-0.088-1.501-0.088-1.501l1.276 0.501c-0.019 0.714-0.069 1.691-0.12 2.595-0.085 1.505 0.441 1.444 0.651 2.387z"></path>
<path fill="#a39cd3" style="fill: var(--color20, #a39cd3)" d="M23.948 19.795c-0.491 2.224-2.416 3.515-4.328 3.826-2.587 0.421-6.080-0.683-5.837-3.099s1.062-4.574 0.41-5.677c-0.157-0.265-0.319-0.46-0.481-0.594-0.221-0.184-0.445-0.254-0.657-0.238-0.278 0.021-0.538 0.191-0.756 0.45-0.505 0.602-0.856 0.655-1.273 1.815 0 0 0.147 0.732 0.41 0.983s0.042 1.033-0.205 1.083c-0.3-0.060-0.153-0.392-0.426-0.326s-0.031-0.346-0.263-0.376c-0.035-0.005-0.077-0.007-0.119-0.008h-0.001c-0.214-0.004-0.452 0.026-0.417-0.106 0.042-0.157-0.473-0.007-0.421-0.217s0.717-0.416 1.037-1.231c0.085-0.215 0.142-0.498 0.217-0.831l0.001-0.007c0-0.003 0.001-0.005 0.002-0.008l0.004-0.019c0.211-0.927 0.565-2.234 1.983-3.561 1.95-1.826 5.169-1.665 6.494 0 0.425 0.534 0.948 0.884 1.493 1.243 1.153 0.758 2.408 1.551 3.051 4.194 0.248 1.016 0.252 1.918 0.078 2.704z"></path>
<path fill="#7267bb" style="fill: var(--color21, #7267bb)" d="M23.948 19.795c-0.491 2.224-2.416 3.515-4.328 3.826-2.587 0.421-6.080-0.683-5.837-3.099s1.062-4.574 0.41-5.677c-0.157-0.265-0.319-0.46-0.48-0.594l0.389-1.371s0.723 0.58 0.975 1.794c0.252 1.214-0.373 4.306 1.357 4.306 2.69 0-0.6 3.478 2.808 3.688s4.706-2.874 4.706-2.874z"></path>
<path fill="#614bf4" style="fill: var(--color12, #614bf4)" d="M13.056 14.014c-0.278 0.021-0.538 0.191-0.756 0.45-0.505 0.602-0.856 0.655-1.273 1.815 0 0 0.147 0.732 0.41 0.983s0.042 1.033-0.205 1.083c-0.3-0.060-0.153-0.392-0.426-0.326s-0.031-0.346-0.263-0.376c-0.035-0.004-0.077-0.007-0.119-0.008h-0.001c0.739-0.111 0.579-0.61 0.354-1.092s0.337-1.203 1.035-2.1c0.697-0.896 0.871-1.282 0.871-1.282l0.372 0.852z"></path>
<path fill="#fca69d" style="fill: var(--color17, #fca69d)" d="M11.035 16.43c-0.496-0.041-0.73-0.211-0.81-0.385-0.074-0.156-0.023-0.314 0.071-0.383 0.191-0.143 0.548 0.16 0.566 0.176-0.008-0.012-0.119-0.185 0-0.237 0.046-0.021 0.114 0.023 0.18 0.088 0.078 0.080 0.149 0.166 0.211 0.257 0 0 0.274 0.377-0.218 0.484z"></path>
<path fill="#ea847d" style="fill: var(--color4, #ea847d)" d="M11.035 16.43c-0.497-0.041-0.73-0.211-0.81-0.385 0.217 0.241 0.565 0.187 0.674 0.030s0.143-0.387 0.143-0.387c0.078 0.080 0.149 0.166 0.211 0.257 0 0 0.273 0.377-0.218 0.484z"></path>
<path fill="#3d2042" style="fill: var(--color8, #3d2042)" d="M12.964 10.742c-0.304 0.324-0.741 0.589-0.741 0.589s0.364-0.58-0.014-0.74c-0.379-0.161-0.449 0.362-0.449 0.362s-0.463-0.374-0.323-0.682c0 0-2.033 0.909-2.664-0.441-0.253-0.542-0.226-0.925-0.016-1.153 0 0-0.103 0.959 0.952 1.201s1.812-0.26 2.012-0.119 0 0.585 0 0.585 0.736-0.156 0.831 0c0.094 0.156-0.101 0.589 0.412 0.398z"></path>
<path fill="#f9d679" style="fill: var(--color5, #f9d679)" d="M19.529 18.113l-0.11-0.264c-0.182 0.062-0.383 0.081-0.512 0.055l-0.029-0.285c0.167 0.025 0.337 0.008 0.496-0.049 0.18-0.068 0.268-0.199 0.213-0.33-0.051-0.123-0.184-0.164-0.426-0.158-0.344 0.010-0.591-0.047-0.697-0.301-0.098-0.234 0-0.479 0.267-0.637l-0.111-0.267 0.234-0.088 0.105 0.253c0.105-0.040 0.226-0.062 0.352-0.062 0.028 0 0.055 0.001 0.083 0.003l-0.004-0 0.027 0.281c-0.029-0.003-0.062-0.005-0.096-0.005-0.119 0-0.233 0.022-0.338 0.061l0.007-0.002c-0.2 0.076-0.231 0.2-0.192 0.293 0.047 0.112 0.175 0.135 0.456 0.136 0.368-0.007 0.571 0.087 0.672 0.329 0.096 0.232 0.013 0.499-0.281 0.667l0.117 0.281-0.234 0.088z"></path>
<path fill="#f9d679" style="fill: var(--color5, #f9d679)" d="M19.161 19.128c-0.001 0-0.002 0-0.004 0-0.48 0-0.927-0.14-1.303-0.381l0.010 0.006c-0.378-0.241-0.674-0.582-0.854-0.985l-0.006-0.014c-0.112-0.251-0.178-0.544-0.178-0.852 0-0.154 0.016-0.304 0.047-0.448l-0.003 0.014c0.098-0.453 0.324-0.842 0.638-1.139l0.001-0.001c0.321-0.304 0.728-0.52 1.18-0.607l0.015-0.002c0.137-0.027 0.294-0.043 0.455-0.043 0.322 0 0.629 0.062 0.91 0.175l-0.016-0.006c0.431 0.171 0.787 0.454 1.043 0.813l0.005 0.007c0.245 0.344 0.393 0.773 0.394 1.237v0c-0.001 0.59-0.247 1.156-0.685 1.574s-1.031 0.652-1.65 0.653zM19.161 15.001c-0.394 0-0.779 0.111-1.107 0.32-0.323 0.206-0.575 0.496-0.729 0.841l-0.005 0.012c-0.096 0.214-0.151 0.464-0.151 0.727 0 0.131 0.014 0.259 0.040 0.383l-0.002-0.012c0.084 0.386 0.277 0.718 0.544 0.972l0.001 0.001c0.274 0.259 0.621 0.444 1.007 0.518l0.013 0.002c0.117 0.023 0.251 0.037 0.389 0.037 0.274 0 0.536-0.053 0.776-0.15l-0.014 0.005c0.368-0.146 0.671-0.387 0.89-0.694l0.004-0.006c0.209-0.294 0.335-0.66 0.336-1.056v-0c-0.001-0.503-0.211-0.986-0.584-1.342s-0.88-0.556-1.408-0.557v-0.001z"></path>
</symbol>
<symbol id="icon-valut" viewBox="0 0 31 32">
<path fill="#1ed797" style="fill: var(--color22, #1ed797)" d="M16.997 22.209h12.688s-2.001-1.525-1.237-6.886c0.765-5.36 3.682-10.288 1.020-15.323h-12.471s1.133 1.76 1.095 4.9c-0.038 3.141-1.266 6.018-2.039 9.512-1.095 4.945 0.944 7.797 0.944 7.797z"></path>
<path fill="#44e5ad" style="fill: var(--color14, #44e5ad)" d="M16.215 22.209h12.689s-2.002-1.525-1.237-6.886c0.764-5.36 3.682-10.288 1.020-15.323h-12.471s1.133 1.76 1.095 4.9c-0.037 3.14-1.265 6.018-2.039 9.512-1.095 4.945 0.944 7.797 0.944 7.797z"></path>
<path fill="#6de2bb" style="fill: var(--color23, #6de2bb)" d="M25.988 1.5c0.067 0.272 0.173 0.534 0.316 0.778 0.281 0.47 0.814 1.022 1.795 1.119 0.045 0.307 0.104 0.889 0.077 1.731-0.025 0.765-0.116 1.592-0.269 2.458-0.192 1.084-0.484 2.232-0.867 3.412-0.9 2.772-1.139 4.816-1.18 6.042-0.028 0.818 0.025 1.395 0.073 1.73-0.22 0.075-0.41 0.168-0.587 0.282l0.011-0.006c-0.406 0.257-0.933 0.746-1.237 1.641h-5.243c-0.090-0.286-0.209-0.535-0.36-0.762l0.007 0.011c-0.298-0.453-0.851-1.009-1.834-1.199-0.027-0.257-0.064-0.69-0.074-1.223-0.015-0.8 0.030-1.997 0.325-3.163 0.084-0.329 0.194-0.739 0.321-1.213 0.757-2.816 1.998-7.433 1.634-9.785 0.515-0.15 1.386-0.586 1.936-1.853l5.156 0.001zM26.298 1.145h-5.721c-0.699 1.877-2.115 1.931-2.115 1.931 0.642 2.473-1.29 8.856-1.882 11.19s-0.227 4.777-0.227 4.777c1.976 0.217 2.228 1.997 2.228 1.997h5.816c0.491-1.853 1.957-2.010 1.957-2.010s-0.68-2.635 1.039-7.928 1.019-8.045 1.019-8.045c-1.945 0-2.115-1.913-2.115-1.913h-0.001z"></path>
<path fill="#6de2bb" style="fill: var(--color23, #6de2bb)" d="M19.062 8.714c0.062 0 0.125 0.002 0.188 0.006 0.703 0.045 1.36 0.35 1.832 0.849s0.723 1.155 0.7 1.828-0.32 1.311-0.826 1.779c-0.506 0.468-1.183 0.731-1.888 0.731-0.062 0-0.125-0.002-0.188-0.006-0.703-0.045-1.36-0.35-1.832-0.849s-0.723-1.155-0.7-1.828c0.023-0.673 0.319-1.311 0.826-1.779s1.183-0.731 1.888-0.731zM19.063 8.359c-1.61 0-2.966 1.193-3.077 2.751-0.116 1.626 1.169 3.034 2.87 3.144 0.072 0.005 0.142 0.007 0.213 0.007 1.61 0 2.966-1.193 3.077-2.751 0.116-1.626-1.169-3.034-2.871-3.145-0.063-0.004-0.136-0.007-0.21-0.007-0.001 0-0.002 0-0.003 0h0zM20.174 3.638c0.002-0 0.004-0 0.006-0 0.184 0 0.349 0.081 0.461 0.209l0.001 0.001c0.099 0.114 0.148 0.259 0.139 0.406-0.011 0.154-0.082 0.29-0.189 0.386l-0.001 0c-0.11 0.098-0.255 0.158-0.414 0.158-0.027 0-0.054-0.002-0.080-0.005l0.003 0c-0.157-0.018-0.294-0.094-0.391-0.204l-0.001-0.001c-0.087-0.099-0.14-0.229-0.14-0.372 0-0.012 0-0.024 0.001-0.036l-0 0.002c0.010-0.147 0.077-0.285 0.19-0.387 0.109-0.098 0.255-0.158 0.414-0.158 0 0 0.001 0 0.001 0h-0zM20.174 3.284c-0.254 0-0.498 0.095-0.68 0.264-0.175 0.161-0.287 0.387-0.297 0.64l-0 0.002c-0.008 0.243 0.083 0.479 0.254 0.659 0.169 0.175 0.401 0.289 0.66 0.304l0.003 0c0.019 0.001 0.041 0.002 0.063 0.002 0.241 0 0.462-0.085 0.636-0.226l-0.002 0.001c0.186-0.151 0.311-0.37 0.338-0.619l0-0.004c0.003-0.026 0.004-0.056 0.004-0.087 0-0.224-0.081-0.429-0.216-0.587l0.001 0.001c-0.183-0.215-0.453-0.35-0.755-0.35-0.003 0-0.005 0-0.008 0h0zM21.288 18.293c0.002-0 0.004-0 0.006-0 0.184 0 0.349 0.081 0.461 0.209l0.001 0.001c0.099 0.114 0.148 0.259 0.139 0.406-0.011 0.154-0.082 0.29-0.189 0.386l-0.001 0c-0.11 0.098-0.255 0.158-0.414 0.158-0.027 0-0.054-0.002-0.080-0.005l0.003 0c-0.157-0.018-0.294-0.094-0.391-0.204l-0.001-0.001c-0.087-0.099-0.14-0.229-0.14-0.372 0-0.012 0-0.024 0.001-0.036l-0 0.002c0.010-0.147 0.077-0.285 0.19-0.387 0.109-0.098 0.255-0.157 0.414-0.157 0 0 0.001 0 0.001 0h-0zM21.288 17.939c-0.254 0-0.498 0.094-0.68 0.264-0.175 0.161-0.287 0.387-0.297 0.64l-0 0.002c-0.008 0.243 0.083 0.479 0.254 0.658 0.169 0.175 0.401 0.288 0.659 0.303l0.003 0c0.019 0.001 0.041 0.002 0.063 0.002 0.241 0 0.462-0.085 0.636-0.226l-0.002 0.001c0.186-0.151 0.311-0.37 0.338-0.619l0-0.004c0.003-0.026 0.004-0.056 0.004-0.086 0-0.224-0.081-0.429-0.216-0.587l0.001 0.001c-0.183-0.215-0.453-0.35-0.755-0.35-0.003 0-0.006 0-0.008 0h0z"></path>
<path fill="#6de2bb" style="fill: var(--color23, #6de2bb)" d="M20.939 11.582l-0.463-0.030c-0.023 0.254-0.124 0.512-0.25 0.658l-0.3-0.126c0.135-0.17 0.223-0.383 0.242-0.615l0-0.004c0.022-0.311-0.151-0.534-0.413-0.551-0.252-0.016-0.421 0.144-0.581 0.46-0.215 0.435-0.446 0.698-0.845 0.672-0.381-0.025-0.652-0.302-0.692-0.71l-0.464-0.030 0.019-0.272 0.445 0.029c0.028-0.262 0.114-0.437 0.201-0.56l0.295 0.13c-0.111 0.151-0.182 0.337-0.195 0.54l-0 0.003c-0.024 0.338 0.178 0.479 0.362 0.491 0.238 0.015 0.369-0.139 0.562-0.51 0.225-0.439 0.48-0.652 0.888-0.625 0.363 0.024 0.685 0.287 0.731 0.744l0.477 0.031-0.019 0.277z"></path>
<path fill="#1ed797" style="fill: var(--color22, #1ed797)" d="M15.741 22.209h12.688s-2.001-1.525-1.237-6.886c0.765-5.36 3.682-10.288 1.020-15.323h-12.471s1.133 1.76 1.095 4.9c-0.038 3.141-1.266 6.018-2.039 9.512-1.095 4.945 0.944 7.797 0.944 7.797z"></path>
<path fill="#44e5ad" style="fill: var(--color14, #44e5ad)" d="M14.959 22.209h12.688s-2.001-1.525-1.237-6.886c0.765-5.36 3.682-10.288 1.020-15.323h-12.472s1.133 1.76 1.095 4.9c-0.038 3.141-1.266 6.018-2.039 9.512-1.095 4.945 0.944 7.797 0.944 7.797z"></path>
<path fill="#6de2bb" style="fill: var(--color23, #6de2bb)" d="M24.732 1.5c0.066 0.272 0.173 0.534 0.316 0.778 0.281 0.47 0.814 1.022 1.794 1.119 0.046 0.307 0.105 0.889 0.077 1.731-0.025 0.765-0.115 1.592-0.269 2.458-0.192 1.084-0.484 2.232-0.867 3.412-0.9 2.772-1.139 4.816-1.18 6.042-0.028 0.818 0.025 1.395 0.073 1.73-0.22 0.075-0.41 0.168-0.587 0.282l0.011-0.006c-0.406 0.257-0.933 0.746-1.237 1.641h-5.244c-0.089-0.286-0.209-0.535-0.359-0.763l0.007 0.011c-0.298-0.453-0.851-1.009-1.834-1.199-0.027-0.257-0.064-0.69-0.074-1.223-0.015-0.8 0.029-1.997 0.325-3.163 0.083-0.329 0.194-0.739 0.321-1.213 0.757-2.816 1.998-7.433 1.634-9.785 0.515-0.15 1.386-0.586 1.936-1.853l5.157 0.001zM25.041 1.145h-5.721c-0.699 1.877-2.115 1.931-2.115 1.931 0.642 2.473-1.291 8.856-1.882 11.19s-0.227 4.777-0.227 4.777c1.976 0.217 2.228 1.997 2.228 1.997h5.816c0.491-1.853 1.957-2.010 1.957-2.010s-0.68-2.635 1.038-7.928c1.718-5.293 1.020-8.045 1.020-8.045-1.945 0-2.115-1.913-2.115-1.913h-0.001z"></path>
<path fill="#6de2bb" style="fill: var(--color23, #6de2bb)" d="M17.806 8.714c0.062 0 0.125 0.002 0.187 0.006 0.703 0.045 1.36 0.35 1.832 0.85s0.723 1.155 0.7 1.828c-0.023 0.673-0.32 1.311-0.826 1.78s-1.183 0.731-1.888 0.731c-0.062 0-0.125-0.002-0.187-0.006-0.703-0.045-1.36-0.35-1.832-0.849s-0.723-1.155-0.7-1.828c0.024-0.673 0.32-1.311 0.826-1.78s1.183-0.73 1.888-0.731zM17.806 8.359c-1.61 0-2.966 1.193-3.077 2.751-0.116 1.626 1.169 3.034 2.87 3.144 0.072 0.005 0.142 0.007 0.213 0.007 1.61 0 2.966-1.193 3.077-2.751 0.116-1.626-1.17-3.034-2.87-3.145-0.063-0.004-0.136-0.007-0.21-0.007-0.001 0-0.002 0-0.003 0h0zM18.917 3.638c0.002-0 0.004-0 0.006-0 0.184 0 0.349 0.081 0.461 0.209l0.001 0.001c0.099 0.114 0.148 0.259 0.139 0.406-0.011 0.154-0.082 0.29-0.189 0.386l-0.001 0c-0.11 0.098-0.255 0.158-0.414 0.158-0.027 0-0.054-0.002-0.080-0.005l0.003 0c-0.157-0.018-0.294-0.094-0.391-0.204l-0.001-0.001c-0.087-0.099-0.14-0.229-0.14-0.372 0-0.012 0-0.024 0.001-0.036l-0 0.002c0.010-0.147 0.077-0.285 0.189-0.387 0.109-0.098 0.255-0.158 0.414-0.158 0 0 0.001 0 0.001 0h-0zM18.917 3.284c-0.254 0-0.498 0.095-0.681 0.264-0.175 0.161-0.287 0.387-0.297 0.64l-0 0.002c-0.008 0.243 0.083 0.479 0.254 0.659 0.169 0.175 0.401 0.289 0.66 0.304l0.003 0c0.019 0.001 0.040 0.002 0.062 0.002 0.241 0 0.462-0.085 0.636-0.226l-0.002 0.001c0.186-0.151 0.311-0.37 0.338-0.619l0-0.004c0.003-0.026 0.004-0.056 0.004-0.087 0-0.224-0.081-0.429-0.216-0.587l0.001 0.001c-0.183-0.215-0.453-0.35-0.755-0.35-0.003 0-0.005 0-0.008 0h0zM20.031 18.293c0.002-0 0.004-0 0.006-0 0.184 0 0.349 0.081 0.461 0.209l0.001 0.001c0.099 0.114 0.148 0.259 0.139 0.406-0.011 0.154-0.082 0.29-0.189 0.386l-0.001 0c-0.11 0.098-0.255 0.158-0.414 0.158-0.027 0-0.054-0.002-0.080-0.005l0.003 0c-0.157-0.018-0.294-0.094-0.391-0.204l-0.001-0.001c-0.087-0.099-0.14-0.229-0.14-0.372 0-0.012 0-0.024 0.001-0.036l-0 0.002c0.010-0.147 0.077-0.285 0.19-0.387 0.109-0.098 0.255-0.157 0.414-0.157 0 0 0.001 0 0.001 0h-0zM20.031 17.939c-0.254 0-0.498 0.094-0.68 0.264-0.175 0.161-0.287 0.387-0.297 0.64l-0 0.002c-0.008 0.243 0.083 0.479 0.254 0.658 0.169 0.175 0.401 0.288 0.659 0.303l0.003 0c0.019 0.001 0.041 0.002 0.063 0.002 0.241 0 0.462-0.085 0.636-0.226l-0.002 0.001c0.186-0.151 0.311-0.37 0.338-0.619l0-0.004c0.003-0.026 0.004-0.056 0.004-0.086 0-0.224-0.081-0.429-0.216-0.587l0.001 0.001c-0.183-0.215-0.453-0.35-0.755-0.35-0.003 0-0.006 0-0.008 0h0z"></path>
<path fill="#6de2bb" style="fill: var(--color23, #6de2bb)" d="M19.683 11.582l-0.464-0.030c-0.022 0.254-0.124 0.512-0.25 0.658l-0.3-0.126c0.135-0.17 0.223-0.383 0.242-0.615l0-0.004c0.022-0.311-0.151-0.534-0.413-0.551-0.252-0.016-0.421 0.144-0.581 0.46-0.215 0.435-0.446 0.698-0.845 0.672-0.381-0.025-0.652-0.302-0.692-0.71l-0.463-0.030 0.019-0.272 0.445 0.029c0.028-0.262 0.114-0.437 0.201-0.56l0.295 0.13c-0.111 0.151-0.182 0.337-0.195 0.54l-0 0.003c-0.024 0.338 0.178 0.479 0.362 0.491 0.238 0.015 0.369-0.139 0.562-0.51 0.225-0.439 0.48-0.652 0.888-0.625 0.363 0.024 0.685 0.287 0.731 0.744l0.477 0.031-0.019 0.277z"></path>
<path fill="#1ed797" style="fill: var(--color22, #1ed797)" d="M14.484 22.209h12.689s-2.002-1.525-1.237-6.886c0.764-5.36 3.682-10.288 1.020-15.323h-12.471s1.133 1.76 1.095 4.9c-0.038 3.141-1.266 6.018-2.040 9.512-1.095 4.945 0.944 7.797 0.944 7.797z"></path>
<path fill="#44e5ad" style="fill: var(--color14, #44e5ad)" d="M13.702 22.209h12.688s-2.001-1.525-1.236-6.886c0.765-5.36 3.682-10.288 1.020-15.323h-12.471s1.133 1.76 1.095 4.9c-0.037 3.14-1.266 6.018-2.040 9.512-1.095 4.945 0.944 7.797 0.944 7.797z"></path>
<path fill="#6de2bb" style="fill: var(--color23, #6de2bb)" d="M23.475 1.5c0.066 0.272 0.173 0.534 0.316 0.778 0.28 0.47 0.814 1.022 1.794 1.119 0.046 0.307 0.105 0.889 0.077 1.731-0.025 0.765-0.116 1.592-0.269 2.458-0.192 1.084-0.484 2.232-0.868 3.412-0.9 2.772-1.139 4.816-1.18 6.042-0.028 0.819 0.025 1.395 0.072 1.73-0.22 0.075-0.41 0.168-0.587 0.282l0.011-0.006c-0.406 0.257-0.933 0.746-1.237 1.641h-5.243c-0.090-0.286-0.209-0.535-0.36-0.763l0.007 0.011c-0.298-0.453-0.851-1.009-1.833-1.199-0.071-0.676-0.208-2.575 0.251-4.386 0.084-0.329 0.194-0.739 0.321-1.212 0.757-2.817 1.998-7.433 1.634-9.785 0.515-0.15 1.386-0.586 1.936-1.853l5.157 0.001zM23.785 1.145h-5.721c-0.699 1.877-2.115 1.932-2.115 1.932 0.642 2.473-1.29 8.856-1.882 11.19s-0.227 4.777-0.227 4.777c1.976 0.216 2.228 1.997 2.228 1.997h5.816c0.491-1.853 1.957-2.010 1.957-2.010s-0.68-2.635 1.038-7.928c1.718-5.293 1.020-8.044 1.020-8.044-1.945 0-2.115-1.913-2.115-1.913l-0.001-0.001z"></path>
<path fill="#6de2bb" style="fill: var(--color23, #6de2bb)" d="M16.55 8.714c0.062 0 0.125 0.002 0.187 0.006 0.703 0.045 1.36 0.35 1.832 0.85s0.723 1.155 0.7 1.828c-0.023 0.673-0.32 1.311-0.826 1.78s-1.183 0.731-1.888 0.731c-0.062 0-0.125-0.002-0.187-0.006-0.703-0.045-1.36-0.35-1.832-0.849s-0.723-1.155-0.7-1.828c0.023-0.673 0.32-1.311 0.826-1.779s1.183-0.731 1.888-0.731zM16.55 8.359c-1.61 0-2.966 1.193-3.077 2.751-0.116 1.626 1.17 3.034 2.871 3.144 0.071 0.005 0.142 0.007 0.213 0.007 1.61 0 2.966-1.193 3.077-2.751 0.116-1.626-1.169-3.034-2.87-3.145-0.063-0.004-0.136-0.007-0.21-0.007-0.001 0-0.002 0-0.003 0h0zM17.661 3.638c0.002-0 0.004-0 0.006-0 0.184 0 0.349 0.081 0.461 0.209l0.001 0.001c0.099 0.114 0.148 0.259 0.139 0.406-0.011 0.154-0.082 0.29-0.189 0.386l-0.001 0c-0.11 0.098-0.255 0.158-0.414 0.158-0.027 0-0.054-0.002-0.080-0.005l0.003 0c-0.157-0.018-0.294-0.094-0.391-0.204l-0.001-0.001c-0.087-0.099-0.14-0.229-0.14-0.372 0-0.012 0-0.024 0.001-0.036l-0 0.002c0.010-0.147 0.077-0.285 0.19-0.387 0.109-0.098 0.255-0.158 0.414-0.158 0 0 0.001 0 0.001 0h-0zM17.661 3.284c-0.254 0-0.498 0.095-0.68 0.264-0.175 0.161-0.287 0.387-0.297 0.64l-0 0.002c-0.008 0.243 0.083 0.479 0.254 0.659 0.169 0.175 0.401 0.289 0.66 0.304l0.003 0c0.019 0.001 0.041 0.002 0.063 0.002 0.241 0 0.462-0.085 0.636-0.226l-0.002 0.001c0.186-0.151 0.311-0.37 0.338-0.619l0-0.004c0.003-0.026 0.004-0.056 0.004-0.087 0-0.224-0.081-0.429-0.216-0.587l0.001 0.001c-0.183-0.215-0.453-0.35-0.755-0.35-0.003 0-0.005 0-0.008 0h0zM18.775 18.293c0.002-0 0.004-0 0.006-0 0.184 0 0.349 0.081 0.461 0.209l0.001 0.001c0.099 0.114 0.148 0.259 0.139 0.406-0.011 0.154-0.082 0.29-0.189 0.386l-0.001 0c-0.11 0.098-0.255 0.158-0.414 0.158-0.027 0-0.054-0.002-0.080-0.005l0.003 0c-0.157-0.018-0.294-0.094-0.391-0.204l-0.001-0.001c-0.087-0.099-0.14-0.229-0.14-0.372 0-0.012 0-0.024 0.001-0.036l-0 0.002c0.010-0.147 0.077-0.285 0.19-0.387 0.109-0.098 0.255-0.157 0.414-0.157 0 0 0.001 0 0.001 0h-0zM18.775 17.939c-0.254 0-0.498 0.094-0.68 0.264-0.175 0.161-0.287 0.387-0.297 0.64l-0 0.002c-0.008 0.243 0.083 0.479 0.254 0.658 0.169 0.175 0.401 0.289 0.66 0.303l0.003 0c0.019 0.001 0.040 0.002 0.062 0.002 0.241 0 0.462-0.085 0.635-0.226l-0.002 0.001c0.186-0.151 0.311-0.37 0.338-0.619l0-0.004c0.003-0.026 0.004-0.056 0.004-0.086 0-0.224-0.081-0.429-0.216-0.587l0.001 0.001c-0.183-0.215-0.453-0.35-0.755-0.35-0.003 0-0.006 0-0.008 0h0z"></path>
<path fill="#6de2bb" style="fill: var(--color23, #6de2bb)" d="M18.426 11.582l-0.464-0.030c-0.022 0.254-0.124 0.512-0.25 0.658l-0.3-0.126c0.135-0.17 0.223-0.383 0.242-0.615l0-0.004c0.022-0.311-0.151-0.534-0.413-0.551-0.252-0.016-0.421 0.144-0.581 0.46-0.215 0.435-0.446 0.698-0.845 0.672-0.381-0.025-0.652-0.302-0.692-0.71l-0.464-0.030 0.019-0.272 0.445 0.029c0.028-0.262 0.114-0.437 0.201-0.56l0.295 0.13c-0.111 0.151-0.182 0.337-0.195 0.54l-0 0.003c-0.024 0.338 0.178 0.479 0.362 0.491 0.239 0.015 0.37-0.139 0.562-0.51 0.225-0.439 0.48-0.652 0.888-0.625 0.363 0.024 0.685 0.287 0.731 0.744l0.477 0.031-0.019 0.277z"></path>
<path fill="#1ed797" style="fill: var(--color22, #1ed797)" d="M13.228 22.209h12.688s-2.001-1.525-1.237-6.886c0.765-5.36 3.682-10.288 1.020-15.323h-12.471s1.133 1.76 1.095 4.9c-0.038 3.14-1.266 6.018-2.039 9.512-1.095 4.945 0.944 7.797 0.944 7.797z"></path>
<path fill="#44e5ad" style="fill: var(--color14, #44e5ad)" d="M12.446 22.209h12.688s-2.001-1.525-1.237-6.886c0.765-5.36 3.682-10.288 1.020-15.323h-12.471s1.133 1.76 1.095 4.9c-0.038 3.141-1.265 6.018-2.039 9.512-1.095 4.945 0.944 7.797 0.944 7.797z"></path>
<path fill="#b7f5e0" style="fill: var(--color24, #b7f5e0)" d="M22.219 1.5c0.067 0.272 0.173 0.534 0.316 0.778 0.281 0.47 0.814 1.022 1.795 1.119 0.045 0.307 0.104 0.889 0.077 1.731-0.025 0.765-0.116 1.592-0.269 2.458-0.192 1.084-0.484 2.232-0.867 3.412-0.9 2.772-1.139 4.816-1.18 6.042-0.028 0.819 0.025 1.395 0.072 1.73-0.22 0.075-0.41 0.168-0.587 0.282l0.011-0.006c-0.406 0.257-0.933 0.746-1.237 1.641h-5.243c-0.089-0.286-0.209-0.535-0.36-0.763l0.007 0.011c-0.298-0.453-0.851-1.009-1.834-1.199-0.039-0.357-0.066-0.781-0.073-1.211l-0-0.013c-0.015-0.8 0.030-1.997 0.325-3.163 0.084-0.329 0.194-0.739 0.321-1.212 0.757-2.817 1.998-7.433 1.634-9.785 0.515-0.15 1.386-0.586 1.936-1.853l5.156 0.001zM22.529 1.145h-5.722c-0.699 1.877-2.115 1.932-2.115 1.932 0.642 2.473-1.29 8.856-1.882 11.19s-0.227 4.777-0.227 4.777c1.976 0.216 2.228 1.997 2.228 1.997h5.816c0.491-1.853 1.957-2.010 1.957-2.010s-0.68-2.634 1.038-7.926c1.718-5.293 1.020-8.045 1.020-8.045-1.945 0-2.115-1.913-2.115-1.913v-0.001z"></path>
<path fill="#b7f5e0" style="fill: var(--color24, #b7f5e0)" d="M18.493 8.714c0.062 0 0.125 0.002 0.188 0.006 0.703 0.045 1.36 0.35 1.832 0.85s0.723 1.155 0.7 1.828c-0.024 0.673-0.32 1.311-0.826 1.78s-1.183 0.731-1.888 0.731c-0.066-0-0.132-0.002-0.196-0.007l0.009 0.001c-0.703-0.045-1.36-0.35-1.832-0.849s-0.723-1.155-0.7-1.828c0.023-0.673 0.319-1.311 0.826-1.779s1.183-0.731 1.888-0.731zM18.493 8.359c-1.61 0-2.966 1.193-3.077 2.751-0.116 1.626 1.169 3.034 2.87 3.145 0.071 0.004 0.142 0.007 0.213 0.007 1.61 0 2.966-1.193 3.077-2.751 0.116-1.626-1.17-3.034-2.871-3.145-0.063-0.004-0.136-0.007-0.21-0.007-0.001 0-0.002 0-0.003 0h0zM19.604 3.638c0.002-0 0.004-0 0.006-0 0.184 0 0.349 0.081 0.461 0.209l0.001 0.001c0.099 0.114 0.148 0.259 0.139 0.406-0.011 0.154-0.082 0.29-0.189 0.386l-0.001 0c-0.11 0.098-0.255 0.158-0.414 0.158-0.027 0-0.054-0.002-0.080-0.005l0.003 0c-0.157-0.018-0.294-0.094-0.391-0.204l-0.001-0.001c-0.087-0.099-0.14-0.229-0.14-0.372 0-0.012 0-0.024 0.001-0.036l-0 0.002c0.010-0.147 0.077-0.285 0.189-0.387 0.109-0.098 0.255-0.158 0.414-0.158 0 0 0.001 0 0.001 0h-0zM19.604 3.284c-0.254 0-0.498 0.095-0.681 0.264-0.175 0.161-0.287 0.387-0.297 0.64l-0 0.002c-0.008 0.243 0.083 0.479 0.254 0.659 0.169 0.175 0.401 0.289 0.66 0.304l0.003 0c0.019 0.001 0.041 0.002 0.063 0.002 0.241 0 0.462-0.085 0.636-0.226l-0.002 0.001c0.186-0.151 0.311-0.37 0.338-0.619l0-0.004c0.003-0.026 0.004-0.056 0.004-0.087 0-0.224-0.081-0.429-0.216-0.587l0.001 0.001c-0.183-0.215-0.453-0.35-0.755-0.35-0.003 0-0.006 0-0.008 0h0zM17.519 18.293c0.002-0 0.004-0 0.006-0 0.184 0 0.349 0.081 0.461 0.209l0.001 0.001c0.099 0.114 0.148 0.259 0.139 0.406-0.011 0.154-0.082 0.291-0.189 0.386l-0.001 0c-0.11 0.098-0.255 0.158-0.414 0.158-0.027 0-0.054-0.002-0.080-0.005l0.003 0c-0.157-0.018-0.294-0.094-0.391-0.204l-0.001-0.001c-0.087-0.099-0.14-0.229-0.14-0.372 0-0.012 0-0.024 0.001-0.036l-0 0.002c0.010-0.147 0.077-0.285 0.189-0.387 0.109-0.098 0.255-0.157 0.414-0.157 0.001 0 0.001 0 0.002 0h-0zM17.519 17.939c-0.254 0-0.498 0.094-0.681 0.264-0.175 0.161-0.287 0.387-0.297 0.64l-0 0.002c-0.008 0.243 0.083 0.479 0.254 0.658 0.169 0.175 0.401 0.288 0.659 0.303l0.003 0c0.019 0.001 0.041 0.002 0.063 0.002 0.241 0 0.462-0.085 0.636-0.226l-0.002 0.001c0.186-0.151 0.311-0.37 0.338-0.619l0-0.004c0.003-0.026 0.004-0.056 0.004-0.087 0-0.224-0.081-0.429-0.216-0.587l0.001 0.001c-0.183-0.215-0.453-0.35-0.755-0.35-0.003 0-0.006 0-0.008 0h0z"></path>
<path fill="#b7f5e0" style="fill: var(--color24, #b7f5e0)" d="M20.37 11.582l-0.464-0.030c-0.022 0.254-0.124 0.512-0.25 0.658l-0.3-0.126c0.135-0.17 0.224-0.383 0.242-0.615l0-0.004c0.022-0.311-0.151-0.534-0.413-0.551-0.252-0.016-0.421 0.144-0.581 0.46-0.215 0.435-0.446 0.698-0.845 0.672-0.381-0.025-0.652-0.302-0.692-0.71l-0.464-0.030 0.019-0.272 0.445 0.029c0.028-0.262 0.114-0.437 0.201-0.56l0.295 0.13c-0.111 0.151-0.182 0.337-0.195 0.54l-0 0.003c-0.024 0.338 0.178 0.479 0.362 0.491 0.239 0.015 0.369-0.139 0.562-0.51 0.225-0.439 0.48-0.652 0.888-0.625 0.363 0.024 0.685 0.287 0.731 0.744l0.477 0.031-0.019 0.277z"></path>
<path fill="#8978f7" style="fill: var(--color11, #8978f7)" d="M10.281 31.666l-1.966-0.363s-0.169-0.465 0.204-1.084c0.022-0.036 0.046-0.071 0.072-0.105 0.357-0.446 0.694 0.154 0.694 0.154s0.292 0.557 0.788 0.846c0.185 0.108 0.261 0.212 0.284 0.3 0.038 0.148-0.075 0.251-0.075 0.251z"></path>
<path fill="#634df4" style="fill: var(--color25, #634df4)" d="M10.281 31.666l-1.966-0.363s-0.169-0.465 0.204-1.084c0.022-0.036 0.046-0.071 0.072-0.105l0.343 0.306s-0.174 0.713 0.684 0.864l0.738 0.13c0.038 0.148-0.076 0.251-0.076 0.251z"></path>
<path fill="#8978f7" style="fill: var(--color11, #8978f7)" d="M13.057 31.969h-2.163s-0.279-0.461-0.015-1.189c0.022-0.063 0.051-0.123 0.086-0.18 0.286-0.447 0.737 0.083 0.737 0.083s0.429 0.534 1.017 0.743c0.216 0.077 0.319 0.171 0.363 0.259 0.075 0.151-0.024 0.284-0.024 0.284z"></path>
<path fill="#634df4" style="fill: var(--color25, #634df4)" d="M13.057 31.969h-2.163s-0.279-0.461-0.015-1.189c0.022-0.063 0.051-0.123 0.086-0.18l0.355 0.146s-0.347 1.286 1.762 0.939c0.075 0.151-0.025 0.284-0.025 0.284z"></path>
<path fill="#a39cd3" style="fill: var(--color20, #a39cd3)" d="M8.43 26.211c-2.226 1.24-7.246 1.492-8.302-2.524-0.015-0.056-0.029-0.113-0.042-0.171-0.622-2.725 2.313-4.136 2.353-6.461s1.234-4.363 3.665-3.921c2.542 0.462 2.604 1.654 2.604 1.654l0.024 0.162 1.128 7.499s0.826 2.503-1.43 3.762z"></path>
<path fill="#7267bb" style="fill: var(--color21, #7267bb)" d="M8.43 26.211c-2.225 1.24-7.246 1.492-8.302-2.524 1.637 3.525 6.717 1.030 5.461-0.924-0.915-1.423-1.769-2.536 0.638-2.302 1.806 0.176-0.299-3.482 0.020-4.645s1.523-1.242 1.523-1.242l0.963 0.375 1.128 7.499s0.826 2.504-1.43 3.762z"></path>
<path fill="#2b2f54" style="fill: var(--color9, #2b2f54)" d="M10.515 26.585s-0.293 1.188-0.654 2.33c-0.183 0.576-0.383 1.141-0.571 1.534-0.025 0.051-0.066 0.092-0.117 0.116l-0.002 0.001c-0.034 0.016-0.073 0.026-0.115 0.026-0.019 0-0.037-0.002-0.055-0.006l0.002 0-0.301-0.061c-0.064-0.013-0.117-0.047-0.155-0.095l-0-0.001c-0.031-0.040-0.049-0.090-0.049-0.144 0-0.009 0.001-0.018 0.002-0.027l-0 0.001c0.085-0.764 0.362-3.372 0.434-5.519 0.019-0.585 0.024-1.135 0.005-1.605 1.396 0.458 1.576 3.45 1.576 3.45z"></path>
<path fill="#14182d" style="fill: var(--color10, #14182d)" d="M9.86 28.914c0.035-1.415-0.635-3.384-0.927-4.173 0.020-0.585 0.024-1.135 0.005-1.605 1.396 0.457 1.576 3.45 1.576 3.45s-0.293 1.188-0.654 2.33v-0.001z"></path>
<path fill="#2b2f54" style="fill: var(--color9, #2b2f54)" d="M11.799 30.627c0 0.003 0 0.007 0 0.012 0 0.066-0.027 0.126-0.071 0.169l-0 0c-0.048 0.047-0.113 0.075-0.186 0.076h-0.456c-0 0-0.001 0-0.001 0-0.070 0-0.133-0.027-0.18-0.071l0 0c-0.046-0.043-0.075-0.104-0.076-0.172v-0c-0.005-0.724-0.116-2.954-1.213-5.255-0.517-1.084-0.926-1.92-1.213-2.621-0.455-1.111-0.602-1.885-0.382-2.773 0.359-1.448 2.612-0.342 2.612-0.342s0.1 0.335 0.235 0.965c0.194 0.911 0.46 2.439 0.602 4.466 0.193 2.768 0.295 4.847 0.327 5.548z"></path>
<path fill="#14182d" style="fill: var(--color10, #14182d)" d="M10.869 20.613c-0.268 0.055-0.804-0.389-1.546 0.121-0.788 0.541-0.919 2.029-0.919 2.029-0.455-1.111-0.602-1.885-0.382-2.773 0.359-1.448 2.612-0.343 2.612-0.343s0.1 0.335 0.235 0.965z"></path>
<path fill="#f9d679" style="fill: var(--color5, #f9d679)" d="M4.184 19.076l0.032-0.184c-0.124-0.024-0.243-0.078-0.307-0.135l0.085-0.17c0.084 0.068 0.186 0.114 0.295 0.133 0.125 0.020 0.221-0.025 0.237-0.116 0.015-0.085-0.045-0.152-0.182-0.226-0.196-0.106-0.315-0.219-0.284-0.396 0.029-0.163 0.17-0.269 0.377-0.271l0.033-0.186 0.163 0.026-0.031 0.176c0.095 0.016 0.185 0.053 0.263 0.107l-0.084 0.166c-0.044-0.029-0.124-0.086-0.259-0.108-0.139-0.022-0.201 0.038-0.212 0.102-0.013 0.078 0.050 0.133 0.208 0.225 0.208 0.116 0.289 0.234 0.26 0.403-0.028 0.161-0.171 0.285-0.395 0.284l-0.035 0.196-0.163-0.027z"></path>
<path fill="#f9d679" style="fill: var(--color5, #f9d679)" d="M3.617 19.527c-0.257-0.149-0.46-0.365-0.59-0.623l-0.004-0.009c-0.091-0.181-0.144-0.394-0.144-0.619 0-0.078 0.006-0.155 0.019-0.23l-0.001 0.008c0.050-0.301 0.187-0.563 0.384-0.767l-0 0c0.202-0.209 0.462-0.362 0.754-0.431l0.011-0.002c0.11-0.027 0.235-0.042 0.365-0.042 0.187 0 0.367 0.032 0.534 0.091l-0.011-0.003c0.289 0.101 0.531 0.277 0.709 0.506l0.003 0.003c0.179 0.234 0.282 0.512 0.295 0.801 0.001 0.019 0.001 0.041 0.001 0.064 0 0.282-0.082 0.544-0.225 0.765l0.003-0.006c-0.215 0.33-0.546 0.569-0.934 0.66l-0.010 0.002c-0.11 0.027-0.235 0.042-0.365 0.042-0.292 0-0.566-0.079-0.801-0.216l0.008 0.004zM5.087 17.208c-0.194-0.113-0.427-0.18-0.675-0.18-0.021 0-0.042 0-0.062 0.001l0.003-0c-0.269 0.011-0.515 0.1-0.719 0.244l0.004-0.003c-0.204 0.143-0.361 0.341-0.451 0.572l-0.003 0.009c-0.050 0.127-0.079 0.273-0.079 0.426 0 0.106 0.014 0.208 0.039 0.306l-0.002-0.008c0.067 0.25 0.202 0.463 0.385 0.622l0.002 0.001c0.19 0.167 0.429 0.276 0.684 0.313 0.059 0.009 0.128 0.014 0.198 0.014 0.2 0 0.39-0.043 0.561-0.121l-0.009 0.003c0.235-0.106 0.427-0.272 0.561-0.479l0.003-0.005c0.179-0.284 0.233-0.623 0.15-0.944-0.089-0.332-0.302-0.603-0.585-0.767l-0.006-0.003z"></path>
<path fill="#fca69d" style="fill: var(--color17, #fca69d)" d="M9.448 14.73c0 0.095-0.508 0.315-0.508 0.315l-0.414-0.458s-0.044-0.375-0.072-0.677c-0.016-0.166-0.027-0.309-0.023-0.355 0.010-0.13 0.748 0.222 0.748 0.222s0.234 0.746 0.266 0.924c0.002 0.010 0.003 0.019 0.003 0.029z"></path>
<path fill="#e57673" style="fill: var(--color18, #e57673)" d="M9.444 14.701l-0.122 0.029s-0.238-0.491-0.869-0.82c-0.016-0.166-0.027-0.309-0.023-0.355 0.010-0.13 0.748 0.222 0.748 0.222s0.234 0.746 0.266 0.924z"></path>
<path fill="#fca69d" style="fill: var(--color17, #fca69d)" d="M9.956 14.063c-0.369 0.162-1.286-0.352-1.286-0.352-0.032 0.014-0.070 0.021-0.109 0.021-0 0-0.001 0-0.001 0h0c-0.084 0.001-0.203-0.030-0.312-0.177-0.114-0.153-0.213-0.328-0.29-0.514l-0.006-0.016 0.099-0.305 1.067-0.629 0.837 0.372s0.061 0.239 0.109 0.533c0.069 0.428 0.109 0.972-0.109 1.068z"></path>
<path fill="#ea847d" style="fill: var(--color4, #ea847d)" d="M10.065 12.995c-0.347 0.151-1.135-0.346-1.3-0.233-0.128 0.088-0.132 0.462-0.132 0.462s-0.371-0.206-0.381 0.071c-0.011 0.273 0.299 0.431 0.309 0.436-0.084 0.001-0.203-0.030-0.312-0.178-0.114-0.153-0.213-0.328-0.29-0.514l-0.006-0.016 0.1-0.305 1.067-0.629 0.837 0.371s0.061 0.239 0.109 0.533z"></path>
<path fill="#6a3442" style="fill: var(--color19, #6a3442)" d="M11.279 12.030c-0.904 1.182-2.46 0.318-2.645 0.521s0 0.674 0 0.674-0.226-0.279-0.425-0.191c-0.199 0.089 0.039 0.521 0.039 0.521-0.126-0.107-0.24-0.217-0.347-0.333l-0.003-0.003c-0.159-0.176-0.308-0.387-0.289-0.541 0.039-0.318 0.386-0.292 0.386-0.292s-0.186-0.356-0.080-0.712c0.107-0.356 1.755-0.241 1.755-0.241s-1.542-1.27 0-1.829c0.386-0.14 0.736-0.132 1.030-0.022 0.881 0.327 1.257 1.563 0.579 2.449z"></path>
<path fill="#8978f7" style="fill: var(--color11, #8978f7)" d="M11.153 20.124c-0.105 0.115-0.53-0.238-1.249-0.236-0.282 0.003-0.552 0.054-0.801 0.146l0.017-0.005c-1.196 0.419-1.685 0.114-1.355-1.182 0.074-0.289-0.002-0.632-0.129-1-0.444-1.282-1.519-2.87 0.858-3.562 0 0 0.527 0.512 0.916 0.264 0.469 0.105 1.147 0.791 1.167 1.401 0.006 0.202 0 0.464-0.002 0.756-0.003 0.358 0 0.761 0.042 1.148 0.027 0.255 0.071 0.503 0.14 0.727 0.258 0.838 0.538 1.391 0.398 1.543z"></path>
<path fill="#634df4" style="fill: var(--color25, #634df4)" d="M9.904 19.888c-0.282 0.003-0.552 0.054-0.801 0.146l0.017-0.005c-1.196 0.419-1.685 0.114-1.355-1.182 0.074-0.289-0.002-0.632-0.129-1l1.278-2.030s0.16 1.067 0.533 1.238c0.372 0.172 1.059 0.274 1.128-0.349-0.003 0.358 0 0.761 0.042 1.147l-1.517 0.781s-0.835 1.246 0.806 1.253z"></path>
<path fill="#a39cd3" style="fill: var(--color20, #a39cd3)" d="M13.394 18.948c-0.178 0.041-0.429 0.040-0.693 0.045-0.691 0.012-0.532 1.042-0.811 0.66s0-1.080-0.091-1.295-0.135-0.648-0.135-0.648c-0.145-0.931-0.492-1.016-1.369-1.531s-1.755-0.61-2.687-1.504c0.244-0.456 0.883-0.39 0.883-0.39s0.986 0.769 1.629 0.985c1.306 0.439 1.89 1.588 2.235 2.157s0.545 0.028 1.090 0.803c0.337 0.479 0.237 0.653-0.052 0.718z"></path>
<path fill="#7267bb" style="fill: var(--color21, #7267bb)" d="M13.394 18.948c-0.178 0.041-0.429 0.040-0.693 0.045-0.691 0.012-0.532 1.042-0.811 0.66s0-1.080-0.091-1.295-0.135-0.648-0.135-0.648c-0.145-0.931-0.492-1.016-1.369-1.531s-1.755-0.61-2.687-1.504c0.244-0.456 0.883-0.39 0.883-0.39s-0.204 0.204 0.448 0.759 1.249 0.708 1.675 0.95c0.426 0.242 1.13 0.866 1.211 1.372s0.348 1.702 1.569 1.582z"></path>
<path fill="#fca69d" style="fill: var(--color17, #fca69d)" d="M12.591 17.499c-0.005 0.087-0.037 0.164-0.102 0.204-0.212 0.133-0.625 0.089-0.625 0.089l-0.039-0.365c0.053-0.072 0.112-0.139 0.178-0.201 0.093-0.088 0.211-0.171 0.321-0.171 0.161-0.001 0.281 0.247 0.268 0.444z"></path>
<path fill="#ea847d" style="fill: var(--color4, #ea847d)" d="M12.591 17.499c-0.005 0.087-0.037 0.164-0.102 0.204-0.212 0.133-0.625 0.089-0.625 0.089l-0.039-0.365c0.053-0.072 0.112-0.139 0.178-0.201 0.008 0.118 0.051 0.442 0.277 0.425 0.276-0.020 0.311-0.152 0.311-0.152z"></path>
<path fill="#8978f7" style="fill: var(--color11, #8978f7)" d="M7.843 14.536s0.949 0.047 1.096 1.484l0.147 1.436s1.050-0.218 1.661-0.211c0.378 0.005 0.755 0.029 1.13 0.071 0 0 0.243 0.496-0.078 0.636s-2.607 0.876-3.458 0.635c-0.851-0.241-2.977-3.513-0.498-4.050z"></path>
<path fill="#3d2042" style="fill: var(--color8, #3d2042)" d="M11.279 12.030c-0.904 1.182-2.46 0.318-2.645 0.521s0 0.674 0 0.674-0.226-0.279-0.426-0.191c-0.199 0.089 0.040 0.521 0.040 0.521-0.126-0.107-0.24-0.217-0.347-0.333l-0.003-0.003c-0.137-0.425 0.429-0.477 0.429-0.477s-0.252-0.394 0-0.597c0.253-0.204 1.768 0.419 2.46-0.445s-0.086-2.119-0.086-2.119c0.88 0.327 1.256 1.563 0.579 2.449z"></path>
<path fill="#8978f7" style="fill: var(--color11, #8978f7)" d="M30.487 13.395h-12.704c-0.305 0-0.553 0.237-0.553 0.528v12.144c0 0.291 0.247 0.528 0.553 0.528h12.704c0.305 0 0.553-0.237 0.553-0.528v-12.144c0-0.292-0.247-0.528-0.553-0.528z"></path>
<path fill="#e1eaff" style="fill: var(--color26, #e1eaff)" d="M28.492 25.204h-8.713c-0.001 0-0.002 0-0.002 0-0.299 0-0.57-0.117-0.771-0.307l0 0c-0.205-0.196-0.32-0.462-0.321-0.739v-8.328c0.002-0.291 0.124-0.553 0.32-0.738l0-0c0.2-0.19 0.472-0.307 0.77-0.307 0.001 0 0.002 0 0.002 0h8.712c0.001 0 0.002 0 0.003 0 0.299 0 0.57 0.117 0.771 0.307l-0-0c0.205 0.196 0.32 0.461 0.321 0.739v8.328c-0.002 0.291-0.124 0.552-0.32 0.738l-0 0c-0.2 0.19-0.472 0.307-0.77 0.307-0.001 0-0.002 0-0.003 0h0zM19.779 15.008c-0.228 0-0.447 0.087-0.608 0.241-0.155 0.146-0.252 0.353-0.253 0.582v8.328c0 0.218 0.091 0.427 0.253 0.581 0.158 0.149 0.371 0.241 0.606 0.241 0.001 0 0.001 0 0.002 0h8.713c0.228 0 0.447-0.087 0.608-0.241 0.155-0.146 0.251-0.352 0.252-0.581v-8.329c0-0.218-0.091-0.427-0.252-0.581-0.158-0.149-0.371-0.241-0.606-0.241-0.001 0-0.001 0-0.002 0h-8.712z"></path>
<path fill="#8978f7" style="fill: var(--color11, #8978f7)" d="M28.535 26.595h-8.799v1.022h8.799v-1.022z"></path>
<path fill="#e1eaff" style="fill: var(--color26, #e1eaff)" d="M29.813 16.379h-0.69c-0.001-0-0.002-0-0.003-0-0.077 0-0.14 0.062-0.142 0.139v2.437c0 0.077 0.065 0.139 0.145 0.139h0.69c0.080 0 0.145-0.062 0.145-0.139v-2.437c-0.002-0.077-0.065-0.139-0.142-0.139-0.001 0-0.002 0-0.003 0h0zM29.813 20.896h-0.69c-0.001-0-0.002-0-0.003-0-0.077 0-0.14 0.062-0.142 0.139v2.437c0 0.077 0.065 0.139 0.145 0.139h0.69c0.080 0 0.145-0.062 0.145-0.139v-2.437c-0.002-0.077-0.065-0.139-0.142-0.139-0.001 0-0.002 0-0.003 0h0z"></path>
<path fill="none" stroke="#e1eaff" style="stroke: var(--color26, #e1eaff)" stroke-linejoin="miter" stroke-linecap="butt" stroke-miterlimit="10" stroke-width="3.2" d="M25.809 22.119c1.228 0 2.222-0.951 2.222-2.124s-0.995-2.124-2.222-2.124c-1.227 0-2.222 0.951-2.222 2.124s0.995 2.124 2.222 2.124z"></path>
<path fill="#e1eaff" style="fill: var(--color26, #e1eaff)" d="M25.809 21.78c1.032 0 1.868-0.799 1.868-1.786s-0.836-1.786-1.868-1.786-1.868 0.8-1.868 1.786c0 0.986 0.836 1.786 1.868 1.786z"></path>
<path fill="#507eff" style="fill: var(--color27, #507eff)" d="M25.809 20.77c0.448 0 0.811-0.347 0.811-0.775s-0.363-0.775-0.811-0.775c-0.448 0-0.811 0.347-0.811 0.775s0.363 0.775 0.811 0.775z"></path>
<path fill="none" stroke="#507eff" style="stroke: var(--color27, #507eff)" stroke-linejoin="miter" stroke-linecap="butt" stroke-miterlimit="10" stroke-width="0.64" d="M25.809 18.209v0.204M25.17 18.317l0.073 0.192M24.609 18.627l0.137 0.156M24.192 19.102l0.184 0.102M23.97 19.685l0.21 0.035M23.97 20.305l0.21-0.035M24.192 20.888l0.184-0.102M24.609 21.363l0.137-0.156M25.17 21.673l0.073-0.192M25.809 21.78v-0.204M26.448 21.673l-0.073-0.192M27.010 21.363l-0.137-0.156M27.427 20.888l-0.185-0.102M27.649 20.305l-0.21-0.035M27.649 19.685l-0.21 0.035M27.427 19.102l-0.185 0.102M23.81 18.627l-0.137 0.156M26.448 18.317l-0.073 0.192"></path>
<path fill="#507eff" style="fill: var(--color27, #507eff)" d="M25.809 18.938c0.075 0 0.135-0.058 0.135-0.129-0.002-0.072-0.060-0.129-0.132-0.129-0.001 0-0.002 0-0.003 0h0c-0.001-0-0.002-0-0.003-0-0.072 0-0.131 0.058-0.132 0.129v0c0 0.071 0.061 0.129 0.135 0.129z"></path>
<path fill="none" stroke="#e1eaff" style="stroke: var(--color26, #e1eaff)" stroke-linejoin="miter" stroke-linecap="butt" stroke-miterlimit="10" stroke-width="3.2" d="M21.043 19.995c0.685 0 1.241-0.531 1.241-1.187s-0.556-1.186-1.241-1.186c-0.686 0-1.241 0.531-1.241 1.186s0.556 1.187 1.241 1.187z"></path>
<path fill="none" stroke="#e1eaff" style="stroke: var(--color26, #e1eaff)" stroke-linejoin="miter" stroke-linecap="butt" stroke-miterlimit="10" stroke-width="3.2" d="M21.574 17.736l-0.531 1.072-1.241 0.129M21.043 18.808l0.794 0.912"></path>
<path fill="#e1eaff" style="fill: var(--color26, #e1eaff)" d="M21.043 19.153c0.199 0 0.36-0.154 0.36-0.345s-0.161-0.344-0.36-0.344c-0.199 0-0.361 0.154-0.361 0.345s0.162 0.345 0.361 0.345z"></path>
<path fill="#634df4" style="fill: var(--color25, #634df4)" d="M28.535 26.595v0.822l-8.799-0.602v-0.221h8.799z"></path>
</symbol>
<symbol id="icon-cripto" viewBox="0 0 28 32">
<path fill="#ffc775" style="fill: var(--color28, #ffc775)" d="M10.327 28.365v2.295c0 0.556 3.554 1.007 7.939 1.007s7.938-0.451 7.938-1.007v-2.296h-15.877z"></path>
<path fill="#ffc67b" style="fill: var(--color29, #ffc67b)" d="M18.265 29.372c-4.384 0-7.939-0.451-7.939-1.007s3.554-1.007 7.939-1.007c4.384 0 7.938 0.451 7.938 1.007s-3.554 1.007-7.938 1.007z"></path>
<path fill="#ff9350" style="fill: var(--color30, #ff9350)" d="M18.265 29.151c-3.716 0-6.729-0.352-6.729-0.786s3.013-0.786 6.729-0.786c3.716 0 6.728 0.352 6.728 0.786s-3.012 0.786-6.728 0.786z"></path>
<path fill="#f19a6a" style="fill: var(--color31, #f19a6a)" d="M10.713 29.002l-0.016 1.589c1.536 0.43 3.301 0.678 5.123 0.678 0.009 0 0.018 0 0.027-0h-0.001l0.032-1.573c-0.105 0.002-0.228 0.004-0.352 0.004-1.716 0-3.372-0.255-4.933-0.729l0.12 0.031z"></path>
<path fill="#000" style="fill: var(--color32, #000)" d="M22.166 29.631v1.558c1.104-0.065 2.132-0.211 3.131-0.433l-0.13 0.024v-1.571c-0.331 0.078-0.681 0.149-1.048 0.211-0.558 0.099-1.229 0.174-1.911 0.209l-0.041 0.002z"></path>
<path fill="#ffc775" style="fill: var(--color28, #ffc775)" d="M8.753 25.846l0.134 2.292c0.032 0.555 3.607 0.816 7.985 0.582s7.9-0.873 7.868-1.428l-0.134-2.292-15.853 0.846z"></path>
<path fill="#ffc67b" style="fill: var(--color29, #ffc67b)" d="M8.758 25.842c-0.032-0.555 3.49-1.194 7.868-1.427s7.952 0.028 7.985 0.583c0.032 0.555-3.49 1.194-7.868 1.428s-7.952-0.028-7.985-0.583z"></path>
<path fill="#ff9350" style="fill: var(--color30, #ff9350)" d="M9.966 25.777c-0.025-0.433 2.962-0.945 6.672-1.143s6.739-0.007 6.764 0.427c0.025 0.433-2.962 0.945-6.672 1.143s-6.738 0.006-6.764-0.427z"></path>
<path fill="#f19a6a" style="fill: var(--color31, #f19a6a)" d="M9.177 26.461l0.077 1.587c1.235 0.275 2.653 0.433 4.108 0.433 0.377 0 0.751-0.011 1.123-0.031l-0.052 0.002-0.060-1.572c-0.374 0.029-0.81 0.046-1.25 0.046-1.4 0-2.761-0.169-4.062-0.489l0.117 0.024z"></path>
<path fill="#000" style="fill: var(--color32, #000)" d="M20.648 26.48l0.090 1.555c1.125-0.129 2.134-0.33 3.112-0.604l-0.139 0.033-0.091-1.569c-0.852 0.259-1.86 0.464-2.896 0.577l-0.075 0.007z"></path>
<path fill="#ffc775" style="fill: var(--color28, #ffc775)" d="M12.273 22.676v2.296c0 0.556 3.554 1.006 7.938 1.006s7.939-0.451 7.939-1.007v-2.296h-15.877z"></path>
<path fill="#ffc67b" style="fill: var(--color29, #ffc67b)" d="M20.211 23.683c-4.384 0-7.939-0.451-7.939-1.007s3.554-1.007 7.939-1.007c4.384 0 7.938 0.451 7.938 1.007s-3.554 1.007-7.938 1.007z"></path>
<path fill="#ff9350" style="fill: var(--color30, #ff9350)" d="M20.211 23.463c-3.716 0-6.728-0.352-6.728-0.786s3.012-0.786 6.728-0.786 6.728 0.352 6.728 0.786c0 0.434-3.012 0.786-6.728 0.786z"></path>
<path fill="#f19a6a" style="fill: var(--color31, #f19a6a)" d="M12.659 23.313l-0.016 1.589c1.537 0.431 3.303 0.679 5.126 0.679 0.008 0 0.015 0 0.022 0h-0.001l0.032-1.573c-0.104 0.002-0.226 0.004-0.348 0.004-1.717 0-3.374-0.255-4.936-0.729l0.12 0.031z"></path>
<path fill="#000" style="fill: var(--color32, #000)" d="M24.112 23.942v1.558c1.104-0.065 2.132-0.211 3.131-0.433l-0.13 0.024v-1.571c-0.232 0.060-0.586 0.134-0.944 0.197l-0.104 0.015c-0.646 0.107-1.298 0.177-1.953 0.21z"></path>
<path fill="#ffc775" style="fill: var(--color28, #ffc775)" d="M9.164 19.221v2.296c0 0.556 3.554 1.007 7.939 1.007s7.939-0.451 7.939-1.007v-2.296h-15.878z"></path>
<path fill="#ffc67b" style="fill: var(--color29, #ffc67b)" d="M17.103 20.229c-4.384 0-7.938-0.451-7.938-1.007s3.554-1.007 7.939-1.007c4.384 0 7.938 0.451 7.938 1.007s-3.554 1.007-7.938 1.007z"></path>
<path fill="#ff9350" style="fill: var(--color30, #ff9350)" d="M17.103 20.008c-3.716 0-6.728-0.352-6.728-0.786s3.012-0.786 6.728-0.786c3.716 0 6.729 0.352 6.729 0.786s-3.013 0.786-6.729 0.786z"></path>
<path fill="#f19a6a" style="fill: var(--color31, #f19a6a)" d="M9.551 19.858l-0.016 1.589c1.537 0.431 3.302 0.679 5.125 0.679 0.008 0 0.015 0 0.023 0h-0.001l0.032-1.573c-0.104 0.002-0.226 0.004-0.349 0.004-1.716 0-3.373-0.255-4.934-0.729l0.12 0.031z"></path>
<path fill="#000" style="fill: var(--color32, #000)" d="M21.004 20.487v1.558c1.104-0.065 2.132-0.211 3.131-0.433l-0.13 0.024v-1.571c-0.331 0.078-0.681 0.149-1.048 0.211-0.558 0.099-1.229 0.174-1.911 0.209l-0.041 0.002z"></path>
<path fill="#ffc775" style="fill: var(--color28, #ffc775)" d="M11.236 17.067v2.296c0 0.556 3.554 1.007 7.938 1.007s7.939-0.451 7.939-1.007v-2.296h-15.877z"></path>
<path fill="#ffc67b" style="fill: var(--color29, #ffc67b)" d="M19.174 18.074c-4.384 0-7.938-0.451-7.938-1.007s3.554-1.007 7.938-1.007c4.385 0 7.939 0.451 7.939 1.007s-3.554 1.007-7.939 1.007z"></path>
<path fill="#ff9350" style="fill: var(--color30, #ff9350)" d="M19.174 17.853c-3.716 0-6.728-0.352-6.728-0.786s3.012-0.786 6.728-0.786c3.716 0 6.729 0.352 6.729 0.786s-3.013 0.786-6.729 0.786z"></path>
<path fill="#f19a6a" style="fill: var(--color31, #f19a6a)" d="M11.623 17.704l-0.016 1.589c1.537 0.431 3.302 0.679 5.125 0.679 0.008 0 0.016 0 0.023 0h-0.001l0.032-1.573c-0.104 0.002-0.227 0.004-0.35 0.004-1.716 0-3.372-0.255-4.933-0.729l0.12 0.031z"></path>
<path fill="#000" style="fill: var(--color32, #000)" d="M23.075 18.333v1.558c1.104-0.065 2.132-0.211 3.131-0.433l-0.13 0.024v-1.571c-0.232 0.060-0.586 0.134-0.944 0.196l-0.104 0.015c-0.558 0.099-1.229 0.174-1.912 0.209l-0.041 0.002z"></path>
<path fill="#ffc775" style="fill: var(--color28, #ffc775)" d="M8.808 13.569v2.296c0 0.556 3.554 1.007 7.939 1.007s7.94-0.451 7.94-1.007v-2.295h-15.878z"></path>
<path fill="#ffc67b" style="fill: var(--color29, #ffc67b)" d="M16.746 14.576c-4.384 0-7.939-0.451-7.939-1.007s3.554-1.007 7.939-1.007c4.384 0 7.939 0.451 7.939 1.007s-3.554 1.007-7.939 1.007z"></path>
<path fill="#ff9350" style="fill: var(--color30, #ff9350)" d="M16.746 14.355c-3.716 0-6.729-0.352-6.729-0.786s3.013-0.786 6.729-0.786 6.728 0.352 6.728 0.786c0 0.434-3.012 0.786-6.728 0.786z"></path>
<path fill="#f19a6a" style="fill: var(--color31, #f19a6a)" d="M9.195 14.206l-0.016 1.589c1.537 0.431 3.302 0.679 5.125 0.679 0.008 0 0.015 0 0.023 0h-0.001l0.032-1.573c-0.104 0.002-0.226 0.004-0.349 0.004-1.716 0-3.373-0.255-4.934-0.729l0.12 0.031z"></path>
<path fill="#000" style="fill: var(--color32, #000)" d="M20.647 14.835v1.558c1.104-0.065 2.132-0.211 3.131-0.433l-0.13 0.024v-1.571c-0.232 0.060-0.587 0.134-0.945 0.197l-0.104 0.015c-0.646 0.108-1.298 0.178-1.953 0.21z"></path>
<path fill="#ffb7a8" style="fill: var(--color3, #ffb7a8)" d="M23.103 14.391c0.554 0.094 1.46-0.191 1.935-0.632 0.249-0.232 0.379-0.507 0.276-0.793-0.273-0.582-1.765 0.559-1.765 0.559s0.348-0.451 0.063-0.57c-0.115-0.047-0.248 0.077-0.366 0.243-0.175 0.248-0.318 0.588-0.318 0.588s-0.671 0.463 0.175 0.605z"></path>
<path fill="#ea847d" style="fill: var(--color4, #ea847d)" d="M23.103 14.391c0.554 0.094 1.46-0.191 1.935-0.632-0.034 0.021-0.729 0.429-1.291 0.198-0.353-0.145-0.467-0.575-0.499-0.761-0.175 0.248-0.318 0.588-0.318 0.588s-0.672 0.464 0.174 0.606z"></path>
<path fill="#8978f7" style="fill: var(--color11, #8978f7)" d="M0 30.641c-0.024 0.499 1.69 1.141 1.69 1.141s2.74 0.202 2.566-0.202c-0.034-0.079-0.131-0.16-0.265-0.242-0.556-0.339-1.757-0.692-1.8-0.922-0.053-0.285-0.327-1.153-0.327-1.153l-0.943-0.403s-0.896 1.282-0.92 1.781z"></path>
<path fill="#634df4" style="fill: var(--color25, #634df4)" d="M0 30.641c-0.024 0.499 1.69 1.141 1.69 1.141s2.74 0.202 2.566-0.202c-0.034-0.079-0.131-0.16-0.265-0.242-0.046 0.454-1.842 0.049-2.652-0.658-0.147-0.721 0.202-1.528 0.211-1.55l-0.631-0.27s-0.896 1.283-0.92 1.782z"></path>
<path fill="#8978f7" style="fill: var(--color11, #8978f7)" d="M6.997 30.011v1.478c0 0.106 0.043 0.208 0.12 0.285s0.182 0.121 0.293 0.125c1.089 0.041 3.957 0.125 3.987-0.105 0.006-0.047-0.069-0.125-0.197-0.221-0.648-0.486-2.674-1.454-2.674-1.454l-1.528-0.107z"></path>
<path fill="#634df4" style="fill: var(--color25, #634df4)" d="M6.997 30.011v1.478c0 0.106 0.043 0.208 0.12 0.285s0.182 0.121 0.293 0.125c1.089 0.041 3.957 0.125 3.987-0.105 0.006-0.047-0.069-0.125-0.197-0.221-0.267 0.099-0.819 0.195-1.742-0.1-0.38-0.12-0.708-0.304-0.99-0.542l0.004 0.003c-0.281-0.237-0.511-0.526-0.676-0.852l-0.007-0.015-0.791-0.055z"></path>
<path fill="#6a3442" style="fill: var(--color19, #6a3442)" d="M1.544 10.944c0.336 2.319 2.997 4.36 6.552 4.528 2.873-5.316 5.398-6.57 7.214-6.688 1.373-0.089 2.816 0.44 3.887-0.262 0.063-0.041 0.116-0.080 0.167-0.121l-0.004 0.003c0.99-0.8 1.004-2.341 0.879-3.461 0 0 1.053 0.122 1.333-0.591s-0.112-0.891-0.112-0.891 0.074-3.635-3.281-3.457c-3.354 0.178-0.932 2.744-6.188 1.14-1.203-0.367-1.944-0.315-2.428-0.012-1.504 0.943-0.624 3.172-2.337 4.666-1.473 1.285-3.077 0.239-4.555 1.654-0.303 0.292-0.55 0.632-0.73 1.005-0.41 0.834-0.5 1.769-0.397 2.484zM1.311 8.459v0z"></path>
<path fill="#3d2042" style="fill: var(--color8, #3d2042)" d="M1.544 10.944c0.336 2.319 2.997 4.36 6.552 4.528 2.873-5.317 5.398-6.57 7.214-6.688 1.373-0.089 2.817 0.44 3.887-0.262-0.175-0.261-0.315-0.6-0.284-0.998 0.074-0.95 0.969-2.117 0.969-2.117h-2.866s-0.24 0.477-2.477 0.382c-2.237-0.095-3.853-0.292-3.965 1.576s-1.289 2.55-2.871 2.51c-2.796-0.071-1.176 3.234-4.213 2.273-2.483-0.786-1.572-3.622-1.55-3.689-0.411 0.835-0.501 1.77-0.398 2.485z"></path>
<path fill="#2b2f54" style="fill: var(--color9, #2b2f54)" d="M0.472 28.907l1.379 0.641s3.69-4.49 4.175-5.559c0.485-1.070 2.498-4.989 2.498-4.989l-1.093-6.849s-0.47 0.224-1.112 1.287c-0.566 0.939-1.266 2.533-1.896 5.206-1.342 5.702-3.952 10.264-3.952 10.264z"></path>
<path fill="#14182d" style="fill: var(--color10, #14182d)" d="M6.027 23.989c0.485-1.069 2.498-4.989 2.498-4.989l-1.093-6.849s-0.47 0.224-1.112 1.287c-0.147 0.675-0.418 2.322-0.106 4.217 0.411 2.486-0.186 6.334-0.186 6.334z"></path>
<path fill="#2b2f54" style="fill: var(--color9, #2b2f54)" d="M6.727 30.225s1.566 0.059 1.744 0c0.178-0.059 3.205-5.933 3.876-8.018 0.588-1.826-1.086-4.814-0.619-7.527 0.065-0.389 0.179-0.769 0.34-1.132-0.581-0.704-1.187-1.337-1.836-1.922l-0.016-0.014s-2.113-0.428-3.082 0.855c-0.575 0.761-0.483 2.954-0.080 5.038v0.002c0.277 1.429 0.7 2.805 1.155 3.632 1.118 2.031-1.481 9.087-1.481 9.087z"></path>
<path fill="#14182d" style="fill: var(--color10, #14182d)" d="M10.143 13.976c0.312 0.703 1.265 0.63 1.584 0.704 0.065-0.389 0.179-0.769 0.339-1.132-0.581-0.704-1.187-1.337-1.836-1.922l-0.016-0.014s-2.112-0.428-3.082 0.855c-0.575 0.761 1.69-1.46 3.009 1.509z"></path>
<path fill="#ffb7a8" style="fill: var(--color3, #ffb7a8)" d="M17.473 7.367c0.074-0.005 0.131-0.034 0.161-0.092 0.112-0.333 0.472-1.033 0.472-1.033-0.083-0.387-0.785-0.82-0.785-0.82-0.108 0.097-0.209 0.201-0.305 0.31-0.177 0.2-0.38 0.47-0.464 0.735-0.134 0.422 0.571 0.924 0.92 0.899z"></path>
<path fill="#ea847d" style="fill: var(--color4, #ea847d)" d="M17.473 7.367c0.074-0.005 0.131-0.034 0.161-0.092 0.112-0.333 0.472-1.033 0.472-1.033-0.083-0.387-0.785-0.82-0.785-0.82-0.108 0.097-0.209 0.201-0.305 0.31 0.627 0.497 0.52 1.333 0.456 1.635z"></path>
<path fill="#ffb7a8" style="fill: var(--color3, #ffb7a8)" d="M17.496 5.671h0.002s0.82 1.544 1.74 1.045c0.546-0.297 0.917-1.39 1.128-2.229 0.144-0.572 0.214-1.026 0.214-1.026-0.919 1.853-2.286 0.606-2.286 0.606-0.018 0.975-0.678 0.725-0.707 0.713v-0.001c-0.017-0.040-0.399-0.926-0.745-0.177s0.605 1.053 0.655 1.069z"></path>
<path fill="#8978f7" style="fill: var(--color11, #8978f7)" d="M10.142 12.884c0.638 0.759 1.575 1.376 1.862 1.555 0.497 0.309 2.038-2.043 3.877-2.305s1.939-0.808 1.939-1.568-0.186-3.29-0.186-3.29c-1.255-0.273-0.336-0.344-1.009-0.988s-2.931 0.048-4.249 2.257c-1.318 2.209-2.262 1.164-2.784 2.566-0.219 0.592 0.086 1.22 0.55 1.773z"></path>
<path fill="#634df4" style="fill: var(--color25, #634df4)" d="M10.143 12.884c0.637 0.759 1.574 1.376 1.862 1.555 0.497 0.309 2.038-2.043 3.877-2.305s1.939-0.808 1.939-1.568c-0.622 0.422-0.583-1.76-0.583-1.76l-3.36 1s0.121 1.293-1.027 2.655c-1.148 1.363-2.708 0.423-2.708 0.423z"></path>
<path fill="#8978f7" style="fill: var(--color11, #8978f7)" d="M15.608 7.097c-2.074 0.118-1.864 2.922-1.491 4.633s0.795 2.946 1.193 3.136 7.73-0.158 7.879-0.4c0.149-0.242-0.124-1.026-0.124-1.026s-1.963-0.285-4.175-0.403c-2.212-0.119-2.162-0.238-1.889-1.735s0.767-4.327-1.392-4.205z"></path>
<path fill="#ea847d" style="fill: var(--color4, #ea847d)" d="M17.585 4.781c0.024 0.013 0.614 0.203 0.732-0.173 0.121-0.383 0.329 0.262 1.149 0.262 0.406 0 0.703-0.19 0.898-0.382 0.144-0.572 0.214-1.026 0.214-1.026-0.919 1.853-2.286 0.606-2.286 0.606-0.018 0.975-0.678 0.725-0.707 0.713zM17.496 5.671c-0.71-0.294-0.718-0.887-0.461-1.077 0.248-0.184 0.53 0.162 0.55 0.186-0.017-0.040-0.399-0.926-0.745-0.176s0.606 1.052 0.657 1.068z"></path>
</symbol>
<symbol id="icon-consult" viewBox="0 0 32 32">
<path fill="#dafaef" style="fill: var(--color33, #dafaef)" d="M2.909 0h26.182c1.607 0 2.909 1.302 2.909 2.909v26.182c0 1.607-1.302 2.909-2.909 2.909h-26.182c-1.607 0-2.909-1.302-2.909-2.909v-26.182c0-1.607 1.302-2.909 2.909-2.909z"></path>
<path fill="#44e5ae" style="fill: var(--color34, #44e5ae)" d="M13.102 17.152c0.049 0.047 0.128 0.047 0.177 0l1.59-1.527 1.345 1.294c0.049 0.046 0.128 0.046 0.177 0l3.536-3.398c0.049-0.047 0.049-0.123 0-0.17l-0.575-0.551c-0.023-0.022-0.054-0.035-0.088-0.035s-0.065 0.013-0.088 0.035l0-0-2.872 2.76-1.345-1.293c-0.023-0.022-0.054-0.035-0.088-0.035s-0.065 0.013-0.089 0.035l0-0-2.255 2.164c-0.049 0.047-0.049 0.123 0 0.17l0.575 0.552z"></path>
<path fill="#44e5ae" style="fill: var(--color34, #44e5ae)" d="M22.35 10.68h-5.563v-0.96c-0.002-0.067-0.056-0.12-0.123-0.12-0.001 0-0.001 0-0.002 0h-0.875c-0.001 0-0.001-0-0.002-0-0.067 0-0.121 0.053-0.123 0.12v0.96h-5.563c-0.276 0-0.5 0.215-0.5 0.48v7.8c0 0.266 0.223 0.48 0.5 0.48h5.569v0.48l-2.575 1.621c-0.034 0.021-0.056 0.058-0.056 0.099 0 0.024 0.008 0.047 0.020 0.066l-0-0 0.473 0.708v0.002c0.024 0.033 0.062 0.054 0.105 0.054 0.025 0 0.049-0.007 0.069-0.020l-0.001 0 2.52-1.587 2.52 1.587c0.058 0.036 0.136 0.021 0.174-0.034v-0.001l0.473-0.708c0.012-0.018 0.020-0.041 0.020-0.065 0-0.042-0.022-0.079-0.055-0.099l-0-0-2.569-1.617v-0.484h5.563c0.276 0 0.5-0.214 0.5-0.48v-7.8c0-0.266-0.223-0.48-0.5-0.48zM21.725 18.36h-11v-6.6h11v6.6z"></path>
</symbol>
<symbol id="icon-theory" viewBox="0 0 32 32">
<path fill="#dafaef" style="fill: var(--color33, #dafaef)" d="M2.909 0h26.182c1.607 0 2.909 1.302 2.909 2.909v26.182c0 1.607-1.302 2.909-2.909 2.909h-26.182c-1.607 0-2.909-1.302-2.909-2.909v-26.182c0-1.607 1.302-2.909 2.909-2.909z"></path>
<path fill="#44e5ae" style="fill: var(--color34, #44e5ae)" d="M18.293 10.24c0.177 0 0.346 0.068 0.471 0.188s0.195 0.283 0.195 0.452v1.28h2.667c0.177 0 0.346 0.068 0.471 0.188s0.195 0.283 0.195 0.452v7.68h1.333v1.28h-14.667v-1.28h1.333v-7.68c0-0.17 0.070-0.333 0.195-0.452s0.294-0.188 0.471-0.188h2.667v-1.28c0-0.17 0.070-0.333 0.195-0.452s0.294-0.188 0.471-0.188h4zM14.96 13.44h-1.333v7.040h1.333v-7.040zM18.96 13.44h-1.333v7.040h1.333v-7.040zM17.627 11.52h-2.667v0.64h2.667v-0.64z"></path>
</symbol>
<symbol id="icon-practice" viewBox="0 0 32 32">
<path fill="#dafaef" style="fill: var(--color33, #dafaef)" d="M2.909 0h26.182c1.607 0 2.909 1.302 2.909 2.909v26.182c0 1.607-1.302 2.909-2.909 2.909h-26.182c-1.607 0-2.909-1.302-2.909-2.909v-26.182c0-1.607 1.302-2.909 2.909-2.909z"></path>
<path fill="#44e5ae" style="fill: var(--color34, #44e5ae)" d="M21.6 11.733h-4v10.667h4.889v-9.813c0-0.226-0.094-0.444-0.26-0.604-0.163-0.155-0.383-0.25-0.625-0.25-0.001 0-0.002 0-0.003 0h0zM19.378 18.987h-0.889v-0.853h0.889v0.853zM19.378 16.853h-0.889v-0.853h0.889v0.853zM19.378 14.72h-0.889v-0.853h0.889v0.853zM21.155 18.987h-0.889v-0.853h0.889v0.853zM21.155 16.853h-0.889v-0.853h0.889v0.853zM21.155 14.72h-0.889v-0.853h0.889v0.853zM15.769 9.6h-5.227c-0.25 0-0.49 0.095-0.666 0.265s-0.276 0.4-0.276 0.64v11.895h2.222v-1.28h2.667v1.28h2.223v-11.895c0-0.24-0.099-0.47-0.276-0.64-0.172-0.164-0.406-0.265-0.663-0.265-0.001 0-0.002 0-0.003 0h0zM11.822 18.987h-0.889v-0.853h0.889v0.853zM11.822 16.853h-0.889v-0.853h0.889v0.853zM11.822 14.72h-0.889v-0.853h0.889v0.853zM11.822 12.587h-0.889v-0.853h0.889v0.853zM13.6 18.987h-0.889v-0.853h0.889v0.853zM13.6 16.853h-0.889v-0.853h0.889v0.853zM13.6 14.72h-0.889v-0.853h0.889v0.853zM13.6 12.587h-0.889v-0.853h0.889v0.853zM15.378 18.987h-0.889v-0.853h0.889v0.853zM15.378 16.853h-0.889v-0.853h0.889v0.853zM15.378 14.72h-0.889v-0.853h0.889v0.853zM15.378 12.587h-0.889v-0.853h0.889v0.853z"></path>
</symbol>
<symbol id="icon-done" viewBox="0 0 32 32">
<path fill="#dafaef" style="fill: var(--color33, #dafaef)" d="M2.909 0h26.182c1.607 0 2.909 1.302 2.909 2.909v26.182c0 1.607-1.302 2.909-2.909 2.909h-26.182c-1.607 0-2.909-1.302-2.909-2.909v-26.182c0-1.607 1.302-2.909 2.909-2.909z"></path>
<path fill="#44e5ae" style="fill: var(--color34, #44e5ae)" d="M22.871 20.5l-0.628-3.72c-0.011-0.058-0.061-0.1-0.121-0.1-0.001 0-0.002 0-0.003 0h-4.087c-0.001-0-0.002-0-0.003-0-0.060 0-0.11 0.043-0.121 0.1l-0 0.001-0.628 3.72c-0.001 0.006-0.001 0.014-0.001 0.019 0 0.066 0.056 0.12 0.125 0.12h5.344c0.006 0 0.014 0 0.020-0.001 0.059-0.009 0.104-0.059 0.104-0.12 0-0.006-0-0.013-0.001-0.019l0 0.001zM15.524 16.781c-0.011-0.058-0.061-0.1-0.121-0.1-0.001 0-0.002 0-0.002 0h-4.087c-0.001-0-0.002-0-0.003-0-0.060 0-0.11 0.043-0.121 0.1l-0 0.001-0.628 3.72c-0.001 0.006-0.001 0.014-0.001 0.019 0 0.066 0.056 0.12 0.125 0.12h5.343c0.006 0 0.015 0 0.020-0.001 0.059-0.008 0.105-0.058 0.105-0.119 0-0.007-0.001-0.013-0.002-0.020l0 0.001-0.628-3.72zM14.060 15.48h5.344c0.006 0 0.015 0 0.020-0.001 0.059-0.008 0.105-0.058 0.105-0.119 0-0.007-0.001-0.013-0.002-0.019l0 0.001-0.628-3.72c-0.011-0.058-0.061-0.1-0.121-0.1-0.001 0-0.002 0-0.002 0h-4.087c-0.001-0-0.002-0-0.003-0-0.060 0-0.11 0.043-0.121 0.1l-0 0.001-0.628 3.72c-0.001 0.006-0.001 0.014-0.001 0.019 0 0.066 0.056 0.12 0.125 0.12z"></path>
</symbol>
<symbol id="icon-checkmark" viewBox="0 0 32 32">
<path fill="#6d60ca" style="fill: var(--color1, #6d60ca)" d="M0 16c0-8.834 7.166-16 16-16s16 7.166 16 16-7.166 16-16 16-16-7.166-16-16zM29.538 16c-0.003-7.476-6.062-13.535-13.537-13.538h-0c-7.476 0.003-13.535 6.062-13.538 13.537v0c0.003 7.476 6.062 13.535 13.537 13.538h0c7.476-0.003 13.535-6.062 13.538-13.538v-0z"></path>
<path fill="#6d60ca" style="fill: var(--color1, #6d60ca)" d="M22.443 9.054c0.227-0.275 0.569-0.45 0.951-0.45 0.68 0 1.231 0.551 1.231 1.231 0 0.298-0.106 0.571-0.281 0.783l0.002-0.002-0.018 0.021-10.338 12.308c-0.227 0.27-0.565 0.44-0.943 0.44-0.353 0-0.672-0.149-0.897-0.388l-0.001-0.001-0.018-0.020-4.43-4.924c-0.189-0.215-0.305-0.499-0.305-0.811 0-0.679 0.551-1.23 1.23-1.23 0.347 0 0.66 0.144 0.884 0.375l0.018 0.020 3.484 3.872 9.429-11.225z"></path>
</symbol>
</defs>
</svg>
