<svg width="81" height="92" fill="none" xmlns="http://www.w3.org/2000/svg"><path d="M29.689 81.55v6.599c0 1.599 10.218 2.894 22.824 2.894 12.606 0 22.823-1.296 22.823-2.894v-6.6H29.69Z" fill="#FFC775"/><path d="M52.513 84.445c-12.605 0-22.824-1.296-22.824-2.895s10.218-2.895 22.824-2.895c12.605 0 22.823 1.296 22.823 2.895 0 1.6-10.218 2.895-22.823 2.895Z" fill="#FFC67B"/><path d="M52.513 83.81c-10.684 0-19.345-1.011-19.345-2.26 0-1.248 8.661-2.26 19.345-2.26 10.683 0 19.344 1.012 19.344 2.26 0 1.249-8.66 2.26-19.344 2.26Z" fill="#FF9350"/><path d="m30.8 83.381-.047 4.568a56.618 56.618 0 0 0 14.802 1.949l.093-4.523a48.767 48.767 0 0 1-14.849-1.994Z" fill="#F19A6A"/><path d="M63.727 85.19v4.479a56.117 56.117 0 0 0 8.628-1.175v-4.518c-.953.224-1.958.429-3.014.608a49.03 49.03 0 0 1-5.614.606Z" fill="url(#a)"/><path d="m25.166 74.307.385 6.59c.093 1.595 10.37 2.345 22.957 1.674 12.586-.671 22.712-2.51 22.62-4.105l-.385-6.59-45.577 2.431Z" fill="#FFC775"/><path d="M25.178 74.295c-.093-1.596 10.034-3.434 22.62-4.104 12.585-.67 22.863.08 22.956 1.676.093 1.597-10.034 3.434-22.62 4.105-12.585.67-22.863-.08-22.956-1.677Z" fill="#FFC67B"/><path d="M28.651 74.11c-.073-1.246 8.516-2.717 19.183-3.285 10.667-.569 19.374-.02 19.446 1.227.073 1.246-8.516 2.717-19.183 3.286-10.667.568-19.373.018-19.446-1.228Z" fill="#FF9350"/><path d="m26.384 76.076.22 4.563a56.705 56.705 0 0 0 14.89 1.16l-.172-4.52a48.846 48.846 0 0 1-14.938-1.203Z" fill="#F19A6A"/><path d="m59.363 76.13.26 4.472a56.649 56.649 0 0 0 8.547-1.64l-.263-4.51a48.923 48.923 0 0 1-8.544 1.677Z" fill="url(#b)"/><path d="M35.284 65.194v6.6c0 1.598 10.217 2.893 22.823 2.893s22.824-1.296 22.824-2.894v-6.6H35.284Z" fill="#FFC775"/><path d="M58.107 68.09c-12.605 0-22.824-1.297-22.824-2.895 0-1.6 10.218-2.896 22.824-2.896 12.605 0 22.823 1.297 22.823 2.896 0 1.598-10.218 2.895-22.823 2.895Z" fill="#FFC67B"/><path d="M58.107 67.455c-10.684 0-19.344-1.012-19.344-2.26 0-1.249 8.66-2.26 19.344-2.26 10.684 0 19.344 1.011 19.344 2.26 0 1.248-8.66 2.26-19.344 2.26Z" fill="#FF9350"/><path d="m36.396 67.025-.047 4.567a56.618 56.618 0 0 0 14.8 1.952l.092-4.523a48.77 48.77 0 0 1-14.845-1.996Z" fill="#F19A6A"/><path d="M69.322 68.834v4.479a56.14 56.14 0 0 0 8.628-1.175V67.62a49.83 49.83 0 0 1-3.014.609c-1.857.309-3.732.51-5.615.605Z" fill="url(#c)"/><path d="M26.347 55.261v6.6c0 1.599 10.218 2.894 22.824 2.894 12.606 0 22.824-1.296 22.824-2.894v-6.6H26.347Z" fill="#FFC775"/><path d="M49.17 58.157c-12.605 0-22.823-1.296-22.823-2.895s10.218-2.895 22.824-2.895c12.605 0 22.823 1.296 22.823 2.895s-10.218 2.895-22.823 2.895Z" fill="#FFC67B"/><path d="M49.171 57.522c-10.684 0-19.344-1.012-19.344-2.26 0-1.248 8.66-2.26 19.344-2.26 10.684 0 19.345 1.012 19.345 2.26 0 1.248-8.661 2.26-19.345 2.26Z" fill="#FF9350"/><path d="m27.46 57.092-.046 4.568a56.62 56.62 0 0 0 14.798 1.951l.093-4.523a48.77 48.77 0 0 1-14.845-1.995Z" fill="#F19A6A"/><path d="M60.386 58.901v4.48a56.22 56.22 0 0 0 8.628-1.175v-4.518c-.953.224-1.959.428-3.014.608a49.03 49.03 0 0 1-5.614.605Z" fill="url(#d)"/><path d="M32.303 49.067v6.6c0 1.599 10.217 2.894 22.823 2.894s22.824-1.296 22.824-2.894v-6.6H32.303Z" fill="#FFC775"/><path d="M55.125 51.962c-12.605 0-22.823-1.296-22.823-2.895s10.218-2.895 22.823-2.895c12.606 0 22.824 1.296 22.824 2.895 0 1.6-10.218 2.895-22.824 2.895Z" fill="#FFC67B"/><path d="M55.125 51.328c-10.683 0-19.344-1.012-19.344-2.26 0-1.248 8.66-2.26 19.344-2.26 10.684 0 19.345 1.011 19.345 2.26 0 1.248-8.661 2.26-19.345 2.26Z" fill="#FF9350"/><path d="m33.416 50.899-.047 4.567a56.622 56.622 0 0 0 14.799 1.951l.093-4.523A48.77 48.77 0 0 1 33.416 50.9Z" fill="#F19A6A"/><path d="M66.34 52.707v4.48a56.117 56.117 0 0 0 8.628-1.175v-4.518a49.75 49.75 0 0 1-3.013.608 49.03 49.03 0 0 1-5.615.605Z" fill="url(#e)"/><path d="M25.322 39.01v6.6c0 1.598 10.218 2.894 22.824 2.894 12.606 0 22.827-1.296 22.827-2.895V39.01h-45.65Z" fill="#FFC775"/><path d="M48.146 41.906c-12.605 0-22.824-1.296-22.824-2.895s10.219-2.895 22.824-2.895c12.605 0 22.824 1.296 22.824 2.895s-10.219 2.895-22.824 2.895Z" fill="#FFC67B"/><path d="M48.146 41.27c-10.684 0-19.345-1.011-19.345-2.26 0-1.248 8.661-2.26 19.345-2.26s19.344 1.012 19.344 2.26c0 1.249-8.66 2.26-19.344 2.26Z" fill="#FF9350"/><path d="m26.435 40.841-.046 4.568a56.617 56.617 0 0 0 14.798 1.951l.093-4.523a48.77 48.77 0 0 1-14.845-1.995Z" fill="#F19A6A"/><path d="M59.36 42.65v4.48a56.201 56.201 0 0 0 8.628-1.175v-4.518a49.74 49.74 0 0 1-3.014.608c-1.857.31-3.732.512-5.615.605Z" fill="url(#f)"/><path d="M66.42 41.374c1.592.27 4.198-.548 5.563-1.816.716-.667 1.089-1.457.794-2.28-.785-1.673-5.074 1.606-5.074 1.606s1-1.298.18-1.64c-.331-.136-.712.222-1.052.7-.504.712-.914 1.69-.914 1.69s-1.928 1.33.503 1.74Z" fill="#FFB7A8"/><path d="M66.42 41.374c1.593.27 4.198-.548 5.563-1.816-.098.059-2.097 1.234-3.713.57-1.014-.417-1.343-1.654-1.435-2.187-.504.713-.914 1.69-.914 1.69s-1.932 1.333.5 1.743Z" fill="#EA847D"/><path d="M0 88.092c-.07 1.435 4.86 3.279 4.86 3.279s7.878.58 7.378-.581c-.098-.226-.377-.46-.763-.696-1.599-.976-5.052-1.99-5.176-2.65-.153-.82-.94-3.314-.94-3.314l-.897-.384-1.815-.775S.071 86.658.001 88.092Z" fill="#8978F7"/><path d="M0 88.092c-.07 1.435 4.86 3.279 4.86 3.279s7.878.58 7.378-.58c-.098-.227-.377-.46-.763-.697-.133 1.306-5.295.14-7.624-1.893-.424-2.073.58-4.394.608-4.457l-1.814-.775S.07 86.658 0 88.092Z" fill="#634DF4"/><path d="M20.115 86.282v4.248c0 .305.123.598.344.818.221.22.523.349.841.36 3.13.117 11.375.36 11.462-.303.017-.135-.197-.358-.566-.635-1.864-1.398-7.687-4.18-7.687-4.18l-2.122-.149-2.272-.159Z" fill="#8978F7"/><path d="M20.115 86.282v4.248c0 .305.123.598.344.818.221.22.523.349.841.36 3.13.117 11.375.36 11.462-.303.017-.135-.197-.358-.566-.635-.768.285-2.356.562-5.007-.288a8.19 8.19 0 0 1-2.835-1.547 7.773 7.773 0 0 1-1.964-2.494l-2.275-.159Z" fill="#634DF4"/><path d="M4.44 31.463c.965 6.668 8.615 12.535 18.837 13.019 8.26-15.284 15.52-18.89 20.74-19.227 3.946-.255 8.097 1.264 11.175-.752a5.87 5.87 0 0 0 .469-.338c2.847-2.299 2.887-6.729 2.528-9.949 0 0 3.028.352 3.832-1.698.804-2.049-.321-2.561-.321-2.561s.212-10.45-9.433-9.939c-9.644.512-2.68 7.889-17.791 3.278-3.46-1.055-5.588-.907-6.981-.035-4.325 2.712-1.794 9.12-6.72 13.414-4.236 3.695-8.845.688-13.096 4.756-.87.84-1.58 1.817-2.099 2.89-1.18 2.398-1.437 5.086-1.14 7.142ZM3.77 24.321v-.007.007Z" fill="#6A3442"/><path d="M4.44 31.463c.965 6.668 8.615 12.535 18.837 13.019 8.26-15.285 15.52-18.89 20.74-19.227 3.946-.255 8.098 1.264 11.175-.752-.502-.749-.907-1.725-.816-2.869.212-2.731 2.786-6.085 2.786-6.085h-8.24s-.69 1.371-7.12 1.099c-6.432-.273-11.076-.84-11.398 4.53-.323 5.369-3.707 7.33-8.253 7.215-8.039-.203-3.381 9.298-12.111 6.534C2.9 32.667 5.52 24.515 5.584 24.32c-1.183 2.4-1.44 5.088-1.143 7.144Z" fill="#3D2042"/><path d="m1.358 83.107 3.965 1.844s10.61-12.91 12.004-15.983c1.395-3.075 7.181-14.344 7.181-14.344l-3.143-19.692s-1.352.643-3.198 3.701c-1.626 2.7-3.64 7.283-5.45 14.966C8.86 69.992 1.356 83.107 1.356 83.107Z" fill="#2B2F54"/><path d="M17.327 68.968c1.394-3.073 7.181-14.344 7.181-14.344l-3.143-19.692s-1.352.643-3.198 3.701c-.424 1.942-1.202 6.676-.306 12.124 1.182 7.146-.534 18.21-.534 18.21Z" fill="#14182D"/><path d="M19.34 86.897s4.501.17 5.013 0c.512-.171 9.213-17.058 11.143-23.052 1.69-5.25-3.121-13.84-1.781-21.641.188-1.118.516-2.211.977-3.255a51.027 51.027 0 0 0-5.323-5.566s-6.074-1.23-8.861 2.459c-1.652 2.187-1.39 8.494-.23 14.483v.006c.796 4.107 2.013 8.065 3.32 10.441 3.214 5.84-4.259 26.125-4.259 26.125Z" fill="#2B2F54"/><path d="M29.16 40.18c.897 2.02 3.638 1.81 4.555 2.024.188-1.118.516-2.211.976-3.255a51.018 51.018 0 0 0-5.323-5.566s-6.073-1.23-8.86 2.459c-1.653 2.187 4.859-4.197 8.651 4.337Z" fill="#14182D"/><path d="M50.234 21.181c.212-.015.377-.098.464-.264.321-.956 1.358-2.97 1.358-2.97-.239-1.114-2.257-2.357-2.257-2.357-.31.28-.602.579-.876.892-.508.574-1.092 1.352-1.333 2.113-.384 1.212 1.643 2.656 2.644 2.586Z" fill="#FFB7A8"/><path d="M50.234 21.181c.212-.015.376-.098.464-.264.321-.956 1.358-2.97 1.358-2.97-.239-1.114-2.257-2.357-2.257-2.357-.31.28-.602.579-.876.892 1.803 1.428 1.495 3.831 1.311 4.7Z" fill="#EA847D"/><path d="M50.3 16.305h.006s2.357 4.439 5.002 3.005c1.57-.853 2.637-3.997 3.242-6.408.415-1.645.615-2.95.615-2.95-2.643 5.328-6.573 1.742-6.573 1.742-.053 2.803-1.948 2.085-2.034 2.05v-.003c-.049-.115-1.147-2.662-2.143-.508-.997 2.154 1.738 3.026 1.884 3.072Z" fill="#FFB7A8"/><path d="M29.159 37.041c1.833 2.183 4.527 3.956 5.354 4.47 1.429.888 5.86-5.875 11.146-6.626 5.286-.752 5.575-2.323 5.575-4.508s-.536-9.46-.536-9.46c-3.608-.786-.965-.99-2.9-2.84-1.936-1.85-8.428.139-12.216 6.49-3.788 6.352-6.502 3.347-8.003 7.378-.63 1.702.247 3.508 1.58 5.096Z" fill="#8978F7"/><path d="M29.16 37.041c1.832 2.183 4.526 3.956 5.353 4.47 1.429.888 5.86-5.875 11.146-6.626 5.286-.752 5.575-2.323 5.575-4.508-1.787 1.212-1.677-5.06-1.677-5.06l-9.66 2.874s.348 3.716-2.953 7.633c-3.3 3.918-7.785 1.217-7.785 1.217Z" fill="#634DF4"/><path d="M44.874 20.405c-5.964.338-5.359 8.4-4.288 13.319 1.072 4.918 2.287 8.47 3.43 9.016 1.143.546 22.223-.455 22.651-1.15.429-.695-.357-2.949-.357-2.949s-5.645-.82-12.004-1.16c-6.36-.342-6.216-.684-5.43-4.987.785-4.303 2.205-12.44-4.002-12.09Z" fill="#8978F7"/><path d="M50.558 13.746c.07.036 1.764.585 2.105-.496.348-1.1.947.752 3.304.752 1.168 0 2.02-.546 2.583-1.099.415-1.645.615-2.949.615-2.949-2.643 5.328-6.573 1.742-6.573 1.742-.053 2.803-1.948 2.085-2.034 2.05ZM50.3 16.304c-2.04-.846-2.063-2.55-1.326-3.097.713-.529 1.524.466 1.58.534-.048-.115-1.146-2.662-2.143-.507-.996 2.154 1.742 3.025 1.888 3.07Z" fill="#EA847D"/><defs><linearGradient id="a" x1="71.05" y1="86.267" x2="63.146" y2="87.936" gradientUnits="userSpaceOnUse"><stop stop-color="#FFDCAD"/><stop offset="1" stop-color="#FEC989"/></linearGradient><linearGradient id="b" x1="-29798.2" y1="22528.7" x2="-30728.3" y2="22856.7" gradientUnits="userSpaceOnUse"><stop stop-color="#FFDCAD"/><stop offset="1" stop-color="#FEC989"/></linearGradient><linearGradient id="c" x1="-25822.5" y1="17512.6" x2="-26743.6" y2="17794.2" gradientUnits="userSpaceOnUse"><stop stop-color="#FFDCAD"/><stop offset="1" stop-color="#FEC989"/></linearGradient><linearGradient id="d" x1="-26921.9" y1="16665.6" x2="-27842.8" y2="16947.1" gradientUnits="userSpaceOnUse"><stop stop-color="#FFDCAD"/><stop offset="1" stop-color="#FEC989"/></linearGradient><linearGradient id="e" x1="-26189.3" y1="16137.8" x2="-27110.2" y2="16419.5" gradientUnits="userSpaceOnUse"><stop stop-color="#FFDCAD"/><stop offset="1" stop-color="#FEC989"/></linearGradient><linearGradient id="f" x1="-27047.7" y1="15281" x2="-27968.8" y2="15562.5" gradientUnits="userSpaceOnUse"><stop stop-color="#FFDCAD"/><stop offset="1" stop-color="#FEC989"/></linearGradient></defs></svg>