<svg width="84" height="92" fill="none" xmlns="http://www.w3.org/2000/svg"><path d="M63.092 35.08a5.623 5.623 0 0 1-1.264.13c-2.959-.017-3.51-.036-3.51-.036v-1.577s1.211-1.316 2.316-1.888c.352-.181.693-.287.981-.252 1.17.143-.297 1.029-.363 1.069.113-.033 3.595-1.048 4.278-.216.585.71-.35 2.302-2.438 2.77Z" fill="#FFB7A8"/><path d="M63.09 35.08a5.622 5.622 0 0 1-1.263.13c-2.959-.017-3.51-.036-3.51-.036v-1.577s1.211-1.316 2.316-1.887c0 0-2.003 3.11 2.458 3.37Z" fill="#EA847D"/><path d="M60.555 77.973C73.503 77.973 84 67.963 84 55.615S73.503 33.257 60.555 33.257 37.11 43.267 37.11 55.615s10.497 22.358 23.445 22.358Z" fill="#F9D679"/><path d="m63.44 65.175-.863-2.075c-1.432.492-3.006.641-4.027.432l-.23-2.24a7.961 7.961 0 0 0 3.892-.382c1.414-.535 2.103-1.563 1.676-2.59-.4-.963-1.445-1.287-3.346-1.237-2.694.078-4.647-.372-5.474-2.363-.763-1.84 0-3.759 2.1-5.004l-.872-2.097 1.84-.696.827 1.99c1.432-.493 2.53-.537 3.391-.465l.213 2.198c-.636-.031-1.829-.15-3.354.427-1.57.594-1.812 1.576-1.51 2.304.365.877 1.377 1.064 3.587 1.07 2.887-.05 4.49.68 5.282 2.585.756 1.819.099 3.925-2.209 5.243l.917 2.204-1.84.696Z" fill="#FFBA52"/><path d="M60.559 73.142c-10.115 0-18.344-7.848-18.344-17.493s8.226-17.49 18.344-17.49 18.344 7.848 18.344 17.494c0 9.645-8.232 17.49-18.344 17.49Zm0-32.418c-3.095 0-6.121.875-8.695 2.515-2.574 1.64-4.58 3.97-5.765 6.698a14.284 14.284 0 0 0-.89 8.624c.603 2.895 2.094 5.554 4.283 7.642 2.189 2.087 4.978 3.509 8.014 4.085a16.36 16.36 0 0 0 9.043-.85c2.86-1.13 5.304-3.043 7.024-5.497a14.437 14.437 0 0 0 2.637-8.292c-.006-3.956-1.657-7.749-4.59-10.546-2.935-2.797-6.912-4.37-11.061-4.375v-.005Z" fill="#FFBA52"/><path d="M11.3 91.005C11.441 91.938.24 89.39.24 89.39s-.763-1.538.438-4.04c.472-.979 1.475-.884 2.398-.513.703.304 1.361.696 1.957 1.164 0 0 4.323 2.873 5.785 4.345.284.28.46.51.483.659ZM26.5 91.565s-1.008-1.406-.222-4.055c.167-.566.544-.839 1.01-.932 1.332-.27 3.398.932 3.398.932s4.587 2.132 6.339 3.38c.366.261.608.484.659.638.29.901-11.184.037-11.184.037Z" fill="#6D3842"/><path d="M26.5 91.565s-1.008-1.406-.222-4.055c.167-.566.544-.839 1.01-.932l.406.516s2.642 5.044 9.331 3.795c.366.262.608.485.659.64.29.9-11.184.036-11.184.036Z" fill="#3D2042"/><path d="M18.322 71.193a21.904 21.904 0 0 1-1.635 3.21c-4.43 7.243-12.532 12.38-12.532 12.38L.559 85.067s10.625-10.444 9.97-21.98c-.346-6.126-.74-12.078-1.032-16.312a779.838 779.838 0 0 0-.438-6.136l11.77 12.628s1.09 9.04-2.507 17.926Z" fill="#2B2F54"/><path d="M18.322 71.193a21.904 21.904 0 0 1-1.635 3.21s.327-9.653-.98-15.883c-1.008-4.804-4.608-9.73-6.21-11.74-.254-3.737-.438-6.136-.438-6.136l11.77 12.628s1.09 9.036-2.507 17.92Z" fill="#14182D"/><path d="M30.68 87.51h-4.402s1.259-17.353-2.18-25.359C20.395 53.526 8.297 47.394 8.733 38.976c.187-3.624 1.567-5.88 3.076-7.275 1.998-1.846 4.226-2.182 4.226-2.182l8.391 8.418s1.235 1.497 2.857 4.406a57.213 57.213 0 0 1 4.663 11.078c4.14 13.51-1.264 34.089-1.264 34.089Z" fill="#2B2F54"/><path d="M26.819 41.53c-7.86.008-9.495-4.285-10.513-6.919-1.017-2.633-4.5-2.91-4.5-2.91 2-1.846 4.227-2.182 4.227-2.182l8.391 8.418s.772.685 2.395 3.594Z" fill="#14182D"/><path d="m44.35 16.495-3.273 1.972-.486.292s-2.76-2.648-1.289-4.259a154.339 154.339 0 0 1 2.725-1.376c.527-.258.708-.337.708-.337s2.759-.033 1.615 3.708Z" fill="#FFB7A8"/><path d="m44.35 16.495-3.273 1.972c.033-.08 1.256-3.017.949-5.342.527-.258.708-.337.708-.337s2.76-.034 1.616 3.707Z" fill="#EA847D"/><path d="M54.081 13.038a8.416 8.416 0 0 1-.831 2.71c-.79.72-1.62 1.395-2.489 2.026-1.504 1.09-3.38 2.182-4.704 2.08-2.56-.208-3.323-7.067-3.323-7.067-.078-.025-1.526-.493-1.017-2.018.328-.97.979-1.924 1.425-2.504.27-.354.466-.57.466-.57l1.272-.12 5.264-.503c.65.261 1.257.614 1.799 1.046 1.163.914 2.411 2.486 2.138 4.92Z" fill="#FFB7A8"/><path d="M59.626 16.632C48.29 20.374 50.908 8.63 50.145 8.18c-.763-.45-5.232 3.257-5.232 3.257-1.2-3.015-3.2-.668-3.2-.668s-1.71-4.52.47-7.015c2.18-2.494 5.564-.736 5.564-.736S46.875.213 50.58.004c3.705-.208 4.469 7.587 4.469 7.587S59.189.108 64.31.836c1.513.214 2.712 1.353 3.358 2.949 1.543 3.81-.057 10.211-8.043 12.847Z" fill="#6D3842"/><path d="M42.164 21.026c-.675 2.523-3.16 5.698-6.459 7.344-4.903 2.442-7.821 6.159-8.499 8.782-.927 3.585-5.667 1.247-7.356-1.663a8.499 8.499 0 0 0-1.867-2.158l-.011-.008c-1.675-1.436-3.536-2.328-3.735-3.55-.527-3.239 6.993-6.479 8.627-8.712 1.634-2.233 7.163-6.645 10.172-7.601 3.106-.987 6.611-.554 6.847.737 0 0-.099 1.827 1.867 3.86.64.671.742 1.737.414 2.969Z" fill="#8978F7"/><path d="M42.162 21.032c-.675 2.523-3.16 5.698-6.458 7.344-4.904 2.442-7.822 6.159-8.5 8.782-.927 3.585-5.667 1.247-7.356-1.663a8.5 8.5 0 0 0-1.867-2.158c3.474 2.91 10.044-.96 11.784-6.208.89-2.696.958-6.71.958-6.71s2.416-1.431 8.883.184c1.023 3.941 2.485.592 2.556.429Z" fill="#614BF4"/><path d="M58.753 35.617c-.95.112-1.88.21-2.788.292-.382.032-.749.064-1.116.092l-.16.012c-7.892.592-13.899-.078-16.642-1.922C34.85 31.944 26.4 17.57 33.362 15.774c3.998-1.031 6.102 1.585 6.646 7.51.545 5.923 8.828 7.586 13.514 8.106 1.798.199 3.035.364 3.876.5 1.351.213 1.682.332 1.682.332s.982 2.078-.327 3.395Z" fill="#8978F7"/><path d="M59.626 16.632c-11.335 3.742-8.718-8.002-9.48-8.452-.764-.45-5.233 3.257-5.233 3.257-1.199-3.015-3.199-.668-3.199-.668s.093-2.503 1.566-2.815c1.472-.311 1.78 1.612 1.78 1.612s3.722-3.794 5.357-4.158c1.635-.364 2.713 1.981 2.942 4.001.382 3.378 3.488 7.068 9.917 3.378 6.358-3.644 4.441-8.874 4.395-9 1.542 3.807-.059 10.21-8.045 12.845Z" fill="#3D2042"/></svg>