<svg width="88" height="117" fill="none" xmlns="http://www.w3.org/2000/svg"><path d="M77.33 36.876C77.33 16.51 60.02 0 38.665 0 17.31 0 0 16.51 0 36.876c0 13.354 7.442 25.049 18.586 31.52 0 0 4.43 2.723 4.43 15.6h31.298c0-12.878 4.43-15.6 4.43-15.6C69.887 61.925 77.33 50.23 77.33 36.876Z" fill="#82EEC8"/><path d="M44.663 85.33h-9.997l-.066-.677c-.014-.146-1.438-14.761-2.739-22.758-.752-4.617-2.022-9.786-3.422-13.903a13.248 13.248 0 0 1-3.225-1.355c-2.486-1.437-3.937-3.456-3.88-5.398.03-1 .507-1.831 1.278-2.223.459-.233 1.423-.51 2.727.26 1.548.913 3.032 3.867 4.314 7.459 3.296.589 6.413-.67 8.815-3.654-2.296-3.075-3.524-7.22-3.672-10.237-.125-2.57.534-4.225 1.857-4.657 1.445-.472 2.793-.05 3.797 1.191 2.406 2.97 2.366 9.975-.018 13.636 1.139 1.294 2.493 2.257 4.033 2.615a13.61 13.61 0 0 0 3.006.362c1.923-5.21 4.424-7.284 6.48-7.35a2.65 2.65 0 0 1 1.685.492c.482.349.817.849.945 1.41.332 1.344-.346 3.008-1.772 4.34-1.577 1.48-3.752 2.35-6.2 2.548-.548 1.682-1.052 3.715-1.472 6.161-2.606 15.147-2.482 30.83-2.48 30.987l.006.75Zm-8.565-1.488h6.987c.012-3.32.203-17.112 2.501-30.489.33-1.989.792-3.956 1.383-5.89-.97-.04-1.933-.172-2.876-.393-1.797-.418-3.34-1.436-4.62-2.792-2.543 2.992-5.828 4.38-9.284 4.033 1.52 4.68 2.687 10.035 3.228 13.36 1.146 7.05 2.384 19.187 2.68 22.17h.001ZM23.664 40.258a.676.676 0 0 0-.31.067c-.269.137-.437.494-.448.954-.032 1.084.773 2.723 3.129 4.085.563.33 1.154.614 1.767.851-1.114-2.93-2.272-5.076-3.292-5.679-.312-.183-.605-.278-.846-.278Zm30.385-.136h-.046c-1.175.038-3.14 1.432-4.838 5.75 1.797-.255 3.371-.954 4.537-2.047 1.024-.96 1.553-2.117 1.348-2.947a.917.917 0 0 0-.35-.554 1.013 1.013 0 0 0-.647-.202h-.004ZM37.776 29.485c-.21.003-.416.04-.613.108-.45.148-.898 1.207-.8 3.183.129 2.645 1.208 6.194 3.056 8.915 1.846-3.449 1.527-9.26-.213-11.41-.509-.62-1.006-.797-1.429-.797Z" fill="#fff"/><path d="M57.997 87.087v.484c0 .82-.344 1.606-.955 2.186-.61.58-1.439.905-2.303.905H22.59a3.363 3.363 0 0 1-2.09-.721 3.063 3.063 0 0 1-1.116-1.828 2.796 2.796 0 0 1-.052-.542v-.484c.001-.82.345-1.606.956-2.186.61-.58 1.439-.905 2.302-.905h32.15c.863 0 1.691.326 2.302.905.61.58.954 1.366.955 2.186Z" fill="#44E5AD"/><path d="M57.997 87.087v.484c0 .82-.344 1.606-.956 2.186-.612.58-1.441.905-2.306.905H22.543a3.37 3.37 0 0 1-2.094-.721 3.063 3.063 0 0 1-1.117-1.828h29.06c.864 0 1.693-.326 2.304-.906.611-.58.955-1.366.955-2.186v-.48c0-.183-.016-.365-.051-.545h3.139c.864 0 1.692.327 2.303.907.611.58.954 1.365.955 2.184Z" fill="#35D69E"/><path d="M55.33 93.754v.483c0 1.705-1.257 3.092-2.808 3.092H24.807c-1.383 0-2.53-1.102-2.764-2.55a3.23 3.23 0 0 1-.044-.542v-.483c0-1.705 1.258-3.092 2.808-3.092h27.716c1.552 0 2.808 1.385 2.808 3.092Z" fill="#44E5AD"/><path d="M55.33 93.754v.483c0 1.705-1.259 3.092-2.812 3.092H24.767c-1.386 0-2.534-1.102-2.768-2.55h25.048c1.55 0 2.81-1.383 2.81-3.091v-.481a3.26 3.26 0 0 0-.045-.545h2.706c1.555 0 2.813 1.385 2.813 3.092Z" fill="#35D69E"/><path d="M50.664 100.111v.435c0 .365-.076.727-.224 1.065a2.782 2.782 0 0 1-.638.903 2.967 2.967 0 0 1-.954.603c-.357.14-.74.211-1.125.211H30.275c-.691 0-1.36-.23-1.889-.649a2.756 2.756 0 0 1-1.007-1.646 2.584 2.584 0 0 1-.047-.487v-.435c0-.365.076-.728.224-1.065.148-.338.365-.645.638-.903.274-.258.598-.463.955-.603.357-.14.74-.212 1.125-.211h17.449c.78 0 1.527.293 2.078.815.552.522.862 1.23.863 1.967ZM42.665 106.111v.433c0 .366-.075.728-.221 1.065-.147.338-.361.645-.631.903-.27.259-.592.464-.945.604-.353.14-.732.212-1.114.212h-2.178c-.73 0-1.433-.262-1.97-.734a2.736 2.736 0 0 1-.941-2.05v-.433c0-.365.075-.727.221-1.064.146-.338.36-.645.631-.903.27-.259.591-.464.945-.604a3.047 3.047 0 0 1 1.114-.212h2.178c.096 0 .193.005.29.016a2.96 2.96 0 0 1 1.869.9 2.71 2.71 0 0 1 .752 1.867Z" fill="#44E5AD"/><path d="M38.998 56.664c18.593 0 33.665-12.535 33.665-27.999C72.663 13.202 57.591.667 38.998.667S5.333 13.202 5.333 28.665c0 15.464 15.072 27.999 33.665 27.999Z" fill="#F9D67B" style="mix-blend-mode:screen" opacity=".2"/><path d="M38.998 33.998c13.807 0 24.999-7.163 24.999-15.999S52.805 2 38.998 2C25.192 2 14 9.164 14 18s11.193 16 25 16Z" fill="#F9D67B" style="mix-blend-mode:screen" opacity=".3"/><path d="M50.664 100.321v.407c0 .341-.076.679-.224.995a2.608 2.608 0 0 1-.64.844 3.016 3.016 0 0 1-.956.564c-.357.13-.74.197-1.127.197H30.233a3.193 3.193 0 0 1-1.892-.607c-.53-.392-.887-.936-1.009-1.538h19.187c1.393 0 2.527-1.164 2.527-2.6v-.405c0-.062 0-.124-.007-.183.489.216.9.548 1.187.959.288.41.44.884.438 1.367Z" fill="#35D69E"/><path d="M42.665 106.101v.434c0 .367-.075.73-.222 1.069a2.802 2.802 0 0 1-.631.906c-.271.259-.593.465-.947.605a3.016 3.016 0 0 1-1.116.213h-2.18c-.731 0-1.435-.263-1.973-.737a2.744 2.744 0 0 1-.931-1.82H36.8c.86 0 1.683-.327 2.29-.908.608-.582.95-1.37.95-2.193v-.342c.719.068 1.385.39 1.87.902.486.513.754 1.179.755 1.871Z" fill="#35D69E"/><path d="M20.783 65.06c-.841.855-3.745 1.112-5.224.448-.62-.278-.987-.719-.853-1.347.462-2.127 2.154-.349 3.307-.862 1.154-.514-1.499-.073-.73-.77.32-.29.872-.262 1.409-.132a7.189 7.189 0 0 1 1.474.572s1.345.623.617 2.09Z" fill="#FCA69D"/><path d="M20.782 65.06c-.84.855-3.744 1.112-5.223.448 1.372.376 2.992-.086 3.262-1.146a3.299 3.299 0 0 0-.13-1.968 7.189 7.189 0 0 1 1.475.572s1.345.626.616 2.094Z" fill="#EA847D"/><path d="M39.332 46.753V56.82s0 3.814-4.486 5.623c-1.411.569-4.585 1.614-7.773 2.323-2.305.514-4.619.852-6.276.708-1.487-.294-1.23-2.543-1.23-2.543s0-1.124 4.41-1.907c4.409-.783 7.947-2.054 10.613-8.361 2.666-6.308 4.742-5.91 4.742-5.91Z" fill="#8978F7"/><path d="M39.332 46.753V56.82s0 3.814-4.487 5.623c-1.41.569-4.584 1.614-7.772 2.323 2.226-.856 5.218-1.214 7.516-4.693 1.884-2.858.513-5.404 1.692-8.926 1.18-3.52 3.05-4.394 3.05-4.394Z" fill="#614BF4"/><path d="m38.351 112.613-1.525.354-.577-1.455-.495 1.651s-3.668.865-5.07.589c-.588-.115-.53-.397-.17-.746.498-.482 1.573-1.093 2.314-1.573 1.278-.825 2.926-1.768 2.926-1.768l.68-.062 1.34-.122s.948 1.677.577 3.132Z" fill="#8978F7"/><path d="m38.351 112.612-1.525.355-.577-1.455-.495 1.651s-3.668.865-5.07.589c-.588-.115-.53-.397-.17-.746-.483.737 1.28.558 3.826-.542 2.547-1.099 2.17-2.518 2.17-2.518l-.076-.342 1.34-.122s.948 1.676.577 3.13Z" fill="#614BF4"/><path d="M54.163 116.586c-1.462.476-4.77-1.467-4.77-1.467v-1.907l-.575 1.43-.924-.623c-.307-1.21.616-2.861.616-2.861.29-.154.622-.218.951-.185.468.051.919.202 1.317.442 0 0 .962 1.43 2.462 2.494.901.639 1.58 1.305 1.662 1.838.053.354-.157.649-.739.839Z" fill="#8978F7"/><path d="M54.163 116.586c-1.462.476-4.77-1.467-4.77-1.467v-1.907l-.575 1.43-.924-.623c-.307-1.21.616-2.861.616-2.861.29-.154.622-.218.951-.185l.28.784s-.084 1.975 1.87 3.423c1.857 1.375 3.167 1.377 3.29.568.054.353-.156.648-.738.838Z" fill="#614BF4"/><path d="M44.972 76.575s-1.993 10.304-3.83 19.534c-1.257 6.332-2.445 12.156-2.862 13.802-.82.966-2.782 0-2.782 0s-.911-3.961-.911-20.024c0-12.052 1.166-17.97 1.753-20.177.09-.357.197-.71.324-1.056h7.46l.848 7.921Z" fill="#2B2F54"/><path d="M44.972 76.575s-1.993 10.304-3.83 19.534c-.489-3.167-1.448-10.2-1.362-16.124.116-7.921-3.439-10.275-3.439-10.275.09-.357.197-.71.324-1.056h7.459l.848 7.921Z" fill="#14182D"/><path d="M51.586 111.341c-1.307 1.468-3.384 0-3.384 0s-1.154-6.381-3.23-19.363a2113.278 2113.278 0 0 0-3.367-20.444c-.16-.946-.248-1.455-.248-1.455s5.462-3.85 9.269-1.43c.846 1.292 1.346 5.04 1.607 9.827.632 11.531-.103 29.082-.647 32.865Z" fill="#2B2F54"/><path d="M52.232 78.48c-.054-.129-1.794-4.278-4.466-5.793-2.715-1.54-6.16-1.153-6.16-1.153l-.249-1.455s5.462-3.85 9.269-1.43c.845 1.296 1.344 5.044 1.606 9.832Z" fill="#14182D"/><path d="M46.278 44.937c-1.334 2.153-1.026 2.054-1.334 2.153-.308.098-3.076-1.15-3.076-1.15s.006-.182 0-.464c-.01-.736-.09-2.146-.515-2.764a10.771 10.771 0 0 1 3.489-2.322c.026.62.096 1.236.208 1.847.191 1.023.551 2.191 1.228 2.7Z" fill="#FCA69D"/><path d="M45.021 42.07c-2.073 1.053-3.15 3.406-3.15 3.406-.011-.736-.09-2.146-.515-2.764a10.77 10.77 0 0 1 3.486-2.322 9.78 9.78 0 0 0 .18 1.68Z" fill="#E57673"/><path d="M45.894 39.938s-.443.99-1.204 1.496c-.519.615-.869.403-.907.377 0 0-3.076 2.75-4.653 1.687-.808-.541-1.009-1.98-1.015-3.258 0-.775.055-1.55.169-2.317.09-.283.244-.544.453-.762 1.106-1.168 3.51-1.128 3.738-1.04.27.107 2.578.812 2.578.812l.317 1.129.524 1.876Z" fill="#FCA69D"/><path d="M45.894 39.937s-.443.991-1.204 1.497c-.519.615-.869.403-.907.377 1.129.196 1.68-2.225.731-2.568-.948-.342-1.513.807-1.513.807-1.128-.073-1.282-1.344-2.076-1.443-.594-.072-2.092 1.057-2.81 1.632 0-.775.055-1.549.169-2.316.09-.284.244-.544.453-.763l1.085-.577h2.82l2.728 1.479.524 1.875Z" fill="#EA847D"/><path d="M47.401 39.278c-1.113 1.183-2.71 2.155-2.71 2.155s1.332-2.12-.053-2.707c-1.384-.587-1.64 1.322-1.64 1.322s-1.692-1.37-1.18-2.494c0 0-7.434 3.325-9.742-1.613-.926-1.983-.828-3.383-.057-4.215 1.151-1.24 3.798-1.22 6.774.01 4.974 2.053 5.794-1.076 7.281.488s.359 2.787.359 2.787 1.692.245 2 2.103c.114.69-.373 1.465-1.032 2.164Z" fill="#6A3442"/><path d="M52.738 69.533c-1.154 1.907-5.769-1.1-8.153.733-2.384 1.834-5 1.54-7.383 0-2.385-1.54-2.005-.928-.462-6.747 1.47-5.547.346-10.71.538-13.056.192-2.348 1.462-3.778 4.59-5.098 1.82.917 4.41-.428 4.41-.428s4.23 1.492 4.46 2.812c.09.527.099 1.836.054 3.569-.069 2.61-.253 6.181-.438 9.487-.308 5.501 1.617 5.281 2.384 8.728Z" fill="#8978F7"/><path d="M52.738 69.533c-1.154 1.907-5.769-1.1-8.153.733 1.333-1.173 2.459-2.381 2.554-5.5.095-3.12-3.02-3.643-3.02-3.643L42.79 57.89s3.391-1.002 3.66-2.915c.156-1.105-.32-5.489-.32-5.489l4.666 1.832c-.068 2.61-.253 6.182-.438 9.488-.312 5.501 1.613 5.281 2.38 8.728Z" fill="#614BF4"/><path d="M87.56 72.377c-1.795 8.13-8.833 12.852-15.823 13.99-9.46 1.54-22.23-2.499-21.343-11.332.888-8.834 3.884-16.724 1.5-20.757-.573-.97-1.167-1.681-1.757-2.17-.807-.673-1.626-.93-2.403-.87-1.016.077-1.968.698-2.763 1.646-1.845 2.2-3.128 2.396-4.653 6.637 0 0 .538 2.678 1.5 3.594.962.917.154 3.777-.75 3.961-1.096-.22-.558-1.432-1.558-1.192s-.114-1.265-.96-1.375a4.118 4.118 0 0 0-.438-.029c-.783-.016-1.653.094-1.525-.386.153-.575-1.731-.025-1.538-.795.193-.77 2.623-1.522 3.792-4.502.309-.786.52-1.82.795-3.037l.005-.025c0-.01.005-.02.008-.03l.015-.069c.77-3.39 2.064-8.167 7.251-13.021 7.131-6.675 18.899-6.088 23.744 0 1.555 1.953 3.466 3.234 5.458 4.543 4.217 2.772 8.805 5.67 11.156 15.334.905 3.715.923 7.013.287 9.885Z" fill="#A39CD3"/><path d="M87.56 72.374c-1.795 8.13-8.832 12.852-15.823 13.99-9.46 1.54-22.23-2.498-21.343-11.332.888-8.833 3.884-16.723 1.5-20.757-.573-.97-1.167-1.68-1.756-2.17l1.421-5.013s2.643 2.12 3.565 6.56c.923 4.438-1.363 15.744 4.962 15.744 9.834 0-2.192 12.716 10.268 13.486 12.46.77 17.206-10.508 17.206-10.508Z" fill="#7267BB"/><path d="M47.735 51.237c-1.017.078-1.968.7-2.763 1.647-1.846 2.2-3.128 2.396-4.654 6.637 0 0 .539 2.678 1.5 3.594.963.917.154 3.777-.75 3.961-1.096-.22-.558-1.432-1.557-1.192-1 .24-.115-1.265-.962-1.375a4.142 4.142 0 0 0-.437-.029c2.702-.407 2.116-2.232 1.294-3.993-.823-1.76 1.233-4.4 3.784-7.677 2.55-3.277 3.185-4.688 3.185-4.688l1.36 3.115Z" fill="#614BF4"/><path d="M40.347 60.072c-1.815-.149-2.669-.77-2.961-1.406-.27-.569-.083-1.147.258-1.4.7-.522 2.002.586 2.068.642-.028-.043-.434-.677 0-.867.17-.075.417.085.658.32.286.291.545.606.773.94 0 0 1 1.379-.796 1.77Z" fill="#FCA69D"/><path d="M40.347 60.072c-1.816-.149-2.669-.77-2.962-1.406.794.88 2.064.685 2.463.11.398-.577.523-1.416.523-1.416.286.291.545.606.773.941 0 0 .998 1.379-.797 1.77Z" fill="#EA847D"/><path d="M47.401 39.277c-1.113 1.184-2.71 2.155-2.71 2.155s1.332-2.12-.053-2.707c-1.384-.587-1.64 1.322-1.64 1.322s-1.692-1.369-1.18-2.493c0 0-7.434 3.324-9.742-1.614-.926-1.983-.828-3.383-.057-4.214 0 0-.378 3.508 3.48 4.393 3.856.885 6.625-.95 7.357-.436.732.514 0 2.14 0 2.14s2.692-.571 3.038 0c.345.57-.37 2.153 1.507 1.454Z" fill="#3D2042"/><path d="M71.402 66.227 71 65.26c-.666.228-1.399.298-1.873.2l-.107-1.042c.61.092 1.234.03 1.812-.178.657-.25.979-.728.78-1.206-.187-.448-.673-.6-1.558-.576-1.256.036-2.162-.171-2.547-1.1-.359-.855 0-1.75.977-2.328l-.405-.977.856-.323.385.926a3.752 3.752 0 0 1 1.577-.217l.099 1.027a3.488 3.488 0 0 0-1.562.199c-.73.276-.843.733-.702 1.072.17.408.64.495 1.669.498 1.346-.024 2.089.317 2.458 1.203.351.847.046 1.826-1.029 2.44l.427 1.027-.855.32Z" fill="#F9D679"/><path d="M70.056 69.936a8.836 8.836 0 0 1-4.743-1.372 8.238 8.238 0 0 1-3.144-3.654 7.791 7.791 0 0 1-.486-4.703 8.032 8.032 0 0 1 2.337-4.169 8.673 8.673 0 0 1 4.37-2.228 8.924 8.924 0 0 1 4.933.463 8.463 8.463 0 0 1 3.832 2.999 7.876 7.876 0 0 1 1.439 4.523c-.003 2.158-.903 4.228-2.504 5.754-1.6 1.526-3.77 2.385-6.034 2.387Zm0-15.087c-1.44 0-2.848.407-4.046 1.17a7.028 7.028 0 0 0-2.683 3.118 6.647 6.647 0 0 0-.414 4.013 6.852 6.852 0 0 0 1.993 3.556 7.4 7.4 0 0 0 3.73 1.901 7.613 7.613 0 0 0 4.208-.395 7.22 7.22 0 0 0 3.269-2.558 6.72 6.72 0 0 0 1.227-3.86c-.003-1.84-.771-3.605-2.137-4.907-1.365-1.301-3.216-2.034-5.147-2.035v-.003Z" fill="#F9D679"/></svg>