<svg width="97" height="100" fill="none" xmlns="http://www.w3.org/2000/svg"><path d="M53.116 69.403h39.651s-6.254-4.766-3.865-21.518c2.39-16.751 11.506-32.15 3.186-47.885H53.116s3.54 5.499 3.422 15.313c-.118 9.815-3.955 18.805-6.373 29.724-3.422 15.454 2.95 24.366 2.95 24.366Z" fill="#1ED797"/><path d="M50.672 69.403h39.652s-6.255-4.766-3.865-21.518C88.848 31.134 97.965 15.735 89.645 0H50.672s3.54 5.499 3.422 15.313c-.117 9.814-3.954 18.805-6.373 29.724-3.422 15.454 2.951 24.366 2.951 24.366Z" fill="#44E5AD"/><path d="M81.212 4.688c.208.85.54 1.67.987 2.431.877 1.468 2.545 3.193 5.608 3.498.142.96.326 2.778.24 5.408-.078 2.39-.362 4.975-.841 7.682-.6 3.386-1.512 6.974-2.71 10.664-2.812 8.662-3.558 15.05-3.688 18.882-.086 2.557.078 4.36.227 5.406a8.353 8.353 0 0 0-1.8.86c-1.27.803-2.917 2.33-3.866 5.127H58.984a9.312 9.312 0 0 0-1.102-2.348c-.93-1.415-2.66-3.152-5.73-3.748-.085-.803-.2-2.155-.23-3.823-.046-2.499.093-6.242 1.015-9.883.261-1.029.605-2.308 1.003-3.79 2.366-8.801 6.244-23.228 5.107-30.578 1.609-.468 4.33-1.83 6.05-5.791H81.21l.001.003Zm.968-1.11H64.302c-2.183 5.866-6.608 6.035-6.608 6.035 2.006 7.727-4.032 27.675-5.88 34.97-1.848 7.294-.708 14.927-.708 14.927 6.176.677 6.962 6.242 6.962 6.242h18.175c1.534-5.79 6.116-6.28 6.116-6.28s-2.124-8.234 3.246-24.774S88.79 9.557 88.79 9.557c-6.078 0-6.608-5.979-6.608-5.979h-.003Z" fill="#6DE2BB"/><path d="M59.57 27.23c.195 0 .392.006.586.02 2.197.141 4.25 1.093 5.726 2.654 1.476 1.562 2.26 3.61 2.187 5.713-.073 2.103-.999 4.097-2.58 5.56-1.582 1.464-3.697 2.283-5.899 2.285-.194 0-.391-.006-.586-.02-2.196-.141-4.25-1.093-5.726-2.654-1.476-1.562-2.26-3.61-2.186-5.713.073-2.104.998-4.097 2.58-5.56 1.582-1.464 3.697-2.283 5.899-2.285Zm.001-1.107c-5.03 0-9.27 3.729-9.616 8.597-.362 5.082 3.654 9.482 8.97 9.826.224.015.445.022.665.022 5.03 0 9.27-3.728 9.616-8.596.362-5.082-3.654-9.482-8.971-9.827a10.229 10.229 0 0 0-.664-.021ZM63.044 11.368a1.92 1.92 0 0 1 1.463.654c.309.355.464.809.434 1.269a1.78 1.78 0 0 1-.592 1.208 1.944 1.944 0 0 1-1.536.479 1.92 1.92 0 0 1-1.225-.64 1.76 1.76 0 0 1-.434-1.269c.03-.46.242-.892.593-1.208a1.943 1.943 0 0 1 1.297-.493Zm0-1.107c-.794 0-1.556.296-2.126.824a2.863 2.863 0 0 0-.928 2.006c-.024.759.26 1.497.795 2.058a3.114 3.114 0 0 0 2.07.949 3.148 3.148 0 0 0 2.176-.695 2.882 2.882 0 0 0 1.056-1.947 2.833 2.833 0 0 0-.658-2.101 3.094 3.094 0 0 0-2.385-1.094ZM66.524 57.167a1.92 1.92 0 0 1 1.463.654c.308.355.463.808.434 1.268a1.78 1.78 0 0 1-.592 1.209 1.944 1.944 0 0 1-1.536.479 1.921 1.921 0 0 1-1.225-.64 1.76 1.76 0 0 1-.434-1.27c.03-.46.241-.892.593-1.208a1.944 1.944 0 0 1 1.297-.492Zm0-1.107c-.794 0-1.556.295-2.126.824a2.863 2.863 0 0 0-.927 2.006c-.025.758.26 1.496.794 2.057a3.112 3.112 0 0 0 2.069.948 3.147 3.147 0 0 0 2.176-.695 2.881 2.881 0 0 0 1.057-1.946 2.832 2.832 0 0 0-.659-2.101 3.093 3.093 0 0 0-2.384-1.093Z" fill="#6DE2BB"/><path d="m65.434 36.195-1.448-.094c-.072.794-.388 1.6-.782 2.056l-.937-.393a3.567 3.567 0 0 0 .757-1.934c.069-.973-.472-1.67-1.29-1.722-.788-.051-1.315.451-1.817 1.438-.673 1.36-1.394 2.182-2.642 2.1-1.19-.078-2.036-.943-2.161-2.22l-1.449-.094.06-.85 1.392.09c.087-.82.356-1.367.629-1.75l.922.405a3.226 3.226 0 0 0-.61 1.696c-.076 1.055.556 1.496 1.13 1.533.745.048 1.154-.435 1.755-1.594.703-1.373 1.5-2.037 2.775-1.954 1.133.074 2.141.897 2.284 2.325l1.492.097-.06.865Z" fill="#6DE2BB"/><path d="M49.19 69.403H88.84s-6.254-4.766-3.865-21.518C87.366 31.134 96.482 15.735 88.162 0H49.19s3.54 5.499 3.423 15.313c-.118 9.815-3.955 18.805-6.373 29.724-3.422 15.454 2.95 24.366 2.95 24.366Z" fill="#1ED797"/><path d="M46.746 69.403h39.651s-6.254-4.766-3.865-21.518C84.922 31.134 94.038 15.735 85.72 0H46.746s3.54 5.499 3.422 15.313c-.118 9.815-3.955 18.805-6.373 29.724-3.422 15.454 2.95 24.366 2.95 24.366Z" fill="#44E5AD"/><path d="M77.286 4.688c.207.85.54 1.67.987 2.431.877 1.468 2.545 3.193 5.607 3.498.143.96.327 2.778.24 5.408-.078 2.39-.36 4.975-.84 7.682-.601 3.386-1.513 6.974-2.71 10.664-2.813 8.662-3.558 15.05-3.688 18.882-.087 2.557.078 4.36.227 5.406a8.353 8.353 0 0 0-1.8.86c-1.27.803-2.917 2.33-3.866 5.127H55.057a9.318 9.318 0 0 0-1.101-2.348c-.93-1.415-2.66-3.152-5.73-3.748-.085-.803-.2-2.155-.23-3.823-.047-2.499.092-6.242 1.015-9.883.26-1.029.605-2.308 1.003-3.79 2.366-8.801 6.244-23.228 5.106-30.578 1.61-.468 4.331-1.83 6.05-5.791h16.115v.003Zm.968-1.11H60.376c-2.183 5.866-6.608 6.035-6.608 6.035 2.006 7.727-4.033 27.675-5.88 34.97-1.848 7.294-.709 14.927-.709 14.927 6.176.677 6.963 6.242 6.963 6.242h18.174c1.534-5.79 6.117-6.28 6.117-6.28s-2.124-8.234 3.245-24.774c5.37-16.54 3.187-25.141 3.187-25.141-6.078 0-6.609-5.979-6.609-5.979h-.002Z" fill="#6DE2BB"/><path d="M55.643 27.23c.194 0 .39.006.585.02 2.197.141 4.25 1.093 5.726 2.655 1.477 1.56 2.26 3.61 2.187 5.712-.073 2.104-.999 4.098-2.58 5.561-1.583 1.464-3.698 2.283-5.9 2.284-.193 0-.39-.006-.585-.02-2.197-.141-4.25-1.093-5.726-2.654-1.477-1.562-2.26-3.61-2.187-5.713.074-2.104.999-4.098 2.581-5.561 1.582-1.464 3.697-2.282 5.899-2.284Zm0-1.107c-5.03 0-9.27 3.729-9.616 8.597-.362 5.082 3.654 9.482 8.97 9.826.224.015.445.022.665.022 5.03 0 9.27-3.728 9.616-8.596.362-5.082-3.655-9.482-8.97-9.827a10.229 10.229 0 0 0-.665-.021ZM59.117 11.368a1.92 1.92 0 0 1 1.463.654c.308.355.463.809.434 1.269a1.78 1.78 0 0 1-.593 1.208 1.944 1.944 0 0 1-1.535.479 1.921 1.921 0 0 1-1.225-.64 1.76 1.76 0 0 1-.434-1.269c.03-.46.24-.892.592-1.208a1.944 1.944 0 0 1 1.297-.493Zm0-1.107c-.795 0-1.557.296-2.127.824a2.863 2.863 0 0 0-.928 2.006c-.024.759.26 1.497.795 2.058a3.114 3.114 0 0 0 2.07.949 3.148 3.148 0 0 0 2.175-.695 2.882 2.882 0 0 0 1.057-1.947 2.833 2.833 0 0 0-.658-2.101 3.094 3.094 0 0 0-2.385-1.094ZM62.598 57.167a1.92 1.92 0 0 1 1.463.654c.308.355.464.808.434 1.268a1.78 1.78 0 0 1-.592 1.209 1.944 1.944 0 0 1-1.536.479 1.921 1.921 0 0 1-1.225-.64 1.76 1.76 0 0 1-.434-1.27c.03-.46.242-.892.593-1.208a1.944 1.944 0 0 1 1.297-.492Zm0-1.107c-.794 0-1.556.295-2.126.824a2.863 2.863 0 0 0-.927 2.006c-.025.758.26 1.496.795 2.057a3.112 3.112 0 0 0 2.068.948 3.147 3.147 0 0 0 2.176-.695 2.881 2.881 0 0 0 1.057-1.946 2.832 2.832 0 0 0-.659-2.101 3.093 3.093 0 0 0-2.384-1.093Z" fill="#6DE2BB"/><path d="m61.508 36.195-1.45-.094c-.07.794-.387 1.6-.78 2.056l-.938-.393a3.567 3.567 0 0 0 .757-1.934c.07-.973-.472-1.67-1.29-1.722-.788-.051-1.315.451-1.816 1.438-.673 1.36-1.395 2.182-2.642 2.1-1.19-.078-2.036-.943-2.162-2.22l-1.448-.094.06-.85 1.391.09c.087-.82.357-1.367.629-1.75l.922.405a3.226 3.226 0 0 0-.61 1.696c-.076 1.055.556 1.496 1.13 1.533.745.048 1.154-.435 1.755-1.594.703-1.373 1.5-2.037 2.776-1.954 1.133.074 2.14.897 2.283 2.325l1.492.097-.06.865Z" fill="#6DE2BB"/><path d="M45.263 69.403h39.652s-6.255-4.766-3.865-21.518C83.439 31.134 92.556 15.735 84.236 0H45.263s3.54 5.499 3.423 15.313c-.118 9.815-3.955 18.805-6.374 29.724-3.422 15.454 2.951 24.366 2.951 24.366Z" fill="#1ED797"/><path d="M42.82 69.403h39.65s-6.254-4.766-3.864-21.518C80.996 31.134 90.112 15.735 81.792 0H42.819s3.54 5.499 3.423 15.313c-.117 9.814-3.955 18.805-6.374 29.724-3.421 15.454 2.951 24.366 2.951 24.366Z" fill="#44E5AD"/><path d="M73.36 4.688c.207.85.54 1.67.987 2.431.876 1.469 2.545 3.193 5.607 3.498.143.96.327 2.778.24 5.408-.078 2.39-.361 4.976-.84 7.682-.601 3.386-1.513 6.974-2.711 10.664-2.812 8.662-3.558 15.05-3.687 18.882-.087 2.558.077 4.36.226 5.406a8.353 8.353 0 0 0-1.8.86c-1.27.803-2.917 2.33-3.866 5.128H51.131a9.318 9.318 0 0 0-1.102-2.349c-.93-1.415-2.66-3.152-5.729-3.748-.223-2.113-.65-8.047.784-13.706.261-1.029.605-2.308 1.003-3.789 2.366-8.802 6.244-23.229 5.107-30.578 1.609-.468 4.33-1.83 6.05-5.792h16.115v.003Zm.967-1.11H56.45c-2.184 5.866-6.609 6.036-6.609 6.036 2.006 7.727-4.032 27.674-5.88 34.969-1.847 7.294-.708 14.928-.708 14.928 6.176.676 6.963 6.241 6.963 6.241H68.39c1.534-5.79 6.117-6.28 6.117-6.28s-2.124-8.234 3.245-24.774C83.122 18.158 80.94 9.56 80.94 9.56c-6.078 0-6.608-5.979-6.608-5.979l-.004-.002Z" fill="#6DE2BB"/><path d="M51.718 27.23c.194 0 .39.006.585.02 2.197.141 4.25 1.093 5.726 2.655 1.476 1.56 2.26 3.61 2.187 5.712-.073 2.104-.999 4.098-2.58 5.561-1.583 1.464-3.698 2.283-5.9 2.284-.193 0-.39-.006-.585-.02-2.197-.141-4.25-1.093-5.726-2.654-1.476-1.562-2.26-3.61-2.187-5.713.073-2.104.999-4.097 2.58-5.56 1.583-1.464 3.698-2.283 5.9-2.285Zm0-1.107c-5.03 0-9.27 3.729-9.617 8.597-.361 5.082 3.655 9.482 8.971 9.826.223.015.444.022.665.022 5.03 0 9.27-3.728 9.615-8.596.362-5.082-3.654-9.482-8.97-9.827a10.234 10.234 0 0 0-.665-.021ZM55.19 11.368a1.92 1.92 0 0 1 1.463.654c.309.355.464.809.434 1.269a1.78 1.78 0 0 1-.592 1.208 1.944 1.944 0 0 1-1.536.479 1.92 1.92 0 0 1-1.225-.64 1.76 1.76 0 0 1-.434-1.269c.03-.46.242-.892.593-1.208a1.943 1.943 0 0 1 1.297-.493Zm0-1.107c-.793 0-1.556.296-2.126.824a2.863 2.863 0 0 0-.927 2.006c-.025.759.26 1.497.794 2.058a3.114 3.114 0 0 0 2.07.949 3.148 3.148 0 0 0 2.176-.695 2.882 2.882 0 0 0 1.056-1.947 2.833 2.833 0 0 0-.658-2.101 3.094 3.094 0 0 0-2.385-1.094ZM58.672 57.167a1.92 1.92 0 0 1 1.463.654c.308.355.464.808.434 1.268a1.78 1.78 0 0 1-.592 1.209 1.944 1.944 0 0 1-1.536.479 1.921 1.921 0 0 1-1.225-.64 1.76 1.76 0 0 1-.434-1.27c.03-.46.242-.892.593-1.208a1.944 1.944 0 0 1 1.297-.492Zm0-1.107c-.794 0-1.556.295-2.126.824a2.863 2.863 0 0 0-.927 2.006c-.025.758.26 1.496.794 2.057a3.113 3.113 0 0 0 2.07.948 3.147 3.147 0 0 0 2.175-.695 2.881 2.881 0 0 0 1.057-1.946 2.832 2.832 0 0 0-.659-2.101 3.093 3.093 0 0 0-2.384-1.093Z" fill="#6DE2BB"/><path d="m57.581 36.195-1.449-.094c-.07.794-.387 1.6-.78 2.056l-.938-.393a3.567 3.567 0 0 0 .757-1.934c.069-.973-.472-1.67-1.29-1.722-.788-.051-1.316.451-1.817 1.438-.673 1.36-1.394 2.182-2.642 2.1-1.19-.078-2.036-.943-2.161-2.22l-1.449-.094.06-.85 1.392.09c.087-.82.356-1.367.628-1.75l.923.405a3.227 3.227 0 0 0-.611 1.696c-.075 1.055.556 1.496 1.13 1.533.746.048 1.155-.435 1.756-1.594.702-1.373 1.499-2.037 2.775-1.954 1.133.074 2.14.897 2.284 2.325l1.491.097-.059.865Z" fill="#6DE2BB"/><path d="M41.337 69.403h39.651s-6.254-4.766-3.865-21.518C79.513 31.134 88.629 15.735 80.309 0H41.337s3.541 5.499 3.422 15.313c-.12 9.814-3.955 18.805-6.373 29.724-3.422 15.454 2.95 24.366 2.95 24.366Z" fill="#1ED797"/><path d="M38.893 69.403h39.651s-6.254-4.766-3.865-21.518C77.07 31.134 86.186 15.735 77.866 0H38.893s3.54 5.499 3.422 15.313c-.118 9.815-3.954 18.805-6.373 29.724-3.422 15.454 2.951 24.366 2.951 24.366Z" fill="#44E5AD"/><path d="M69.433 4.688c.208.85.54 1.67.987 2.431.877 1.469 2.545 3.193 5.608 3.498.142.96.326 2.778.24 5.408-.079 2.39-.361 4.976-.841 7.682-.6 3.386-1.512 6.974-2.71 10.664-2.812 8.662-3.558 15.05-3.687 18.882-.087 2.558.077 4.36.226 5.406a8.355 8.355 0 0 0-1.8.86c-1.27.803-2.917 2.33-3.866 5.128H47.206a9.312 9.312 0 0 0-1.102-2.349c-.93-1.415-2.66-3.152-5.73-3.748a44.52 44.52 0 0 1-.23-3.823c-.046-2.499.093-6.241 1.015-9.883.261-1.029.605-2.308 1.003-3.789 2.366-8.802 6.244-23.229 5.107-30.578 1.609-.468 4.33-1.83 6.05-5.792h16.114v.003Zm.97-1.11h-17.88c-2.183 5.866-6.608 6.036-6.608 6.036 2.006 7.727-4.032 27.674-5.88 34.969-1.848 7.294-.708 14.928-.708 14.928 6.176.676 6.963 6.241 6.963 6.241h18.174c1.534-5.79 6.117-6.28 6.117-6.28s-2.126-8.23 3.245-24.77c5.37-16.54 3.186-25.142 3.186-25.142-6.078 0-6.609-5.978-6.609-5.978v-.003Z" fill="#B7F5E0"/><path d="M57.791 27.23c.194 0 .391.007.586.02 2.197.141 4.25 1.093 5.726 2.655 1.476 1.56 2.26 3.61 2.187 5.712-.074 2.104-1 4.098-2.581 5.561-1.582 1.464-3.697 2.283-5.899 2.284a8.83 8.83 0 0 1-.586-.02c-2.196-.141-4.25-1.093-5.726-2.654s-2.26-3.61-2.186-5.713c.073-2.104.998-4.097 2.58-5.56 1.582-1.464 3.697-2.283 5.899-2.285Zm0-1.107c-5.03 0-9.27 3.729-9.616 8.597-.362 5.082 3.654 9.482 8.97 9.827.223.014.445.021.665.021 5.03 0 9.27-3.728 9.616-8.596.362-5.082-3.655-9.482-8.971-9.827a10.305 10.305 0 0 0-.665-.021h.001ZM61.264 11.368a1.92 1.92 0 0 1 1.463.654c.308.355.463.809.434 1.269a1.78 1.78 0 0 1-.593 1.208 1.944 1.944 0 0 1-1.535.479 1.92 1.92 0 0 1-1.225-.64 1.76 1.76 0 0 1-.434-1.269c.03-.46.241-.892.592-1.208a1.943 1.943 0 0 1 1.297-.493Zm0-1.107c-.795 0-1.557.296-2.127.824a2.863 2.863 0 0 0-.928 2.006c-.024.759.26 1.497.795 2.058a3.113 3.113 0 0 0 2.07.949 3.147 3.147 0 0 0 2.176-.695 2.882 2.882 0 0 0 1.056-1.947 2.833 2.833 0 0 0-.658-2.101 3.093 3.093 0 0 0-2.385-1.094ZM54.747 57.167a1.92 1.92 0 0 1 1.463.654c.308.355.463.808.434 1.268a1.78 1.78 0 0 1-.593 1.209 1.944 1.944 0 0 1-1.535.479 1.921 1.921 0 0 1-1.225-.64 1.76 1.76 0 0 1-.434-1.27c.03-.46.241-.892.592-1.208a1.944 1.944 0 0 1 1.298-.492Zm0-1.107c-.794 0-1.557.295-2.127.824a2.863 2.863 0 0 0-.927 2.006c-.024.758.26 1.496.795 2.057a3.112 3.112 0 0 0 2.069.948 3.147 3.147 0 0 0 2.176-.695 2.882 2.882 0 0 0 1.056-1.946 2.833 2.833 0 0 0-.658-2.101 3.093 3.093 0 0 0-2.384-1.093Z" fill="#B7F5E0"/><path d="m63.655 36.195-1.449-.094c-.07.794-.388 1.6-.781 2.056l-.938-.393a3.567 3.567 0 0 0 .758-1.934c.069-.973-.472-1.67-1.29-1.722-.789-.051-1.316.451-1.817 1.438-.673 1.36-1.394 2.182-2.642 2.1-1.19-.078-2.036-.943-2.161-2.22l-1.449-.094.06-.85 1.392.09c.087-.82.356-1.367.628-1.75l.922.405a3.227 3.227 0 0 0-.61 1.696c-.075 1.055.556 1.496 1.13 1.533.746.048 1.154-.435 1.755-1.594.703-1.373 1.5-2.037 2.776-1.954 1.133.074 2.14.897 2.284 2.325l1.491.097-.06.865Z" fill="#B7F5E0"/><path d="m32.127 98.956-6.145-1.134s-.529-1.454.638-3.386c.068-.114.143-.223.225-.327 1.117-1.394 2.168.482 2.168.482s.912 1.74 2.462 2.644c.578.337.816.662.886.936.12.461-.234.785-.234.785Z" fill="#8978F7"/><path d="m32.127 98.956-6.145-1.134s-.529-1.454.638-3.386c.068-.113.143-.223.225-.327l1.072.956s-.543 2.228 2.138 2.7l2.307.406c.12.461-.236.785-.236.785Z" fill="#634DF4"/><path d="M40.803 99.904h-6.76s-.872-1.44-.048-3.717c.069-.196.159-.384.269-.562.894-1.398 2.302.259 2.302.259s1.34 1.668 3.178 2.323c.676.24.998.534 1.135.81.235.471-.076.887-.076.887Z" fill="#8978F7"/><path d="M40.803 99.904h-6.76s-.872-1.44-.048-3.717c.069-.196.159-.384.269-.562l1.11.457s-1.084 4.019 5.507 2.934c.233.472-.078.888-.078.888Z" fill="#634DF4"/><path d="M26.345 81.909C19.39 85.785 3.7 86.57.4 74.022c-.046-.175-.09-.353-.13-.533-1.944-8.515 7.227-12.925 7.352-20.192.125-7.267 3.857-13.633 11.453-12.252 7.945 1.445 8.137 5.169 8.137 5.169l.076.506 3.526 23.434s2.58 7.823-4.47 11.755Z" fill="#A39CD3"/><path d="M26.344 81.909C19.39 85.785 3.701 86.57.401 74.022c5.116 11.017 20.992 3.22 17.066-2.887-2.859-4.448-5.527-7.926 1.995-7.193 5.644.55-.935-10.882.061-14.515.997-3.633 4.758-3.88 4.758-3.88l3.008 1.172 3.525 23.434s2.581 7.824-4.47 11.756Z" fill="#7267BB"/><path d="M32.858 83.079s-.915 3.713-2.044 7.28c-.571 1.8-1.196 3.565-1.785 4.794a.782.782 0 0 1-.369.364.835.835 0 0 1-.526.064l-.94-.19a.806.806 0 0 1-.485-.299.741.741 0 0 1-.149-.532c.265-2.389 1.13-10.537 1.357-17.247.06-1.827.076-3.547.017-5.016 4.364 1.43 4.924 10.782 4.924 10.782Z" fill="#2B2F54"/><path d="M30.814 90.355c.108-4.421-1.983-10.576-2.897-13.041.061-1.828.076-3.548.017-5.016 4.364 1.429 4.924 10.78 4.924 10.78s-.915 3.714-2.044 7.28v-.003Z" fill="#14182D"/><path d="M36.873 95.708a.737.737 0 0 1-.222.564.832.832 0 0 1-.58.236h-1.424a.822.822 0 0 1-.566-.222.75.75 0 0 1-.237-.539c-.015-2.262-.362-9.231-3.79-16.421-1.615-3.388-2.894-6-3.79-8.191-1.422-3.473-1.882-5.89-1.193-8.666 1.122-4.526 8.162-1.07 8.162-1.07s.313 1.046.735 3.016c.607 2.846 1.439 7.622 1.882 13.957.602 8.65.922 15.148 1.023 17.336Z" fill="#2B2F54"/><path d="M33.966 64.415c-.837.173-2.511-1.216-4.832.378-2.464 1.692-2.871 6.342-2.871 6.342-1.421-3.473-1.881-5.89-1.193-8.665 1.122-4.526 8.163-1.072 8.163-1.072s.312 1.047.733 3.017Z" fill="#14182D"/><path d="m13.074 59.612.101-.575c-.389-.075-.76-.245-.96-.423l.267-.53c.264.213.582.357.922.416.39.064.69-.078.74-.362.047-.267-.14-.474-.57-.707-.613-.33-.985-.684-.887-1.236.09-.51.532-.842 1.178-.847l.102-.581.51.082-.098.55c.297.051.578.165.822.334l-.264.519c-.137-.09-.386-.27-.808-.338-.435-.07-.628.118-.664.32-.04.244.157.416.649.703.651.362.904.732.811 1.26-.089.504-.534.89-1.235.887l-.108.611-.508-.083Z" fill="#F9D679"/><path d="M11.302 61.022a4.651 4.651 0 0 1-1.856-1.975 4.392 4.392 0 0 1-.394-2.628 4.493 4.493 0 0 1 1.2-2.395 4.832 4.832 0 0 1 2.389-1.354 4.993 4.993 0 0 1 2.773.143 4.77 4.77 0 0 1 2.223 1.591c.56.73.881 1.6.923 2.504a4.417 4.417 0 0 1-.687 2.573 4.78 4.78 0 0 1-2.952 2.07 4.98 4.98 0 0 1-3.62-.529Zm4.594-7.248a4.23 4.23 0 0 0-2.296-.56 4.203 4.203 0 0 0-2.235.752 3.923 3.923 0 0 0-1.42 1.813 3.738 3.738 0 0 0-.128 2.262 3.87 3.87 0 0 0 1.209 1.948c.595.521 1.34.862 2.137.978a4.25 4.25 0 0 0 2.346-.322 4.025 4.025 0 0 0 1.763-1.513c.56-.886.728-1.947.47-2.95a3.924 3.924 0 0 0-1.846-2.408Z" fill="#F9D679"/><path d="M29.525 46.031c0 .298-1.589.983-1.589.983l-1.293-1.43s-.136-1.173-.224-2.115c-.049-.518-.083-.965-.072-1.11.032-.407 2.337.695 2.337.695s.731 2.33.83 2.886c.006.03.01.06.01.091Z" fill="#FCA69D"/><path d="m29.514 45.94-.38.091s-.743-1.535-2.715-2.562c-.049-.518-.083-.965-.072-1.11.032-.407 2.337.695 2.337.695s.73 2.33.83 2.886Z" fill="#E57673"/><path d="M31.114 43.947c-1.152.506-4.019-1.1-4.019-1.1a.898.898 0 0 1-.343.067c-.261.004-.633-.094-.976-.554a7.551 7.551 0 0 1-.923-1.658l.31-.954 3.335-1.965 2.617 1.161s.191.747.34 1.666c.215 1.336.342 3.036-.341 3.337Z" fill="#FCA69D"/><path d="M31.453 40.609c-1.084.471-3.548-1.08-4.062-.728-.4.276-.412 1.445-.412 1.445s-1.16-.643-1.192.223c-.033.853.933 1.348.965 1.364-.262.003-.634-.094-.976-.555a7.55 7.55 0 0 1-.924-1.658l.311-.953 3.334-1.965 2.617 1.16s.19.748.34 1.667Z" fill="#EA847D"/><path d="M35.247 37.593c-2.825 3.695-7.686.993-8.267 1.628-.582.635 0 2.105 0 2.105s-.706-.873-1.329-.596c-.623.278.123 1.628.123 1.628a11.668 11.668 0 0 1-1.091-1.05c-.497-.55-.963-1.208-.902-1.69.123-.993 1.205-.914 1.205-.914s-.582-1.112-.25-2.224c.333-1.111 5.484-.753 5.484-.753s-4.819-3.97 0-5.717c1.206-.438 2.3-.412 3.218-.07 2.752 1.023 3.927 4.885 1.809 7.653Z" fill="#6A3442"/><path d="M34.852 62.887c-.329.36-1.657-.744-3.903-.737a7.44 7.44 0 0 0-2.453.44c-3.739 1.31-5.265.356-4.235-3.693.23-.904-.006-1.976-.404-3.126-1.386-4.007-4.746-8.97 2.682-11.13 0 0 1.647 1.599 2.862.826 1.465.327 3.583 2.472 3.646 4.377.02.63 0 1.45-.007 2.363-.009 1.12 0 2.379.13 3.586.085.797.221 1.572.438 2.271.806 2.62 1.68 4.347 1.244 4.823Z" fill="#8978F7"/><path d="M30.949 62.15a7.436 7.436 0 0 0-2.453.44c-3.739 1.31-5.265.357-4.235-3.693.23-.904-.006-1.976-.404-3.126l3.993-6.344s.5 3.334 1.665 3.87c1.164.537 3.31.856 3.525-1.09-.009 1.12 0 2.378.13 3.585l-4.741 2.442s-2.609 3.894 2.52 3.916Z" fill="#634DF4"/><path d="M41.856 59.213c-.557.127-1.34.124-2.165.14-2.16.039-1.662 3.255-2.534 2.064-.872-1.19 0-3.375-.284-4.048s-.421-2.026-.421-2.026c-.453-2.908-1.537-3.176-4.279-4.784-2.742-1.608-5.484-1.906-8.396-4.7.763-1.424 2.76-1.218 2.76-1.218s3.082 2.402 5.09 3.078c4.081 1.372 5.905 4.963 6.985 6.741 1.08 1.779 1.703.088 3.406 2.51 1.052 1.498.74 2.04-.162 2.243Z" fill="#A39CD3"/><path d="M41.856 59.213c-.557.127-1.34.124-2.165.14-2.16.039-1.662 3.255-2.534 2.064-.872-1.19 0-3.375-.284-4.048s-.421-2.026-.421-2.026c-.453-2.908-1.537-3.176-4.279-4.784-2.742-1.608-5.484-1.906-8.396-4.7.763-1.424 2.76-1.218 2.76-1.218s-.636.636 1.399 2.373 3.904 2.213 5.233 2.968c1.33.755 3.532 2.705 3.783 4.288.251 1.584 1.088 5.32 4.904 4.943Z" fill="#7267BB"/><path d="M39.348 54.685c-.017.271-.116.511-.32.638-.664.417-1.952.278-1.952.278l-.123-1.14c.165-.224.351-.435.555-.629.292-.275.658-.533 1.002-.533.503-.002.877.772.838 1.386Z" fill="#FCA69D"/><path d="M39.348 54.685c-.017.271-.116.511-.32.638-.664.417-1.952.278-1.952.278l-.123-1.14c.165-.224.351-.435.555-.629.026.369.16 1.38.867 1.328.863-.064.973-.474.973-.474Z" fill="#EA847D"/><path d="M24.51 45.426s2.967.148 3.425 4.637l.458 4.487s3.281-.68 5.192-.658c1.18.016 2.359.09 3.531.221 0 0 .76 1.549-.243 1.986-1.003.436-8.148 2.738-10.806 1.983-2.658-.754-9.304-10.977-1.557-12.656Z" fill="#8978F7"/><path d="M35.247 37.593c-2.825 3.695-7.686.993-8.267 1.628-.582.635 0 2.105 0 2.105s-.706-.873-1.33-.596c-.622.278.124 1.628.124 1.628a11.657 11.657 0 0 1-1.091-1.05c-.427-1.328 1.34-1.49 1.34-1.49s-.789-1.231 0-1.866c.79-.636 5.525 1.31 7.686-1.39 2.16-2.7-.27-6.622-.27-6.622 2.75 1.023 3.926 4.885 1.808 7.653Z" fill="#3D2042"/><path d="M95.273 41.858h-39.7c-.954 0-1.727.74-1.727 1.651v37.95c0 .91.773 1.65 1.727 1.65h39.7c.954 0 1.727-.74 1.727-1.65v-37.95c0-.912-.773-1.65-1.727-1.65Z" fill="#8978F7"/><path d="M89.036 78.762H61.809a3.502 3.502 0 0 1-2.414-.958c-.641-.612-1.001-1.443-1.002-2.308V49.47a3.199 3.199 0 0 1 1.002-2.308 3.502 3.502 0 0 1 2.414-.958h27.227a3.503 3.503 0 0 1 2.415.958c.64.612 1 1.442 1.002 2.308v26.026a3.199 3.199 0 0 1-1.002 2.307 3.502 3.502 0 0 1-2.415.958ZM61.809 46.899c-.713.001-1.396.272-1.9.754a2.517 2.517 0 0 0-.79 1.818v26.025c.001.682.285 1.335.79 1.817a2.757 2.757 0 0 0 1.9.754h27.227c.713 0 1.397-.272 1.901-.754a2.518 2.518 0 0 0 .789-1.817V49.47c0-.681-.284-1.335-.789-1.817a2.757 2.757 0 0 0-1.901-.754H61.809Z" fill="#E1EAFF"/><path d="M89.172 83.109H61.674v3.195h27.498v-3.195Z" fill="#8978F7"/><path d="M93.167 51.183h-2.156a.444.444 0 0 0-.453.434v7.615c0 .24.203.434.453.434h2.156c.25 0 .454-.194.454-.434v-7.615a.444.444 0 0 0-.454-.434ZM93.167 65.301h-2.156a.444.444 0 0 0-.453.434v7.615c0 .24.203.434.453.434h2.156c.25 0 .454-.194.454-.434v-7.615a.444.444 0 0 0-.454-.434Z" fill="#E1EAFF"/><path d="M80.653 69.121c3.836 0 6.944-2.971 6.944-6.637 0-3.666-3.108-6.638-6.944-6.638-3.835 0-6.944 2.972-6.944 6.638s3.11 6.637 6.944 6.637Z" stroke="#E1EAFF" stroke-width="10" stroke-miterlimit="10"/><path d="M80.653 68.063c3.224 0 5.837-2.498 5.837-5.58 0-3.081-2.613-5.58-5.837-5.58-3.224 0-5.837 2.499-5.837 5.58 0 3.082 2.614 5.58 5.837 5.58Z" fill="#E1EAFF"/><path d="M80.654 64.906c1.4 0 2.534-1.084 2.534-2.422s-1.135-2.423-2.534-2.423c-1.4 0-2.535 1.085-2.535 2.423s1.135 2.422 2.535 2.422Z" fill="#507EFF"/><path d="M80.653 56.904v.637M78.657 57.24l.228.599M76.902 58.21l.428.487M75.599 59.694l.576.318M74.905 61.515l.656.11M74.905 63.453l.656-.11M75.599 65.274l.576-.319M76.902 66.758l.428-.488M78.657 67.727l.228-.599M80.653 68.064v-.637M82.65 67.727l-.228-.599M84.406 66.758l-.428-.488M85.709 65.274l-.577-.319M86.402 63.453l-.655-.11M86.402 61.515l-.655.11M85.709 59.694l-.577.318M74.406 58.21l-.428.487M82.65 57.24l-.228.599" stroke="#507EFF" stroke-width="2" stroke-miterlimit="10"/><path d="M80.654 59.18c.233 0 .422-.18.422-.404a.414.414 0 0 0-.422-.404.413.413 0 0 0-.423.404c0 .223.19.404.423.404Z" fill="#507EFF"/><path d="M65.76 62.484c2.142 0 3.878-1.66 3.878-3.708s-1.736-3.707-3.878-3.707c-2.143 0-3.879 1.66-3.879 3.707 0 2.048 1.736 3.708 3.879 3.708Z" stroke="#E1EAFF" stroke-width="10" stroke-miterlimit="10"/><path d="m67.42 55.425-1.66 3.351-3.879.404M65.76 58.776l2.48 2.85" stroke="#E1EAFF" stroke-width="10" stroke-miterlimit="10"/><path d="M65.76 59.853c.622 0 1.126-.482 1.126-1.077S66.382 57.7 65.76 57.7c-.622 0-1.127.482-1.127 1.077s.505 1.077 1.127 1.077Z" fill="#E1EAFF"/><path d="M89.172 83.109v2.57l-27.498-1.881v-.69h27.498Z" fill="#634DF4"/></svg>