<svg width="18" height="18" fill="none" xmlns="http://www.w3.org/2000/svg"><path fill-rule="evenodd" clip-rule="evenodd" d="M0 9c0-4.969 4.031-9 9-9s9 4.031 9 9-4.031 9-9 9-9-4.031-9-9Zm16.615 0A7.618 7.618 0 0 0 9 1.385 7.618 7.618 0 0 0 1.385 9 7.618 7.618 0 0 0 9 16.615 7.618 7.618 0 0 0 16.615 9Z" fill="#6D60CA"/><path d="M12.624 5.093a.692.692 0 0 1 1.07.879l-.01.012-5.815 6.923a.692.692 0 0 1-1.035.029l-.01-.011-2.492-2.77a.692.692 0 0 1 1.018-.937l.01.011 1.96 2.178 5.304-6.314Z" fill="#6D60CA"/></svg>