<svg aria-hidden="true" style="position:absolute;width:0;height:0" xmlns="http://www.w3.org/2000/svg" overflow="hidden"><defs><symbol id="icon-logo" viewBox="0 0 151 32"><path fill="var(--color1, #fff)" d="M8.626 17.848L5.31 21.216v4.689H2.72V7.772h2.59v10.129l9.844-10.129h2.953l-7.746 8.16 8.238 9.973h-3.031l-6.942-8.056zm22.832 8.264c-1.83 0-3.48-.396-4.948-1.192a9.164 9.164 0 01-3.448-3.301l-.023-.041c-.829-1.417-1.243-2.996-1.243-4.741s.414-3.325 1.243-4.741a8.978 8.978 0 013.424-3.293l.047-.023c1.467-.812 3.118-1.218 4.948-1.218 1.813 0 3.454.405 4.922 1.218a8.787 8.787 0 013.423 3.275l.022.041c.829 1.399 1.243 2.979 1.243 4.741s-.414 3.351-1.243 4.766a9.028 9.028 0 01-3.397 3.292l-.046.023c-1.469.794-3.109 1.192-4.922 1.192zm0-2.306c1.33 0 2.522-.302 3.575-.907a6.615 6.615 0 002.497-2.455l.017-.032a6.908 6.908 0 00.932-3.486l-.001-.093v.005c0-1.312-.311-2.496-.933-3.549a6.563 6.563 0 00-2.48-2.496l-.032-.017c-1.053-.605-2.245-.907-3.575-.907s-2.539.302-3.627.907a6.74 6.74 0 00-2.521 2.481l-.017.032c-.605 1.053-.907 2.237-.907 3.549s.302 2.504.907 3.575a6.8 6.8 0 002.505 2.469l.034.017c1.088.605 2.296.907 3.627.907zm15.094-6.087h6.968v2.15h-6.968v-2.15z"/><path fill="var(--color2, #48e3ae)" d="M65.173 12.382v3.109h7.563v4.611h-7.563v5.803h-6.115V7.772h14.741v4.611h-8.626zm13.148-4.611h6.114v18.133h-6.114V7.771zm18.407 18.548a19.74 19.74 0 01-4.404-.492c-1.417-.346-2.581-.803-3.497-1.373l1.969-4.456c.833.486 1.796.901 2.81 1.195l.091.023c.922.271 1.982.431 3.078.44h.005c.847 0 1.451-.078 1.813-.233.363-.172.544-.424.544-.751 0-.381-.241-.664-.725-.855-.466-.19-1.243-.396-2.331-.622-1.399-.294-2.565-.605-3.497-.933a6.166 6.166 0 01-2.43-1.652l-.005-.006c-.69-.777-1.036-1.822-1.036-3.134 0-1.14.32-2.176.96-3.109.638-.933 1.588-1.667 2.85-2.202 1.277-.535 2.822-.803 4.635-.803 1.243 0 2.461.137 3.653.414 1.21.259 2.27.648 3.186 1.166l-1.839 4.43c-1.778-.899-3.462-1.347-5.051-1.347-1.571 0-2.357.381-2.357 1.14 0 .363.233.64.701.829.465.172 1.234.363 2.304.57 1.382.259 2.548.561 3.497.907a5.892 5.892 0 012.456 1.627l.005.005c.709.76 1.062 1.797 1.062 3.109v.044a5.355 5.355 0 01-.97 3.082l.011-.017c-.64.914-1.597 1.649-2.875 2.202-1.26.535-2.798.803-4.611.803zm22.233 0c-1.917 0-3.643-.396-5.181-1.192a9.294 9.294 0 01-3.604-3.328l-.023-.039c-.864-1.451-1.295-3.092-1.295-4.922s.431-3.462 1.295-4.896a9.054 9.054 0 013.576-3.344l.05-.024c1.538-.812 3.264-1.218 5.181-1.218 1.762 0 3.333.311 4.715.933a8.798 8.798 0 013.404 2.674l.015.021-3.86 3.445c-1.123-1.417-2.444-2.124-3.962-2.124-1.28 0-2.307.414-3.084 1.243-.777.812-1.166 1.908-1.166 3.29s.389 2.487 1.166 3.316c.777.812 1.804 1.218 3.083 1.218 1.519 0 2.84-.709 3.963-2.124l3.86 3.445a8.805 8.805 0 01-3.364 2.672l-.055.022c-1.382.622-2.953.933-4.715.933zm30.365-18.548v18.133h-6.115v-6.683h-5.647v6.683h-6.112V7.771h6.112v6.424h5.649V7.771h6.112z"/></symbol><symbol id="icon-fin" viewBox="0 0 29 32"><path fill="var(--color3, #ffb7a8)" d="M21.945 12.202c-.126.029-.27.045-.419.045h-.022.001c-1.029-.006-1.221-.013-1.221-.013v-.549s.421-.458.806-.657a.624.624 0 01.341-.088c.407.05-.103.358-.126.372.039-.011 1.25-.365 1.488-.075.203.247-.122.801-.848.963z"/><path fill="var(--color4, #ea847d)" d="M21.944 12.202c-.126.029-.27.045-.419.045h-.022.001c-1.029-.006-1.221-.013-1.221-.013v-.549s.421-.458.806-.656c0 0-.697 1.082.855 1.172z"/><path fill="var(--color5, #f9d679)" d="M21.063 27.121c4.504 0 8.155-3.482 8.155-7.777s-3.651-7.777-8.155-7.777-8.155 3.482-8.155 7.777 3.651 7.777 8.155 7.777z"/><path fill="var(--color6, #ffba52)" d="M22.066 22.67l-.3-.722c-.498.171-1.046.223-1.401.15l-.08-.779a2.762 2.762 0 001.373-.139l-.019.006c.492-.186.731-.544.583-.901-.139-.335-.503-.448-1.164-.43-.937.027-1.616-.129-1.904-.822-.265-.64 0-1.307.73-1.741l-.303-.729.64-.242.288.692c.498-.171.88-.187 1.179-.162l.074.765c-.221-.011-.636-.052-1.167.149-.546.207-.63.548-.525.801.127.305.479.37 1.248.372 1.004-.017 1.562.237 1.837.899.263.633.034 1.365-.768 1.824l.319.767-.64.242z"/><path fill="var(--color6, #ffba52)" d="M21.064 25.441c-3.518 0-6.381-2.73-6.381-6.085s2.861-6.083 6.381-6.083 6.381 2.73 6.381 6.085-2.863 6.083-6.381 6.083zm0-11.276c-1.077 0-2.129.304-3.024.875s-1.593 1.381-2.005 2.33a5.003 5.003 0 00-.304 3.032l-.006-.033c.21 1.007.728 1.932 1.49 2.658s1.731 1.221 2.787 1.421a5.675 5.675 0 003.184-.309l-.038.014a5.392 5.392 0 002.443-1.912 4.98 4.98 0 00.917-2.884c-.002-1.376-.576-2.695-1.597-3.668s-2.404-1.52-3.847-1.522v-.002z"/><path fill="var(--color7, #6d3842)" d="M3.93 31.654c.049.325-3.847-.562-3.847-.562s-.265-.535.152-1.405c.164-.341.513-.307.834-.178.245.106.473.242.681.405 0 0 1.504.999 2.012 1.511.099.097.16.177.168.229zm5.287.195s-.351-.489-.077-1.41a.432.432 0 01.351-.324c.463-.094 1.182.324 1.182.324s1.595.742 2.205 1.176c.127.091.211.168.229.222.101.313-3.89.013-3.89.013z"/><path fill="var(--color8, #3d2042)" d="M9.217 31.849s-.351-.489-.077-1.41a.432.432 0 01.351-.324l.141.179s.919 1.754 3.246 1.32c.127.091.211.169.229.223.101.313-3.89.013-3.89.013z"/><path fill="var(--color9, #2b2f54)" d="M6.373 24.763c-.179.433-.369.8-.587 1.148l.019-.032c-1.541 2.519-4.359 4.306-4.359 4.306l-1.251-.597s3.696-3.633 3.468-7.645c-.12-2.131-.257-4.201-.359-5.674a171.21 171.21 0 00-.211-3.066l.058.932 4.094 4.392s.379 3.144-.872 6.235z"/><path fill="var(--color10, #14182d)" d="M6.373 24.763c-.179.433-.369.8-.587 1.148l.019-.032s.114-3.358-.341-5.525c-.351-1.671-1.603-3.384-2.16-4.083-.088-1.3-.152-2.134-.152-2.134l4.094 4.392s.379 3.143-.872 6.233z"/><path fill="var(--color9, #2b2f54)" d="M10.671 30.438H9.14s.438-6.036-.758-8.821c-1.288-3-5.496-5.133-5.344-8.061.065-1.261.545-2.045 1.07-2.53.695-.642 1.47-.759 1.47-.759l2.919 2.928s.43.521.994 1.533a19.198 19.198 0 011.584 3.712l.038.141c1.44 4.699-.44 11.857-.44 11.857z"/><path fill="var(--color10, #14182d)" d="M9.328 14.445c-2.734.003-3.303-1.49-3.657-2.407s-1.565-1.012-1.565-1.012c.696-.642 1.47-.759 1.47-.759l2.919 2.928s.269.238.833 1.25z"/><path fill="var(--color3, #ffb7a8)" d="M15.426 5.737l-1.307.787s-.96-.921-.448-1.481c.015-.022.326-.181.638-.338l.309-.141c.183-.09.246-.117.246-.117s.96-.011.562 1.29z"/><path fill="var(--color4, #ea847d)" d="M15.426 5.737l-1.138.686c.011-.028.437-1.049.33-1.858.183-.09.246-.117.246-.117s.96-.012.562 1.289z"/><path fill="var(--color3, #ffb7a8)" d="M18.811 4.535a2.906 2.906 0 01-.297.959l.008-.016c-.275.25-.563.485-.866.705-.523.379-1.176.759-1.636.723-.89-.072-1.156-2.458-1.156-2.458-.027-.009-.531-.171-.354-.702.114-.337.341-.669.496-.871.094-.123.162-.198.162-.198l2.273-.217c.226.091.437.214.626.364.405.318.839.865.744 1.711z"/><path fill="var(--color7, #6d3842)" d="M20.739 5.785c-3.943 1.302-3.032-2.783-3.298-2.94s-1.82 1.133-1.82 1.133c-.417-1.049-1.113-.232-1.113-.232s-.595-1.572.163-2.44c.758-.867 1.935-.256 1.935-.256s-.303-.976.985-1.048c1.289-.072 1.554 2.639 1.554 2.639s1.44-2.603 3.221-2.35c.526.074.943.471 1.168 1.026.537 1.325-.02 3.552-2.798 4.469z"/><path fill="var(--color11, #8978f7)" d="M14.666 7.313c-.235.878-1.099 1.982-2.247 2.554-1.705.849-2.72 2.142-2.956 3.055-.322 1.247-1.971.434-2.559-.578a3.002 3.002 0 00-.644-.747l-.005-.004-.004-.003c-.583-.499-1.23-.81-1.299-1.235-.183-1.127 2.432-2.254 3.001-3.03s2.491-2.311 3.538-2.644c1.08-.343 2.299-.193 2.382.256 0 0-.034.635.649 1.343.223.233.258.604.144 1.033z"/><path fill="var(--color12, #614bf4)" d="M14.665 7.315c-.235.878-1.099 1.982-2.246 2.554-1.706.849-2.721 2.142-2.957 3.055-.322 1.247-1.971.434-2.559-.578a3.002 3.002 0 00-.644-.747l-.005-.004c1.208 1.012 3.494-.334 4.099-2.159.31-.938.333-2.334.333-2.334s.84-.498 3.09.064c.356 1.371.864.206.889.149z"/><path fill="var(--color11, #8978f7)" d="M20.436 12.389c-.33.039-.654.073-.97.102l-.388.032-.056.004c-2.745.206-4.834-.027-5.789-.669-1.112-.747-4.051-5.746-1.63-6.371 1.391-.359 2.122.551 2.312 2.612s3.071 2.639 4.701 2.819c.625.069 1.056.127 1.348.174.47.074.585.115.585.115s.342.723-.114 1.181z"/><path fill="var(--color8, #3d2042)" d="M20.739 5.785c-3.943 1.302-3.032-2.783-3.297-2.94s-1.82 1.133-1.82 1.133c-.417-1.049-1.113-.232-1.113-.232s.032-.871.545-.979c.512-.108.619.561.619.561s1.295-1.32 1.863-1.446c.569-.127.944.689 1.023 1.392.133 1.175 1.213 2.458 3.449 1.175 2.211-1.267 1.545-3.087 1.529-3.13.536 1.324-.021 3.551-2.798 4.468z"/></symbol><symbol id="icon-fond" viewBox="0 0 24 32"><path fill="var(--color13, #82eec8)" d="M21.15 10.086C21.15 4.516 16.416 0 10.575 0S0 4.516 0 10.086c0 3.652 2.035 6.851 5.083 8.621 0 0 1.212.745 1.212 4.267h8.56c0-3.522 1.212-4.267 1.212-4.267 3.048-1.77 5.083-4.968 5.083-8.621z"/><path fill="var(--color1, #fff)" d="M12.216 23.338H9.482l-.018-.185c-.004-.04-.393-4.037-.749-6.224a25.02 25.02 0 00-.936-3.803 3.603 3.603 0 01-.899-.38l.017.009c-.68-.393-1.077-.945-1.061-1.476.008-.274.139-.501.35-.608.126-.064.389-.139.746.071.423.25.829 1.058 1.18 2.04.901.161 1.754-.183 2.411-.999-.628-.841-.964-1.975-1.004-2.8-.034-.703.146-1.156.508-1.274.395-.129.764-.014 1.038.326.658.812.647 2.728-.005 3.729.312.354.682.617 1.103.715.246.061.529.096.82.099h.002c.526-1.425 1.21-1.992 1.772-2.01l.039-.001c.158 0 .305.051.424.137l-.002-.001a.655.655 0 01.258.386c.091.368-.095.823-.485 1.187-.431.405-1.026.643-1.696.697-.15.46-.288 1.016-.403 1.685-.713 4.143-.679 8.432-.678 8.475l.002.205zm-2.343-.407h1.911c.003-.908.056-4.68.684-8.339.09-.544.217-1.082.378-1.611a4.258 4.258 0 01-.787-.107c-.492-.114-.913-.393-1.264-.764-.696.818-1.594 1.198-2.539 1.103.416 1.28.735 2.745.883 3.654.313 1.928.652 5.248.733 6.064zm-3.401-11.92h-.004a.182.182 0 00-.081.019h.001c-.074.037-.12.135-.123.261-.009.296.211.745.856 1.117.154.09.316.168.483.233-.305-.801-.621-1.388-.9-1.553a.477.477 0 00-.231-.076zm8.311-.037h-.013c-.321.01-.859.392-1.323 1.573.492-.07.922-.261 1.241-.56.28-.263.425-.579.369-.806a.252.252 0 00-.095-.151h-.001a.274.274 0 00-.166-.055h-.011.001-.001zm-4.451-2.91a.535.535 0 00-.168.03c-.123.04-.246.33-.219.871.035.723.33 1.694.836 2.438.505-.943.418-2.533-.058-3.121-.139-.17-.275-.218-.391-.218z"/><path fill="var(--color14, #44e5ad)" d="M15.862 23.819v.132c0 .224-.094.439-.261.598s-.394.248-.63.248H6.175a.912.912 0 01-.571-.199l.002.001a.834.834 0 01-.304-.495l-.001-.005a.749.749 0 01-.014-.147v-.134c0-.224.094-.439.261-.598s.394-.248.63-.248h8.793c.236 0 .463.089.63.248s.261.374.261.598z"/><path fill="var(--color15, #35d69e)" d="M15.862 23.819v.132c0 .224-.094.439-.261.598s-.394.248-.631.248H6.162a.915.915 0 01-.572-.199l.002.001a.84.84 0 01-.305-.495l-.001-.005h7.948c.236 0 .463-.089.63-.248s.261-.374.261-.598v-.131c0-.05-.004-.1-.014-.149h.859c.236 0 .463.089.63.248s.261.373.261.597z"/><path fill="var(--color14, #44e5ad)" d="M15.133 25.642v.132c0 .466-.344.846-.768.846h-7.58c-.378 0-.692-.301-.756-.697a.826.826 0 01-.012-.145v-.135c0-.466.344-.846.768-.846h7.58c.424 0 .768.379.768.846z"/><path fill="var(--color15, #35d69e)" d="M15.133 25.642v.132c0 .466-.344.846-.769.846h-7.59c-.379 0-.693-.301-.757-.697h6.851c.424 0 .769-.378.769-.845v-.133a.862.862 0 00-.013-.153l.001.005h.74c.425 0 .769.379.769.846z"/><path fill="var(--color14, #44e5ad)" d="M13.857 27.381v.119a.73.73 0 01-.235.538.811.811 0 01-.255.163l-.005.002a.85.85 0 01-.308.058H8.282a.838.838 0 01-.517-.177.755.755 0 01-.275-.445l-.001-.005a.69.69 0 01-.013-.133v-.119a.73.73 0 01.236-.538.847.847 0 01.569-.223h4.772c.213 0 .418.08.568.223s.236.336.236.538zm-2.188 1.641v.118a.747.747 0 01-.233.538.83.83 0 01-.563.223h-.596a.817.817 0 01-.539-.201.745.745 0 01-.257-.56v-.119a.747.747 0 01.233-.538.808.808 0 01.563-.223h.596a.812.812 0 01.59.25.74.74 0 01.206.511z"/><path fill="var(--color16, #f9d67b)" opacity=".2" d="M10.666 15.498c5.085 0 9.208-3.428 9.208-7.658S15.752.182 10.666.182 1.458 3.61 1.458 7.84c0 4.229 4.122 7.658 9.208 7.658z"/><path fill="var(--color16, #f9d67b)" opacity=".3" d="M10.666 9.299c3.776 0 6.837-1.959 6.837-4.376S14.442.547 10.666.547 3.829 2.506 3.829 4.923s3.061 4.376 6.838 4.376z"/><path fill="var(--color15, #35d69e)" d="M13.857 27.438v.111a.646.646 0 01-.061.272.729.729 0 01-.174.23l-.001.001a.816.816 0 01-.256.152l-.006.002a.892.892 0 01-.308.054H8.264a.87.87 0 01-.515-.168l.002.002a.697.697 0 01-.276-.421h5.248a.701.701 0 00.691-.711v-.111c0-.017 0-.034-.002-.05.134.059.246.15.325.262s.12.242.12.374z"/><path fill="var(--color15, #35d69e)" d="M11.669 29.019v.119c0 .1-.021.2-.061.292a.786.786 0 01-.172.248.808.808 0 01-.564.223h-.597a.818.818 0 01-.54-.202.745.745 0 01-.254-.495v-.003h.584c.235 0 .46-.089.626-.248s.26-.375.26-.6v-.094c.197.019.379.107.511.247s.206.322.207.512z"/><path fill="var(--color17, #fca69d)" d="M5.684 17.794c-.23.234-1.024.304-1.429.123-.17-.076-.27-.197-.233-.368.126-.582.589-.095.904-.236s-.41-.02-.2-.211c.088-.079.239-.072.385-.036.154.041.288.095.414.162l-.011-.005s.368.17.169.572z"/><path fill="var(--color4, #ea847d)" d="M5.684 17.794c-.23.234-1.024.304-1.428.123.375.103.818-.024.892-.313a.887.887 0 00-.038-.544l.002.006c.154.041.288.095.414.162l-.011-.005s.368.171.168.573z"/><path fill="var(--color11, #8978f7)" d="M10.757 12.787v2.753s0 1.043-1.227 1.538c-.386.156-1.254.441-2.126.635-.63.141-1.263.233-1.716.194-.407-.08-.336-.696-.336-.696s0-.307 1.206-.522c1.206-.214 2.174-.562 2.903-2.287s1.297-1.616 1.297-1.616z"/><path fill="var(--color12, #614bf4)" d="M10.757 12.787v2.753s0 1.043-1.227 1.538c-.386.156-1.254.441-2.126.635.609-.234 1.427-.332 2.056-1.284.515-.782.14-1.478.463-2.441s.834-1.202.834-1.202z"/><path fill="var(--color11, #8978f7)" d="M10.489 30.8l-.417.097-.158-.398-.135.452s-1.003.237-1.387.161c-.161-.031-.145-.109-.046-.204.136-.132.43-.299.633-.43.35-.226.8-.484.8-.484l.552-.05s.259.459.158.857z"/><path fill="var(--color12, #614bf4)" d="M10.489 30.8l-.417.097-.158-.398-.135.452s-1.003.237-1.387.161c-.161-.031-.145-.109-.046-.204-.132.202.35.153 1.046-.148s.594-.689.594-.689l-.021-.094.367-.033s.259.458.158.856z"/><path fill="var(--color11, #8978f7)" d="M14.814 31.887c-.4.13-1.305-.401-1.305-.401v-.522l-.157.391-.253-.17c-.084-.331.168-.782.168-.782a.458.458 0 01.26-.051.88.88 0 01.36.121s.263.391.673.682c.246.175.432.357.455.503.014.097-.043.177-.202.229z"/><path fill="var(--color12, #614bf4)" d="M14.814 31.887c-.4.13-1.305-.401-1.305-.401v-.522l-.157.391-.253-.17c-.084-.331.168-.782.168-.782a.458.458 0 01.26-.051l.077.214s-.023.54.511.936c.508.376.866.377.9.155.015.097-.043.177-.202.229z"/><path fill="var(--color9, #2b2f54)" d="M12.3 20.944s-.545 2.818-1.048 5.343c-.344 1.732-.669 3.325-.783 3.775-.224.264-.761 0-.761 0s-.249-1.083-.249-5.477c0-3.296.319-4.915.479-5.518.025-.098.054-.194.089-.289h2.04l.232 2.166z"/><path fill="var(--color10, #14182d)" d="M12.3 20.944s-.545 2.818-1.048 5.343c-.134-.866-.396-2.79-.373-4.41.032-2.166-.941-2.81-.941-2.81.025-.098.054-.194.089-.289h2.04l.232 2.166z"/><path fill="var(--color9, #2b2f54)" d="M14.109 30.452c-.357.401-.926 0-.926 0s-.316-1.745-.883-5.296c-.768-5.254-1.09-7.155-1.422-9.052l.501 3.461-.068-.398s1.494-1.053 2.535-.391c.231.353.368 1.378.44 2.688.173 3.154-.028 7.954-.177 8.989z"/><path fill="var(--color10, #14182d)" d="M14.286 21.465c-.015-.035-.491-1.17-1.221-1.584-.743-.421-1.685-.315-1.685-.315l-.068-.398s1.494-1.053 2.535-.391c.231.354.368 1.38.439 2.689z"/><path fill="var(--color17, #fca69d)" d="M12.657 12.29c-.365.589-.281.562-.365.589s-.841-.315-.841-.315.002-.05 0-.127c-.003-.201-.025-.587-.141-.756.266-.265.583-.48.935-.628l.019-.007c.007.17.026.338.057.505.052.28.151.599.336.738z"/><path fill="var(--color18, #e57673)" d="M12.313 11.506c-.567.288-.862.932-.862.932-.003-.201-.025-.587-.141-.756.266-.265.583-.48.934-.628l.019-.007c.003.165.021.323.052.477l-.003-.017z"/><path fill="var(--color17, #fca69d)" d="M12.552 10.923s-.121.271-.329.409c-.142.168-.238.11-.248.103 0 0-.841.752-1.273.461-.221-.148-.276-.542-.278-.891 0-.212.015-.424.046-.634a.54.54 0 01.124-.208c.303-.319.96-.309 1.022-.284.074.029.705.222.705.222l.087.309.143.513z"/><path fill="var(--color4, #ea847d)" d="M12.552 10.923s-.121.271-.329.409c-.142.168-.238.11-.248.103.309.054.46-.609.2-.702s-.414.221-.414.221c-.309-.02-.351-.368-.568-.395-.162-.02-.572.289-.769.446 0-.212.015-.424.046-.633a.543.543 0 01.124-.209l.297-.158h.771l.746.405.143.513z"/><path fill="var(--color19, #6a3442)" d="M12.964 10.743c-.304.324-.741.589-.741.589s.364-.58-.014-.74c-.379-.161-.449.362-.449.362s-.463-.375-.323-.682c0 0-2.033.909-2.664-.441-.253-.542-.226-.925-.016-1.153.315-.339 1.039-.334 1.853.003 1.36.562 1.585-.294 1.991.133s.098.762.098.762.463.067.547.575c.031.189-.102.401-.282.592z"/><path fill="var(--color11, #8978f7)" d="M14.424 19.018c-.316.522-1.578-.301-2.23.2s-1.368.421-2.019 0c-.652-.421-.548-.254-.126-1.845.402-1.517.095-2.929.147-3.571s.4-1.033 1.255-1.394c.498.251 1.206-.117 1.206-.117s1.157.408 1.22.769c.025.144.027.502.015.976a96.714 96.714 0 01-.12 2.595c-.084 1.505.442 1.444.652 2.387z"/><path fill="var(--color12, #614bf4)" d="M14.424 19.018c-.316.522-1.578-.301-2.23.2.365-.321.673-.651.699-1.504s-.826-.996-.826-.996l-.364-.884s.927-.274 1.001-.797c.043-.302-.088-1.501-.088-1.501l1.276.501a96.714 96.714 0 01-.12 2.595c-.085 1.505.441 1.444.651 2.387z"/><path fill="var(--color20, #a39cd3)" d="M23.948 19.795c-.491 2.224-2.416 3.515-4.328 3.826-2.587.421-6.08-.683-5.837-3.099s1.062-4.574.41-5.677a2.251 2.251 0 00-.481-.594c-.221-.184-.445-.254-.657-.238-.278.021-.538.191-.756.45-.505.602-.856.655-1.273 1.815 0 0 .147.732.41.983s.042 1.033-.205 1.083c-.3-.06-.153-.392-.426-.326s-.031-.346-.263-.376a1.062 1.062 0 00-.119-.008h-.001c-.214-.004-.452.026-.417-.106.042-.157-.473-.007-.421-.217s.717-.416 1.037-1.231c.085-.215.142-.498.217-.831l.001-.007.002-.008.004-.019c.211-.927.565-2.234 1.983-3.561 1.95-1.826 5.169-1.665 6.494 0 .425.534.948.884 1.493 1.243 1.153.758 2.408 1.551 3.051 4.194.248 1.016.252 1.918.078 2.704z"/><path fill="var(--color21, #7267bb)" d="M23.948 19.795c-.491 2.224-2.416 3.515-4.328 3.826-2.587.421-6.08-.683-5.837-3.099s1.062-4.574.41-5.677a2.27 2.27 0 00-.48-.594l.389-1.371s.723.58.975 1.794-.373 4.306 1.357 4.306c2.69 0-.6 3.478 2.808 3.688s4.706-2.874 4.706-2.874z"/><path fill="var(--color12, #614bf4)" d="M13.056 14.014c-.278.021-.538.191-.756.45-.505.602-.856.655-1.273 1.815 0 0 .147.732.41.983s.042 1.033-.205 1.083c-.3-.06-.153-.392-.426-.326s-.031-.346-.263-.376a1.367 1.367 0 00-.119-.008h-.001c.739-.111.579-.61.354-1.092s.337-1.203 1.035-2.1c.697-.896.871-1.282.871-1.282l.372.852z"/><path fill="var(--color17, #fca69d)" d="M11.035 16.43c-.496-.041-.73-.211-.81-.385-.074-.156-.023-.314.071-.383.191-.143.548.16.566.176-.008-.012-.119-.185 0-.237.046-.021.114.023.18.088.078.08.149.166.211.257 0 0 .274.377-.218.484z"/><path fill="var(--color4, #ea847d)" d="M11.035 16.43c-.497-.041-.73-.211-.81-.385.217.241.565.187.674.03s.143-.387.143-.387c.078.08.149.166.211.257 0 0 .273.377-.218.484z"/><path fill="var(--color8, #3d2042)" d="M12.964 10.742c-.304.324-.741.589-.741.589s.364-.58-.014-.74c-.379-.161-.449.362-.449.362s-.463-.374-.323-.682c0 0-2.033.909-2.664-.441-.253-.542-.226-.925-.016-1.153 0 0-.103.959.952 1.201s1.812-.26 2.012-.119 0 .585 0 .585.736-.156.831 0c.094.156-.101.589.412.398z"/><path fill="var(--color5, #f9d679)" d="M19.529 18.113l-.11-.264a1.087 1.087 0 01-.512.055l-.029-.285c.167.025.337.008.496-.049.18-.068.268-.199.213-.33-.051-.123-.184-.164-.426-.158-.344.01-.591-.047-.697-.301-.098-.234 0-.479.267-.637l-.111-.267.234-.088.105.253a.997.997 0 01.435-.059h-.004l.027.281a.945.945 0 00-.434.056l.007-.002c-.2.076-.231.2-.192.293.047.112.175.135.456.136.368-.007.571.087.672.329.096.232.013.499-.281.667l.117.281-.234.088z"/><path fill="var(--color5, #f9d679)" d="M19.161 19.128h-.004c-.48 0-.927-.14-1.303-.381l.01.006a2.263 2.263 0 01-.854-.985l-.006-.014a2.103 2.103 0 01-.131-1.3l-.003.014c.098-.453.324-.842.638-1.139l.001-.001c.321-.304.728-.52 1.18-.607l.015-.002a2.433 2.433 0 011.365.132l-.016-.006c.431.171.787.454 1.043.813l.005.007c.245.344.393.773.394 1.237-.001.59-.247 1.156-.685 1.574s-1.031.652-1.65.653zm0-4.127c-.394 0-.779.111-1.107.32a1.929 1.929 0 00-.729.841l-.005.012a1.786 1.786 0 00-.151.727c0 .131.014.259.04.383l-.002-.012c.084.386.277.718.544.972l.001.001c.274.259.621.444 1.007.518l.013.002a2.066 2.066 0 001.165-.113l-.014.005c.368-.146.671-.387.89-.694l.004-.006a1.829 1.829 0 00-.248-2.398 2.047 2.047 0 00-1.408-.557v-.001z"/></symbol><symbol id="icon-valut" viewBox="0 0 31 32"><path fill="var(--color22, #1ed797)" d="M16.997 22.209h12.688s-2.001-1.525-1.237-6.886C29.213 9.963 32.13 5.035 29.468 0H16.997s1.133 1.76 1.095 4.9c-.038 3.141-1.266 6.018-2.039 9.512-1.095 4.945.944 7.797.944 7.797z"/><path fill="var(--color14, #44e5ad)" d="M16.215 22.209h12.689s-2.002-1.525-1.237-6.886c.764-5.36 3.682-10.288 1.02-15.323H16.216s1.133 1.76 1.095 4.9c-.037 3.14-1.265 6.018-2.039 9.512-1.095 4.945.944 7.797.944 7.797z"/><path fill="var(--color23, #6de2bb)" d="M25.988 1.5c.067.272.173.534.316.778.281.47.814 1.022 1.795 1.119.045.307.104.889.077 1.731a17.532 17.532 0 01-.269 2.458 25.591 25.591 0 01-.867 3.412c-.9 2.772-1.139 4.816-1.18 6.042a9.95 9.95 0 00.073 1.73c-.22.075-.41.168-.587.282l.011-.006c-.406.257-.933.746-1.237 1.641h-5.243a2.96 2.96 0 00-.36-.762l.007.011c-.298-.453-.851-1.009-1.834-1.199-.027-.257-.064-.69-.074-1.223-.015-.8.03-1.997.325-3.163.084-.329.194-.739.321-1.213.757-2.816 1.998-7.433 1.634-9.785.515-.15 1.386-.586 1.936-1.853l5.156.001zm.31-.355h-5.721c-.699 1.877-2.115 1.931-2.115 1.931.642 2.473-1.29 8.856-1.882 11.19s-.227 4.777-.227 4.777c1.976.217 2.228 1.997 2.228 1.997h5.816c.491-1.853 1.957-2.01 1.957-2.01s-.68-2.635 1.039-7.928 1.019-8.045 1.019-8.045c-1.945 0-2.115-1.913-2.115-1.913h-.001z"/><path fill="var(--color23, #6de2bb)" d="M19.062 8.714a2.765 2.765 0 012.02.855c.472.499.723 1.155.7 1.828s-.32 1.311-.826 1.779a2.783 2.783 0 01-2.076.725c-.703-.045-1.36-.35-1.832-.849s-.723-1.155-.7-1.828c.023-.673.319-1.311.826-1.779s1.183-.731 1.888-.731zm.001-.355c-1.61 0-2.966 1.193-3.077 2.751-.116 1.626 1.169 3.034 2.87 3.144.072.005.142.007.213.007 1.61 0 2.966-1.193 3.077-2.751.116-1.626-1.169-3.034-2.871-3.145a3.368 3.368 0 00-.21-.007h-.003zm1.111-4.721h.006a.61.61 0 01.461.209l.001.001a.565.565 0 01-.05.792h-.001a.62.62 0 01-.494.153h.003a.613.613 0 01-.391-.204l-.001-.001a.561.561 0 01-.139-.408v.002a.573.573 0 01.19-.387.619.619 0 01.414-.158h.001zm0-.354a1 1 0 00-.68.264.916.916 0 00-.297.64v.002a.912.912 0 00.254.659.996.996 0 00.66.304h.003l.063.002c.241 0 .462-.085.636-.226l-.002.001a.924.924 0 00.338-.619v-.004a.9.9 0 00-.212-.674l.001.001a.988.988 0 00-.755-.35h-.008zm1.114 15.009h.006a.61.61 0 01.461.209l.001.001a.565.565 0 01-.05.792h-.001a.62.62 0 01-.494.153h.003a.613.613 0 01-.391-.204l-.001-.001a.561.561 0 01-.139-.408v.002a.573.573 0 01.19-.387.618.618 0 01.414-.157h.001zm0-.354a.996.996 0 00-.68.264.916.916 0 00-.297.64v.002a.908.908 0 00.254.658.995.995 0 00.659.303h.003l.063.002c.241 0 .462-.085.636-.226l-.002.001a.924.924 0 00.338-.619v-.004a.9.9 0 00-.212-.673l.001.001a.988.988 0 00-.755-.35h-.008z"/><path fill="var(--color23, #6de2bb)" d="M20.939 11.582l-.463-.03c-.023.254-.124.512-.25.658l-.3-.126c.135-.17.223-.383.242-.615v-.004c.022-.311-.151-.534-.413-.551-.252-.016-.421.144-.581.46-.215.435-.446.698-.845.672-.381-.025-.652-.302-.692-.71l-.464-.03.019-.272.445.029c.028-.262.114-.437.201-.56l.295.13a1.02 1.02 0 00-.195.54v.003c-.024.338.178.479.362.491.238.015.369-.139.562-.51.225-.439.48-.652.888-.625.363.024.685.287.731.744l.477.031-.019.277z"/><path fill="var(--color22, #1ed797)" d="M15.741 22.209h12.688s-2.001-1.525-1.237-6.886c.765-5.36 3.682-10.288 1.02-15.323H15.741s1.133 1.76 1.095 4.9c-.038 3.141-1.266 6.018-2.039 9.512-1.095 4.945.944 7.797.944 7.797z"/><path fill="var(--color14, #44e5ad)" d="M14.959 22.209h12.688s-2.001-1.525-1.237-6.886C27.175 9.963 30.092 5.035 27.43 0H14.958s1.133 1.76 1.095 4.9c-.038 3.141-1.266 6.018-2.039 9.512-1.095 4.945.944 7.797.944 7.797z"/><path fill="var(--color23, #6de2bb)" d="M24.732 1.5c.066.272.173.534.316.778.281.47.814 1.022 1.794 1.119.046.307.105.889.077 1.731a17.384 17.384 0 01-.269 2.458 25.591 25.591 0 01-.867 3.412c-.9 2.772-1.139 4.816-1.18 6.042a9.95 9.95 0 00.073 1.73c-.22.075-.41.168-.587.282l.011-.006c-.406.257-.933.746-1.237 1.641h-5.244a2.98 2.98 0 00-.359-.763l.007.011c-.298-.453-.851-1.009-1.834-1.199-.027-.257-.064-.69-.074-1.223-.015-.8.029-1.997.325-3.163.083-.329.194-.739.321-1.213.757-2.816 1.998-7.433 1.634-9.785.515-.15 1.386-.586 1.936-1.853l5.157.001zm.309-.355H19.32c-.699 1.877-2.115 1.931-2.115 1.931.642 2.473-1.291 8.856-1.882 11.19s-.227 4.777-.227 4.777c1.976.217 2.228 1.997 2.228 1.997h5.816c.491-1.853 1.957-2.01 1.957-2.01s-.68-2.635 1.038-7.928 1.02-8.045 1.02-8.045c-1.945 0-2.115-1.913-2.115-1.913h-.001z"/><path fill="var(--color23, #6de2bb)" d="M17.806 8.714a2.762 2.762 0 012.019.856c.472.5.723 1.155.7 1.828a2.548 2.548 0 01-.826 1.78 2.779 2.779 0 01-2.075.725c-.703-.045-1.36-.35-1.832-.849s-.723-1.155-.7-1.828c.024-.673.32-1.311.826-1.78s1.183-.73 1.888-.731zm0-.355c-1.61 0-2.966 1.193-3.077 2.751-.116 1.626 1.169 3.034 2.87 3.144.072.005.142.007.213.007 1.61 0 2.966-1.193 3.077-2.751.116-1.626-1.17-3.034-2.87-3.145a3.368 3.368 0 00-.21-.007h-.003zm1.111-4.721h.006a.61.61 0 01.461.209l.001.001a.565.565 0 01-.05.792h-.001a.62.62 0 01-.494.153h.003a.613.613 0 01-.391-.204l-.001-.001a.561.561 0 01-.139-.408v.002a.576.576 0 01.189-.387.619.619 0 01.414-.158h.001zm0-.354c-.254 0-.498.095-.681.264a.916.916 0 00-.297.64v.002a.912.912 0 00.254.659.996.996 0 00.66.304h.003l.062.002c.241 0 .462-.085.636-.226l-.002.001a.924.924 0 00.338-.619v-.004a.9.9 0 00-.212-.674l.001.001a.988.988 0 00-.755-.35h-.008zm1.114 15.009h.006a.61.61 0 01.461.209l.001.001a.565.565 0 01-.05.792h-.001a.62.62 0 01-.494.153h.003a.613.613 0 01-.391-.204l-.001-.001a.561.561 0 01-.139-.408v.002a.573.573 0 01.19-.387.618.618 0 01.414-.157h.001zm0-.354a.996.996 0 00-.68.264.916.916 0 00-.297.64v.002a.908.908 0 00.254.658.995.995 0 00.659.303h.003l.063.002c.241 0 .462-.085.636-.226l-.002.001a.924.924 0 00.338-.619v-.004a.9.9 0 00-.212-.673l.001.001a.988.988 0 00-.755-.35h-.008z"/><path fill="var(--color23, #6de2bb)" d="M19.683 11.582l-.464-.03c-.022.254-.124.512-.25.658l-.3-.126c.135-.17.223-.383.242-.615v-.004c.022-.311-.151-.534-.413-.551-.252-.016-.421.144-.581.46-.215.435-.446.698-.845.672-.381-.025-.652-.302-.692-.71l-.463-.03.019-.272.445.029c.028-.262.114-.437.201-.56l.295.13a1.02 1.02 0 00-.195.54v.003c-.024.338.178.479.362.491.238.015.369-.139.562-.51.225-.439.48-.652.888-.625.363.024.685.287.731.744l.477.031-.019.277z"/><path fill="var(--color22, #1ed797)" d="M14.484 22.209h12.689s-2.002-1.525-1.237-6.886C26.7 9.963 29.618 5.035 26.956 0H14.485s1.133 1.76 1.095 4.9c-.038 3.141-1.266 6.018-2.04 9.512-1.095 4.945.944 7.797.944 7.797z"/><path fill="var(--color14, #44e5ad)" d="M13.702 22.209H26.39s-2.001-1.525-1.236-6.886c.765-5.36 3.682-10.288 1.02-15.323H13.703s1.133 1.76 1.095 4.9c-.037 3.14-1.266 6.018-2.04 9.512-1.095 4.945.944 7.797.944 7.797z"/><path fill="var(--color23, #6de2bb)" d="M23.475 1.5c.066.272.173.534.316.778.28.47.814 1.022 1.794 1.119.046.307.105.889.077 1.731a17.532 17.532 0 01-.269 2.458 25.449 25.449 0 01-.868 3.412c-.9 2.772-1.139 4.816-1.18 6.042-.028.819.025 1.395.072 1.73-.22.075-.41.168-.587.282l.011-.006c-.406.257-.933.746-1.237 1.641h-5.243a2.982 2.982 0 00-.36-.763l.007.011c-.298-.453-.851-1.009-1.833-1.199-.071-.676-.208-2.575.251-4.386.084-.329.194-.739.321-1.212.757-2.817 1.998-7.433 1.634-9.785.515-.15 1.386-.586 1.936-1.853l5.157.001zm.31-.355h-5.721c-.699 1.877-2.115 1.932-2.115 1.932.642 2.473-1.29 8.856-1.882 11.19s-.227 4.777-.227 4.777c1.976.216 2.228 1.997 2.228 1.997h5.816c.491-1.853 1.957-2.01 1.957-2.01s-.68-2.635 1.038-7.928 1.02-8.044 1.02-8.044c-1.945 0-2.115-1.913-2.115-1.913l-.001-.001z"/><path fill="var(--color23, #6de2bb)" d="M16.55 8.714a2.762 2.762 0 012.019.856c.472.5.723 1.155.7 1.828a2.548 2.548 0 01-.826 1.78 2.779 2.779 0 01-2.075.725c-.703-.045-1.36-.35-1.832-.849s-.723-1.155-.7-1.828c.023-.673.32-1.311.826-1.779s1.183-.731 1.888-.731zm0-.355c-1.61 0-2.966 1.193-3.077 2.751-.116 1.626 1.17 3.034 2.871 3.144.071.005.142.007.213.007 1.61 0 2.966-1.193 3.077-2.751.116-1.626-1.169-3.034-2.87-3.145a3.368 3.368 0 00-.21-.007h-.003zm1.111-4.721h.006a.61.61 0 01.461.209l.001.001a.565.565 0 01-.05.792h-.001a.62.62 0 01-.494.153h.003a.613.613 0 01-.391-.204l-.001-.001a.561.561 0 01-.139-.408v.002a.573.573 0 01.19-.387.619.619 0 01.414-.158h.001zm0-.354a1 1 0 00-.68.264.916.916 0 00-.297.64v.002a.912.912 0 00.254.659.996.996 0 00.66.304h.003l.063.002c.241 0 .462-.085.636-.226l-.002.001a.924.924 0 00.338-.619v-.004a.9.9 0 00-.212-.674l.001.001a.988.988 0 00-.755-.35h-.008zm1.114 15.009h.006a.61.61 0 01.461.209l.001.001a.565.565 0 01-.05.792h-.001a.62.62 0 01-.494.153h.003a.613.613 0 01-.391-.204l-.001-.001a.561.561 0 01-.139-.408v.002a.573.573 0 01.19-.387.618.618 0 01.414-.157h.001zm0-.354a.996.996 0 00-.68.264.916.916 0 00-.297.64v.002a.908.908 0 00.254.658.99.99 0 00.66.303h.003l.062.002c.241 0 .462-.085.635-.226l-.002.001a.924.924 0 00.338-.619v-.004a.9.9 0 00-.212-.673l.001.001a.988.988 0 00-.755-.35h-.008z"/><path fill="var(--color23, #6de2bb)" d="M18.426 11.582l-.464-.03c-.022.254-.124.512-.25.658l-.3-.126c.135-.17.223-.383.242-.615v-.004c.022-.311-.151-.534-.413-.551-.252-.016-.421.144-.581.46-.215.435-.446.698-.845.672-.381-.025-.652-.302-.692-.71l-.464-.03.019-.272.445.029c.028-.262.114-.437.201-.56l.295.13a1.02 1.02 0 00-.195.54v.003c-.024.338.178.479.362.491.239.015.37-.139.562-.51.225-.439.48-.652.888-.625.363.024.685.287.731.744l.477.031-.019.277z"/><path fill="var(--color22, #1ed797)" d="M13.228 22.209h12.688s-2.001-1.525-1.237-6.886c.765-5.36 3.682-10.288 1.02-15.323H13.228s1.133 1.76 1.095 4.9c-.038 3.14-1.266 6.018-2.039 9.512-1.095 4.945.944 7.797.944 7.797z"/><path fill="var(--color14, #44e5ad)" d="M12.446 22.209h12.688s-2.001-1.525-1.237-6.886c.765-5.36 3.682-10.288 1.02-15.323H12.446s1.133 1.76 1.095 4.9c-.038 3.141-1.265 6.018-2.039 9.512-1.095 4.945.944 7.797.944 7.797z"/><path fill="var(--color24, #b7f5e0)" d="M22.219 1.5c.067.272.173.534.316.778.281.47.814 1.022 1.795 1.119.045.307.104.889.077 1.731a17.532 17.532 0 01-.269 2.458 25.591 25.591 0 01-.867 3.412c-.9 2.772-1.139 4.816-1.18 6.042-.028.819.025 1.395.072 1.73-.22.075-.41.168-.587.282l.011-.006c-.406.257-.933.746-1.237 1.641h-5.243a2.95 2.95 0 00-.36-.763l.007.011c-.298-.453-.851-1.009-1.834-1.199a13.484 13.484 0 01-.073-1.211v-.013c-.015-.8.03-1.997.325-3.163.084-.329.194-.739.321-1.212.757-2.817 1.998-7.433 1.634-9.785.515-.15 1.386-.586 1.936-1.853l5.156.001zm.31-.355h-5.722c-.699 1.877-2.115 1.932-2.115 1.932.642 2.473-1.29 8.856-1.882 11.19s-.227 4.777-.227 4.777c1.976.216 2.228 1.997 2.228 1.997h5.816c.491-1.853 1.957-2.01 1.957-2.01s-.68-2.634 1.038-7.926c1.718-5.293 1.02-8.045 1.02-8.045-1.945 0-2.115-1.913-2.115-1.913v-.001z"/><path fill="var(--color24, #b7f5e0)" d="M18.493 8.714a2.762 2.762 0 012.02.856c.472.5.723 1.155.7 1.828a2.552 2.552 0 01-.826 1.78 2.779 2.779 0 01-2.084.724l.009.001c-.703-.045-1.36-.35-1.832-.849s-.723-1.155-.7-1.828c.023-.673.319-1.311.826-1.779s1.183-.731 1.888-.731zm0-.355c-1.61 0-2.966 1.193-3.077 2.751-.116 1.626 1.169 3.034 2.87 3.145.071.004.142.007.213.007 1.61 0 2.966-1.193 3.077-2.751.116-1.626-1.17-3.034-2.871-3.145a3.368 3.368 0 00-.21-.007h-.003zm1.111-4.721h.006a.61.61 0 01.461.209l.001.001a.565.565 0 01-.05.792h-.001a.62.62 0 01-.494.153h.003a.613.613 0 01-.391-.204l-.001-.001a.561.561 0 01-.139-.408v.002a.576.576 0 01.189-.387.619.619 0 01.414-.158h.001zm0-.354c-.254 0-.498.095-.681.264a.916.916 0 00-.297.64v.002a.912.912 0 00.254.659.996.996 0 00.66.304h.003l.063.002c.241 0 .462-.085.636-.226l-.002.001a.924.924 0 00.338-.619v-.004a.9.9 0 00-.212-.674l.001.001a.988.988 0 00-.755-.35h-.008zm-2.085 15.009h.006a.61.61 0 01.461.209l.001.001a.565.565 0 01-.05.792h-.001a.62.62 0 01-.494.153h.003a.613.613 0 01-.391-.204l-.001-.001a.561.561 0 01-.139-.408v.002a.576.576 0 01.189-.387.618.618 0 01.414-.157h.002zm0-.354a1 1 0 00-.681.264.916.916 0 00-.297.64v.002a.908.908 0 00.254.658.995.995 0 00.659.303h.003l.063.002c.241 0 .462-.085.636-.226l-.002.001a.924.924 0 00.338-.619v-.004a.9.9 0 00-.212-.674l.001.001a.988.988 0 00-.755-.35h-.008z"/><path fill="var(--color24, #b7f5e0)" d="M20.37 11.582l-.464-.03c-.022.254-.124.512-.25.658l-.3-.126a1.13 1.13 0 00.242-.615v-.004c.022-.311-.151-.534-.413-.551-.252-.016-.421.144-.581.46-.215.435-.446.698-.845.672-.381-.025-.652-.302-.692-.71l-.464-.03.019-.272.445.029c.028-.262.114-.437.201-.56l.295.13a1.02 1.02 0 00-.195.54v.003c-.024.338.178.479.362.491.239.015.369-.139.562-.51.225-.439.48-.652.888-.625.363.024.685.287.731.744l.477.031-.019.277z"/><path fill="var(--color11, #8978f7)" d="M10.281 31.666l-1.966-.363s-.169-.465.204-1.084a1.22 1.22 0 01.072-.105c.357-.446.694.154.694.154s.292.557.788.846c.185.108.261.212.284.3.038.148-.075.251-.075.251z"/><path fill="var(--color25, #634df4)" d="M10.281 31.666l-1.966-.363s-.169-.465.204-1.084a1.22 1.22 0 01.072-.105l.343.306s-.174.713.684.864l.738.13c.038.148-.076.251-.076.251z"/><path fill="var(--color11, #8978f7)" d="M13.057 31.969h-2.163s-.279-.461-.015-1.189a.93.93 0 01.086-.18c.286-.447.737.083.737.083s.429.534 1.017.743c.216.077.319.171.363.259a.287.287 0 01-.024.284z"/><path fill="var(--color25, #634df4)" d="M13.057 31.969h-2.163s-.279-.461-.015-1.189a.93.93 0 01.086-.18l.355.146s-.347 1.286 1.762.939a.286.286 0 01-.025.284z"/><path fill="var(--color20, #a39cd3)" d="M8.43 26.211c-2.226 1.24-7.246 1.492-8.302-2.524a4.272 4.272 0 01-.042-.171c-.622-2.725 2.313-4.136 2.353-6.461s1.234-4.363 3.665-3.921c2.542.462 2.604 1.654 2.604 1.654l.024.162 1.128 7.499s.826 2.503-1.43 3.762z"/><path fill="var(--color21, #7267bb)" d="M8.43 26.211c-2.225 1.24-7.246 1.492-8.302-2.524 1.637 3.525 6.717 1.03 5.461-.924-.915-1.423-1.769-2.536.638-2.302 1.806.176-.299-3.482.02-4.645s1.523-1.242 1.523-1.242l.963.375 1.128 7.499s.826 2.504-1.43 3.762z"/><path fill="var(--color9, #2b2f54)" d="M10.515 26.585s-.293 1.188-.654 2.33c-.183.576-.383 1.141-.571 1.534a.248.248 0 01-.117.116l-.002.001a.27.27 0 01-.17.02h.002l-.301-.061a.262.262 0 01-.155-.095v-.001a.234.234 0 01-.049-.144l.002-.027v.001c.085-.764.362-3.372.434-5.519.019-.585.024-1.135.005-1.605 1.396.458 1.576 3.45 1.576 3.45z"/><path fill="var(--color10, #14182d)" d="M9.86 28.914c.035-1.415-.635-3.384-.927-4.173.02-.585.024-1.135.005-1.605 1.396.457 1.576 3.45 1.576 3.45s-.293 1.188-.654 2.33v-.001z"/><path fill="var(--color9, #2b2f54)" d="M11.799 30.627v.012a.236.236 0 01-.071.169.268.268 0 01-.186.076h-.457a.262.262 0 01-.18-.071.24.24 0 01-.076-.172c-.005-.724-.116-2.954-1.213-5.255-.517-1.084-.926-1.92-1.213-2.621-.455-1.111-.602-1.885-.382-2.773.359-1.448 2.612-.342 2.612-.342s.1.335.235.965c.194.911.46 2.439.602 4.466.193 2.768.295 4.847.327 5.548z"/><path fill="var(--color10, #14182d)" d="M10.869 20.613c-.268.055-.804-.389-1.546.121-.788.541-.919 2.029-.919 2.029-.455-1.111-.602-1.885-.382-2.773.359-1.448 2.612-.343 2.612-.343s.1.335.235.965z"/><path fill="var(--color5, #f9d679)" d="M4.184 19.076l.032-.184a.694.694 0 01-.307-.135l.085-.17a.646.646 0 00.295.133c.125.02.221-.025.237-.116.015-.085-.045-.152-.182-.226-.196-.106-.315-.219-.284-.396.029-.163.17-.269.377-.271l.033-.186.163.026-.031.176a.654.654 0 01.263.107L4.781 18c-.044-.029-.124-.086-.259-.108-.139-.022-.201.038-.212.102-.013.078.05.133.208.225.208.116.289.234.26.403-.028.161-.171.285-.395.284l-.035.196-.163-.027z"/><path fill="var(--color5, #f9d679)" d="M3.617 19.527a1.5 1.5 0 01-.59-.623l-.004-.009a1.383 1.383 0 01-.125-.849l-.001.008c.05-.301.187-.563.384-.767.202-.209.462-.362.754-.431l.011-.002a1.601 1.601 0 01.899.049l-.011-.003c.289.101.531.277.709.506l.003.003a1.422 1.422 0 01.296.865c0 .282-.082.544-.225.765l.003-.006c-.215.33-.546.569-.934.66l-.01.002a1.587 1.587 0 01-1.166-.174l.008.004zm1.47-2.319a1.344 1.344 0 00-.675-.18l-.062.001h.003c-.269.011-.515.1-.719.244l.004-.003a1.255 1.255 0 00-.451.572l-.003.009a1.17 1.17 0 00-.079.426c0 .106.014.208.039.306l-.002-.008c.067.25.202.463.385.622l.002.001a1.326 1.326 0 00.882.327c.2 0 .39-.043.561-.121l-.009.003a1.3 1.3 0 00.561-.479l.003-.005a1.2 1.2 0 00.15-.944 1.259 1.259 0 00-.585-.767l-.006-.003z"/><path fill="var(--color17, #fca69d)" d="M9.448 14.73c0 .095-.508.315-.508.315l-.414-.458s-.044-.375-.072-.677a3.235 3.235 0 01-.023-.355c.01-.13.748.222.748.222s.234.746.266.924c.002.01.003.019.003.029z"/><path fill="var(--color18, #e57673)" d="M9.444 14.701l-.122.029s-.238-.491-.869-.82a3.235 3.235 0 01-.023-.355c.01-.13.748.222.748.222s.234.746.266.924z"/><path fill="var(--color17, #fca69d)" d="M9.956 14.063c-.369.162-1.286-.352-1.286-.352a.275.275 0 01-.109.021H8.56c-.084.001-.203-.03-.312-.177a2.405 2.405 0 01-.29-.514l-.006-.016.099-.305 1.067-.629.837.372s.061.239.109.533c.069.428.109.972-.109 1.068z"/><path fill="var(--color4, #ea847d)" d="M10.065 12.995c-.347.151-1.135-.346-1.3-.233-.128.088-.132.462-.132.462s-.371-.206-.381.071c-.011.273.299.431.309.436-.084.001-.203-.03-.312-.178a2.405 2.405 0 01-.29-.514l-.006-.016.1-.305 1.067-.629.837.371s.061.239.109.533z"/><path fill="var(--color19, #6a3442)" d="M11.279 12.03c-.904 1.182-2.46.318-2.645.521s0 .674 0 .674-.226-.279-.425-.191c-.199.089.039.521.039.521a3.927 3.927 0 01-.347-.333l-.003-.003c-.159-.176-.308-.387-.289-.541.039-.318.386-.292.386-.292s-.186-.356-.08-.712c.107-.356 1.755-.241 1.755-.241s-1.542-1.27 0-1.829c.386-.14.736-.132 1.03-.022.881.327 1.257 1.563.579 2.449z"/><path fill="var(--color11, #8978f7)" d="M11.153 20.124c-.105.115-.53-.238-1.249-.236a2.381 2.381 0 00-.801.146l.017-.005c-1.196.419-1.685.114-1.355-1.182.074-.289-.002-.632-.129-1-.444-1.282-1.519-2.87.858-3.562 0 0 .527.512.916.264.469.105 1.147.791 1.167 1.401.006.202 0 .464-.002.756-.003.358 0 .761.042 1.148.027.255.071.503.14.727.258.838.538 1.391.398 1.543z"/><path fill="var(--color25, #634df4)" d="M9.904 19.888a2.381 2.381 0 00-.801.146l.017-.005c-1.196.419-1.685.114-1.355-1.182.074-.289-.002-.632-.129-1l1.278-2.03s.16 1.067.533 1.238c.372.172 1.059.274 1.128-.349-.003.358 0 .761.042 1.147l-1.517.781s-.835 1.246.806 1.253z"/><path fill="var(--color20, #a39cd3)" d="M13.394 18.948c-.178.041-.429.04-.693.045-.691.012-.532 1.042-.811.66s0-1.08-.091-1.295-.135-.648-.135-.648c-.145-.931-.492-1.016-1.369-1.531s-1.755-.61-2.687-1.504c.244-.456.883-.39.883-.39s.986.769 1.629.985c1.306.439 1.89 1.588 2.235 2.157s.545.028 1.09.803c.337.479.237.653-.052.718z"/><path fill="var(--color21, #7267bb)" d="M13.394 18.948c-.178.041-.429.04-.693.045-.691.012-.532 1.042-.811.66s0-1.08-.091-1.295-.135-.648-.135-.648c-.145-.931-.492-1.016-1.369-1.531s-1.755-.61-2.687-1.504c.244-.456.883-.39.883-.39s-.204.204.448.759 1.249.708 1.675.95c.426.242 1.13.866 1.211 1.372s.348 1.702 1.569 1.582z"/><path fill="var(--color17, #fca69d)" d="M12.591 17.499c-.005.087-.037.164-.102.204-.212.133-.625.089-.625.089l-.039-.365c.053-.072.112-.139.178-.201.093-.088.211-.171.321-.171.161-.001.281.247.268.444z"/><path fill="var(--color4, #ea847d)" d="M12.591 17.499c-.005.087-.037.164-.102.204-.212.133-.625.089-.625.089l-.039-.365c.053-.072.112-.139.178-.201.008.118.051.442.277.425.276-.02.311-.152.311-.152z"/><path fill="var(--color11, #8978f7)" d="M7.843 14.536s.949.047 1.096 1.484l.147 1.436s1.05-.218 1.661-.211c.378.005.755.029 1.13.071 0 0 .243.496-.078.636s-2.607.876-3.458.635-2.977-3.513-.498-4.05z"/><path fill="var(--color8, #3d2042)" d="M11.279 12.03c-.904 1.182-2.46.318-2.645.521s0 .674 0 .674-.226-.279-.426-.191c-.199.089.04.521.04.521a3.927 3.927 0 01-.347-.333l-.003-.003c-.137-.425.429-.477.429-.477s-.252-.394 0-.597c.253-.204 1.768.419 2.46-.445s-.086-2.119-.086-2.119c.88.327 1.256 1.563.579 2.449z"/><path fill="var(--color11, #8978f7)" d="M30.487 13.395H17.783a.542.542 0 00-.553.528v12.144c0 .291.247.528.553.528h12.704a.542.542 0 00.553-.528V13.923a.54.54 0 00-.553-.528z"/><path fill="var(--color26, #e1eaff)" d="M28.492 25.204h-8.715c-.299 0-.57-.117-.771-.307a1.027 1.027 0 01-.321-.739V15.83a1.02 1.02 0 01.32-.738c.2-.19.472-.307.77-.307h8.717c.299 0 .57.117.771.307.205.196.32.461.321.739v8.328a1.022 1.022 0 01-.32.738c-.2.19-.472.307-.77.307h-.003zm-8.713-10.196a.88.88 0 00-.608.241.803.803 0 00-.253.582v8.328c0 .218.091.427.253.581a.88.88 0 00.606.241h8.715a.88.88 0 00.608-.241.8.8 0 00.252-.581V15.83a.804.804 0 00-.252-.581.88.88 0 00-.606-.241H19.78z"/><path fill="var(--color11, #8978f7)" d="M28.535 26.595h-8.799v1.022h8.799v-1.022z"/><path fill="var(--color26, #e1eaff)" d="M29.813 16.379h-.693a.143.143 0 00-.142.139v2.437c0 .077.065.139.145.139h.69c.08 0 .145-.062.145-.139v-2.437a.143.143 0 00-.142-.139h-.003zm0 4.517h-.693a.143.143 0 00-.142.139v2.437c0 .077.065.139.145.139h.69c.08 0 .145-.062.145-.139v-2.437a.143.143 0 00-.142-.139h-.003z"/><path fill="none" stroke="var(--color26, #e1eaff)" stroke-miterlimit="10" stroke-width="3.2" d="M25.809 22.119c1.228 0 2.222-.951 2.222-2.124s-.995-2.124-2.222-2.124c-1.227 0-2.222.951-2.222 2.124s.995 2.124 2.222 2.124z"/><path fill="var(--color26, #e1eaff)" d="M25.809 21.78c1.032 0 1.868-.799 1.868-1.786s-.836-1.786-1.868-1.786-1.868.8-1.868 1.786.836 1.786 1.868 1.786z"/><path fill="var(--color27, #507eff)" d="M25.809 20.77c.448 0 .811-.347.811-.775s-.363-.775-.811-.775c-.448 0-.811.347-.811.775s.363.775.811.775z"/><path fill="none" stroke="var(--color27, #507eff)" stroke-miterlimit="10" stroke-width=".64" d="M25.809 18.209v.204m-.639-.096l.073.192m-.634.118l.137.156m-.554.319l.184.102m-.406.481l.21.035m-.21.585l.21-.035m.012.618l.184-.102m.233.577l.137-.156m.424.466l.073-.192m.566.299v-.204m.639.097l-.073-.192m.635-.118l-.137-.156m.554-.319l-.185-.102m.407-.481l-.21-.035m.21-.585l-.21.035m-.012-.618l-.185.102m-3.432-.577l-.137.156m2.775-.466l-.073.192"/><path fill="var(--color27, #507eff)" d="M25.809 18.938a.132.132 0 00.135-.129.132.132 0 00-.132-.129h-.006a.132.132 0 00-.132.129c0 .071.061.129.135.129z"/><path fill="none" stroke="var(--color26, #e1eaff)" stroke-miterlimit="10" stroke-width="3.2" d="M21.043 19.995c.685 0 1.241-.531 1.241-1.187s-.556-1.186-1.241-1.186c-.686 0-1.241.531-1.241 1.186s.556 1.187 1.241 1.187z"/><path fill="none" stroke="var(--color26, #e1eaff)" stroke-miterlimit="10" stroke-width="3.2" d="M21.574 17.736l-.531 1.072-1.241.129m1.241-.129l.794.912"/><path fill="var(--color26, #e1eaff)" d="M21.043 19.153c.199 0 .36-.154.36-.345s-.161-.344-.36-.344c-.199 0-.361.154-.361.345s.162.345.361.345z"/><path fill="var(--color25, #634df4)" d="M28.535 26.595v.822l-8.799-.602v-.221h8.799z"/></symbol><symbol id="icon-cripto" viewBox="0 0 28 32"><path fill="var(--color28, #ffc775)" d="M10.327 28.365v2.295c0 .556 3.554 1.007 7.939 1.007s7.938-.451 7.938-1.007v-2.296H10.327z"/><path fill="var(--color29, #ffc67b)" d="M18.265 29.372c-4.384 0-7.939-.451-7.939-1.007s3.554-1.007 7.939-1.007c4.384 0 7.938.451 7.938 1.007s-3.554 1.007-7.938 1.007z"/><path fill="var(--color30, #ff9350)" d="M18.265 29.151c-3.716 0-6.729-.352-6.729-.786s3.013-.786 6.729-.786 6.728.352 6.728.786-3.012.786-6.728.786z"/><path fill="var(--color31, #f19a6a)" d="M10.713 29.002l-.016 1.589c1.536.43 3.301.678 5.123.678h.027-.001l.032-1.573a16.951 16.951 0 01-5.285-.725l.12.031z"/><path fill="var(--color32, #000)" d="M22.166 29.631v1.558a19.625 19.625 0 003.131-.433l-.13.024v-1.571a16.71 16.71 0 01-2.959.42l-.041.002z"/><path fill="var(--color28, #ffc775)" d="M8.753 25.846l.134 2.292c.032.555 3.607.816 7.985.582s7.9-.873 7.868-1.428L24.606 25l-15.853.846z"/><path fill="var(--color29, #ffc67b)" d="M8.758 25.842c-.032-.555 3.49-1.194 7.868-1.427s7.952.028 7.985.583c.032.555-3.49 1.194-7.868 1.428s-7.952-.028-7.985-.583z"/><path fill="var(--color30, #ff9350)" d="M9.966 25.777c-.025-.433 2.962-.945 6.672-1.143s6.739-.007 6.764.427c.025.433-2.962.945-6.672 1.143s-6.738.006-6.764-.427z"/><path fill="var(--color31, #f19a6a)" d="M9.177 26.461l.077 1.587c1.235.275 2.653.433 4.108.433.377 0 .751-.011 1.123-.031l-.052.002-.06-1.572a16.991 16.991 0 01-5.312-.443l.117.024z"/><path fill="var(--color32, #000)" d="M20.648 26.48l.09 1.555a19.68 19.68 0 003.112-.604l-.139.033-.091-1.569c-.852.259-1.86.464-2.896.577l-.075.007z"/><path fill="var(--color28, #ffc775)" d="M12.273 22.676v2.296c0 .556 3.554 1.006 7.938 1.006s7.939-.451 7.939-1.007v-2.296H12.273z"/><path fill="var(--color29, #ffc67b)" d="M20.211 23.683c-4.384 0-7.939-.451-7.939-1.007s3.554-1.007 7.939-1.007c4.384 0 7.938.451 7.938 1.007s-3.554 1.007-7.938 1.007z"/><path fill="var(--color30, #ff9350)" d="M20.211 23.463c-3.716 0-6.728-.352-6.728-.786s3.012-.786 6.728-.786 6.728.352 6.728.786c0 .434-3.012.786-6.728.786z"/><path fill="var(--color31, #f19a6a)" d="M12.659 23.313l-.016 1.589c1.537.431 3.303.679 5.126.679h.022-.001l.032-1.573a16.971 16.971 0 01-5.284-.725l.12.031z"/><path fill="var(--color32, #000)" d="M24.112 23.942V25.5a19.625 19.625 0 003.131-.433l-.13.024V23.52c-.232.06-.586.134-.944.197l-.104.015c-.646.107-1.298.177-1.953.21z"/><path fill="var(--color28, #ffc775)" d="M9.164 19.221v2.296c0 .556 3.554 1.007 7.939 1.007s7.939-.451 7.939-1.007v-2.296H9.164z"/><path fill="var(--color29, #ffc67b)" d="M17.103 20.229c-4.384 0-7.938-.451-7.938-1.007s3.554-1.007 7.939-1.007c4.384 0 7.938.451 7.938 1.007s-3.554 1.007-7.938 1.007z"/><path fill="var(--color30, #ff9350)" d="M17.103 20.008c-3.716 0-6.728-.352-6.728-.786s3.012-.786 6.728-.786c3.716 0 6.729.352 6.729.786s-3.013.786-6.729.786z"/><path fill="var(--color31, #f19a6a)" d="M9.551 19.858l-.016 1.589c1.537.431 3.302.679 5.125.679h.023-.001l.032-1.573a16.958 16.958 0 01-5.283-.725l.12.031z"/><path fill="var(--color32, #000)" d="M21.004 20.487v1.558a19.625 19.625 0 003.131-.433l-.13.024v-1.571a16.71 16.71 0 01-2.959.42l-.041.002z"/><path fill="var(--color28, #ffc775)" d="M11.236 17.067v2.296c0 .556 3.554 1.007 7.938 1.007s7.939-.451 7.939-1.007v-2.296H11.236z"/><path fill="var(--color29, #ffc67b)" d="M19.174 18.074c-4.384 0-7.938-.451-7.938-1.007s3.554-1.007 7.938-1.007c4.385 0 7.939.451 7.939 1.007s-3.554 1.007-7.939 1.007z"/><path fill="var(--color30, #ff9350)" d="M19.174 17.853c-3.716 0-6.728-.352-6.728-.786s3.012-.786 6.728-.786c3.716 0 6.729.352 6.729.786s-3.013.786-6.729.786z"/><path fill="var(--color31, #f19a6a)" d="M11.623 17.704l-.016 1.589c1.537.431 3.302.679 5.125.679h.023-.001l.032-1.573a16.951 16.951 0 01-5.283-.725l.12.031z"/><path fill="var(--color32, #000)" d="M23.075 18.333v1.558a19.625 19.625 0 003.131-.433l-.13.024v-1.571c-.232.06-.586.134-.944.196l-.104.015c-.558.099-1.229.174-1.912.209l-.041.002z"/><path fill="var(--color28, #ffc775)" d="M8.808 13.569v2.296c0 .556 3.554 1.007 7.939 1.007s7.94-.451 7.94-1.007V13.57H8.809z"/><path fill="var(--color29, #ffc67b)" d="M16.746 14.576c-4.384 0-7.939-.451-7.939-1.007s3.554-1.007 7.939-1.007c4.384 0 7.939.451 7.939 1.007s-3.554 1.007-7.939 1.007z"/><path fill="var(--color30, #ff9350)" d="M16.746 14.355c-3.716 0-6.729-.352-6.729-.786s3.013-.786 6.729-.786 6.728.352 6.728.786c0 .434-3.012.786-6.728.786z"/><path fill="var(--color31, #f19a6a)" d="M9.195 14.206l-.016 1.589c1.537.431 3.302.679 5.125.679h.023-.001l.032-1.573a16.958 16.958 0 01-5.283-.725l.12.031z"/><path fill="var(--color32, #000)" d="M20.647 14.835v1.558a19.625 19.625 0 003.131-.433l-.13.024v-1.571c-.232.06-.587.134-.945.197l-.104.015a16.82 16.82 0 01-1.953.21z"/><path fill="var(--color3, #ffb7a8)" d="M23.103 14.391c.554.094 1.46-.191 1.935-.632.249-.232.379-.507.276-.793-.273-.582-1.765.559-1.765.559s.348-.451.063-.57c-.115-.047-.248.077-.366.243-.175.248-.318.588-.318.588s-.671.463.175.605z"/><path fill="var(--color4, #ea847d)" d="M23.103 14.391c.554.094 1.46-.191 1.935-.632-.034.021-.729.429-1.291.198-.353-.145-.467-.575-.499-.761-.175.248-.318.588-.318.588s-.672.464.174.606z"/><path fill="var(--color11, #8978f7)" d="M0 30.641c-.024.499 1.69 1.141 1.69 1.141s2.74.202 2.566-.202c-.034-.079-.131-.16-.265-.242-.556-.339-1.757-.692-1.8-.922-.053-.285-.327-1.153-.327-1.153l-.943-.403s-.896 1.282-.92 1.781z"/><path fill="var(--color25, #634df4)" d="M0 30.641c-.024.499 1.69 1.141 1.69 1.141s2.74.202 2.566-.202c-.034-.079-.131-.16-.265-.242-.046.454-1.842.049-2.652-.658-.147-.721.202-1.528.211-1.55l-.631-.27s-.896 1.283-.92 1.782z"/><path fill="var(--color11, #8978f7)" d="M6.997 30.011v1.478c0 .106.043.208.12.285s.182.121.293.125c1.089.041 3.957.125 3.987-.105.006-.047-.069-.125-.197-.221-.648-.486-2.674-1.454-2.674-1.454l-1.528-.107z"/><path fill="var(--color25, #634df4)" d="M6.997 30.011v1.478c0 .106.043.208.12.285s.182.121.293.125c1.089.041 3.957.125 3.987-.105.006-.047-.069-.125-.197-.221-.267.099-.819.195-1.742-.1a2.847 2.847 0 01-.99-.542l.004.003a2.725 2.725 0 01-.676-.852l-.007-.015-.791-.055z"/><path fill="var(--color19, #6a3442)" d="M1.544 10.944c.336 2.319 2.997 4.36 6.552 4.528 2.873-5.316 5.398-6.57 7.214-6.688 1.373-.089 2.816.44 3.887-.262.063-.041.116-.08.167-.121l-.004.003c.99-.8 1.004-2.341.879-3.461 0 0 1.053.122 1.333-.591s-.112-.891-.112-.891.074-3.635-3.281-3.457c-3.354.178-.932 2.744-6.188 1.14-1.203-.367-1.944-.315-2.428-.012-1.504.943-.624 3.172-2.337 4.666-1.473 1.285-3.077.239-4.555 1.654-.303.292-.55.632-.73 1.005-.41.834-.5 1.769-.397 2.484zm-.233-2.485z"/><path fill="var(--color8, #3d2042)" d="M1.544 10.944c.336 2.319 2.997 4.36 6.552 4.528 2.873-5.317 5.398-6.57 7.214-6.688 1.373-.089 2.817.44 3.887-.262a1.563 1.563 0 01-.284-.998c.074-.95.969-2.117.969-2.117h-2.866s-.24.477-2.477.382c-2.237-.095-3.853-.292-3.965 1.576s-1.289 2.55-2.871 2.51c-2.796-.071-1.176 3.234-4.213 2.273-2.483-.786-1.572-3.622-1.55-3.689a4.398 4.398 0 00-.398 2.485z"/><path fill="var(--color9, #2b2f54)" d="M.472 28.907l1.379.641s3.69-4.49 4.175-5.559C6.511 22.919 8.524 19 8.524 19l-1.093-6.849s-.47.224-1.112 1.287c-.566.939-1.266 2.533-1.896 5.206C3.081 24.346.471 28.908.471 28.908z"/><path fill="var(--color10, #14182d)" d="M6.027 23.989C6.512 22.92 8.525 19 8.525 19l-1.093-6.849s-.47.224-1.112 1.287a11.659 11.659 0 00-.106 4.217c.411 2.486-.186 6.334-.186 6.334z"/><path fill="var(--color9, #2b2f54)" d="M6.727 30.225s1.566.059 1.744 0c.178-.059 3.205-5.933 3.876-8.018.588-1.826-1.086-4.814-.619-7.527.065-.389.179-.769.34-1.132a17.949 17.949 0 00-1.836-1.922l-.016-.014s-2.113-.428-3.082.855c-.575.761-.483 2.954-.08 5.038v.002c.277 1.429.7 2.805 1.155 3.632 1.118 2.031-1.481 9.087-1.481 9.087z"/><path fill="var(--color10, #14182d)" d="M10.143 13.976c.312.703 1.265.63 1.584.704.065-.389.179-.769.339-1.132a17.949 17.949 0 00-1.836-1.922l-.016-.014s-2.112-.428-3.082.855c-.575.761 1.69-1.46 3.009 1.509z"/><path fill="var(--color3, #ffb7a8)" d="M17.473 7.367c.074-.005.131-.034.161-.092.112-.333.472-1.033.472-1.033-.083-.387-.785-.82-.785-.82a3.718 3.718 0 00-.305.31c-.177.2-.38.47-.464.735-.134.422.571.924.92.899z"/><path fill="var(--color4, #ea847d)" d="M17.473 7.367c.074-.005.131-.034.161-.092.112-.333.472-1.033.472-1.033-.083-.387-.785-.82-.785-.82a3.718 3.718 0 00-.305.31c.627.497.52 1.333.456 1.635z"/><path fill="var(--color3, #ffb7a8)" d="M17.496 5.671h.002s.82 1.544 1.74 1.045c.546-.297.917-1.39 1.128-2.229.144-.572.214-1.026.214-1.026-.919 1.853-2.286.606-2.286.606-.018.975-.678.725-.707.713v-.001c-.017-.04-.399-.926-.745-.177s.605 1.053.655 1.069z"/><path fill="var(--color11, #8978f7)" d="M10.142 12.884c.638.759 1.575 1.376 1.862 1.555.497.309 2.038-2.043 3.877-2.305s1.939-.808 1.939-1.568-.186-3.29-.186-3.29c-1.255-.273-.336-.344-1.009-.988s-2.931.048-4.249 2.257c-1.318 2.209-2.262 1.164-2.784 2.566-.219.592.086 1.22.55 1.773z"/><path fill="var(--color25, #634df4)" d="M10.143 12.884c.637.759 1.574 1.376 1.862 1.555.497.309 2.038-2.043 3.877-2.305s1.939-.808 1.939-1.568c-.622.422-.583-1.76-.583-1.76l-3.36 1s.121 1.293-1.027 2.655c-1.148 1.363-2.708.423-2.708.423z"/><path fill="var(--color11, #8978f7)" d="M15.608 7.097c-2.074.118-1.864 2.922-1.491 4.633s.795 2.946 1.193 3.136 7.73-.158 7.879-.4c.149-.242-.124-1.026-.124-1.026s-1.963-.285-4.175-.403c-2.212-.119-2.162-.238-1.889-1.735s.767-4.327-1.392-4.205z"/><path fill="var(--color4, #ea847d)" d="M17.585 4.781c.024.013.614.203.732-.173.121-.383.329.262 1.149.262.406 0 .703-.19.898-.382.144-.572.214-1.026.214-1.026-.919 1.853-2.286.606-2.286.606-.018.975-.678.725-.707.713zm-.089.89c-.71-.294-.718-.887-.461-1.077.248-.184.53.162.55.186-.017-.04-.399-.926-.745-.176s.606 1.052.657 1.068z"/></symbol><symbol id="icon-consult" viewBox="0 0 32 32"><path fill="var(--color33, #dafaef)" d="M2.909 0h26.182A2.908 2.908 0 0132 2.909v26.182A2.908 2.908 0 0129.091 32H2.909A2.908 2.908 0 010 29.091V2.909A2.908 2.908 0 012.909 0z"/><path fill="var(--color34, #44e5ae)" d="M13.102 17.152a.129.129 0 00.177 0l1.59-1.527 1.345 1.294a.13.13 0 00.177 0l3.536-3.398a.117.117 0 000-.17l-.575-.551c-.023-.022-.054-.035-.088-.035s-.065.013-.088.035l-2.872 2.76-1.345-1.293c-.023-.022-.054-.035-.088-.035s-.065.013-.089.035l-2.255 2.164a.117.117 0 000 .17l.575.552z"/><path fill="var(--color34, #44e5ae)" d="M22.35 10.68h-5.563v-.96a.123.123 0 00-.123-.12h-.879a.123.123 0 00-.123.12v.96h-5.563a.49.49 0 00-.5.48v7.8c0 .266.223.48.5.48h5.569v.48l-2.575 1.621a.117.117 0 00-.036.165l.473.708v.002a.13.13 0 00.174.034h-.001l2.52-1.587 2.52 1.587a.13.13 0 00.174-.034v-.001l.473-.708a.116.116 0 00-.035-.164l-2.569-1.617v-.484h5.563a.49.49 0 00.5-.48v-7.8a.49.49 0 00-.5-.48zm-.625 7.68h-11v-6.6h11v6.6z"/></symbol><symbol id="icon-theory" viewBox="0 0 32 32"><path fill="var(--color33, #dafaef)" d="M2.909 0h26.182A2.908 2.908 0 0132 2.909v26.182A2.908 2.908 0 0129.091 32H2.909A2.908 2.908 0 010 29.091V2.909A2.908 2.908 0 012.909 0z"/><path fill="var(--color34, #44e5ae)" d="M18.293 10.24c.177 0 .346.068.471.188s.195.283.195.452v1.28h2.667c.177 0 .346.068.471.188s.195.283.195.452v7.68h1.333v1.28H8.958v-1.28h1.333V12.8c0-.17.07-.333.195-.452s.294-.188.471-.188h2.667v-1.28c0-.17.07-.333.195-.452s.294-.188.471-.188h4zm-3.333 3.2h-1.333v7.04h1.333v-7.04zm4 0h-1.333v7.04h1.333v-7.04zm-1.333-1.92H14.96v.64h2.667v-.64z"/></symbol><symbol id="icon-practice" viewBox="0 0 32 32"><path fill="var(--color33, #dafaef)" d="M2.909 0h26.182A2.908 2.908 0 0132 2.909v26.182A2.908 2.908 0 0129.091 32H2.909A2.908 2.908 0 010 29.091V2.909A2.908 2.908 0 012.909 0z"/><path fill="var(--color34, #44e5ae)" d="M21.6 11.733h-4V22.4h4.889v-9.813a.84.84 0 00-.26-.604.904.904 0 00-.625-.25h-.003zm-2.222 7.254h-.889v-.853h.889v.853zm0-2.134h-.889V16h.889v.853zm0-2.133h-.889v-.853h.889v.853zm1.777 4.267h-.889v-.853h.889v.853zm0-2.134h-.889V16h.889v.853zm0-2.133h-.889v-.853h.889v.853zM15.769 9.6h-5.227c-.25 0-.49.095-.666.265s-.276.4-.276.64V22.4h2.222v-1.28h2.667v1.28h2.223V10.505c0-.24-.099-.47-.276-.64a.959.959 0 00-.663-.265h-.003zm-3.947 9.387h-.889v-.853h.889v.853zm0-2.134h-.889V16h.889v.853zm0-2.133h-.889v-.853h.889v.853zm0-2.133h-.889v-.853h.889v.853zm1.778 6.4h-.889v-.853h.889v.853zm0-2.134h-.889V16h.889v.853zm0-2.133h-.889v-.853h.889v.853zm0-2.133h-.889v-.853h.889v.853zm1.778 6.4h-.889v-.853h.889v.853zm0-2.134h-.889V16h.889v.853zm0-2.133h-.889v-.853h.889v.853zm0-2.133h-.889v-.853h.889v.853z"/></symbol><symbol id="icon-done" viewBox="0 0 32 32"><path fill="var(--color33, #dafaef)" d="M2.909 0h26.182A2.908 2.908 0 0132 2.909v26.182A2.908 2.908 0 0129.091 32H2.909A2.908 2.908 0 010 29.091V2.909A2.908 2.908 0 012.909 0z"/><path fill="var(--color34, #44e5ae)" d="M22.871 20.5l-.628-3.72a.122.122 0 00-.121-.1h-4.093c-.06 0-.11.043-.121.1v.001l-.628 3.72-.001.019c0 .066.056.12.125.12h5.344l.02-.001a.122.122 0 00.104-.12l-.001-.019v.001zm-7.347-3.719a.122.122 0 00-.121-.1h-4.092c-.06 0-.11.043-.121.1v.001l-.628 3.72-.001.019c0 .066.056.12.125.12h5.343l.02-.001a.12.12 0 00.105-.119l-.002-.02v.001l-.628-3.72zM14.06 15.48h5.344l.02-.001a.12.12 0 00.105-.119l-.002-.019v.001l-.628-3.72a.122.122 0 00-.121-.1h-4.092c-.06 0-.11.043-.121.1v.001l-.628 3.72-.001.019c0 .066.056.12.125.12z"/></symbol><symbol id="icon-checkmark" viewBox="0 0 32 32"><path fill="var(--color1, #6d60ca)" d="M0 16C0 7.166 7.166 0 16 0s16 7.166 16 16-7.166 16-16 16S0 24.834 0 16zm29.538 0c-.003-7.476-6.062-13.535-13.537-13.538-7.476.003-13.535 6.062-13.538 13.537C2.466 23.475 8.525 29.534 16 29.537c7.476-.003 13.535-6.062 13.538-13.538z"/><path fill="var(--color1, #6d60ca)" d="M22.443 9.054a1.23 1.23 0 111.901 1.564l.002-.002-.018.021L13.99 22.945a1.227 1.227 0 01-1.84.052l-.001-.001-.018-.02-4.43-4.924a1.23 1.23 0 011.809-1.666l.018.02 3.484 3.872 9.429-11.225z"/></symbol></defs></svg>