<svg width="99" height="21" fill="none" xmlns="http://www.w3.org/2000/svg"><path d="m5.661 11.713-2.176 2.21V17h-1.7V5.1h1.7v6.647L9.945 5.1h1.938L6.8 10.455 12.206 17h-1.989l-4.556-5.287Zm14.983 5.423c-1.201 0-2.284-.26-3.247-.782a5.967 5.967 0 0 1-2.278-2.193c-.544-.93-.816-1.966-.816-3.111 0-1.145.272-2.182.816-3.111a5.843 5.843 0 0 1 2.278-2.176c.963-.533 2.046-.799 3.247-.799 1.19 0 2.267.266 3.23.799a5.723 5.723 0 0 1 2.261 2.176c.544.918.816 1.955.816 3.111 0 1.156-.272 2.199-.816 3.128a5.881 5.881 0 0 1-2.26 2.176c-.964.521-2.04.782-3.23.782Zm0-1.513c.873 0 1.655-.198 2.346-.595a4.305 4.305 0 0 0 1.65-1.632 4.587 4.587 0 0 0 .611-2.346c0-.861-.204-1.638-.612-2.329a4.27 4.27 0 0 0-1.649-1.649c-.691-.397-1.473-.595-2.346-.595s-1.666.198-2.38.595a4.391 4.391 0 0 0-1.666 1.649c-.397.691-.595 1.468-.595 2.329 0 .861.198 1.643.595 2.346a4.43 4.43 0 0 0 1.666 1.632c.714.397 1.507.595 2.38.595Zm9.906-3.995h4.573v1.411H30.55v-1.411Z" fill="#fff"/><path d="M42.77 8.126v2.04h4.963v3.026H42.77V17h-4.013V5.1h9.674v3.026H42.77ZM51.398 5.1h4.012V17h-4.012V5.1Zm12.08 12.172c-.986 0-1.95-.108-2.89-.323-.93-.227-1.694-.527-2.295-.901l1.292-2.924a8.502 8.502 0 0 0 1.904.799 7.644 7.644 0 0 0 2.023.289c.556 0 .952-.051 1.19-.153.238-.113.357-.278.357-.493 0-.25-.158-.436-.476-.561-.306-.125-.816-.26-1.53-.408-.918-.193-1.683-.397-2.295-.612a4.024 4.024 0 0 1-1.598-1.088c-.453-.51-.68-1.196-.68-2.057 0-.748.21-1.428.63-2.04.419-.612 1.042-1.094 1.87-1.445.838-.351 1.852-.527 3.042-.527.816 0 1.615.09 2.397.272.794.17 1.49.425 2.091.765l-1.207 2.907c-1.167-.59-2.272-.884-3.315-.884-1.031 0-1.547.25-1.547.748 0 .238.153.42.46.544.305.113.81.238 1.512.374.907.17 1.672.368 2.295.595a3.854 3.854 0 0 1 1.615 1.071c.465.499.697 1.179.697 2.04a3.53 3.53 0 0 1-.629 2.04c-.42.6-1.048 1.082-1.887 1.445-.827.351-1.836.527-3.026.527Zm14.59 0c-1.258 0-2.391-.26-3.4-.782a6.05 6.05 0 0 1-2.38-2.21c-.567-.952-.85-2.029-.85-3.23s.283-2.272.85-3.213a5.89 5.89 0 0 1 2.38-2.21c1.009-.533 2.142-.799 3.4-.799 1.156 0 2.187.204 3.094.612a5.742 5.742 0 0 1 2.244 1.768l-2.533 2.261c-.737-.93-1.604-1.394-2.6-1.394-.84 0-1.514.272-2.024.816-.51.533-.765 1.252-.765 2.159 0 .907.255 1.632.765 2.176.51.533 1.184.799 2.023.799.997 0 1.864-.465 2.601-1.394l2.533 2.261a5.742 5.742 0 0 1-2.244 1.768c-.907.408-1.938.612-3.094.612ZM97.995 5.1V17h-4.013v-4.386h-3.706V17h-4.011V5.1h4.011v4.216h3.707V5.1h4.011Z" fill="#48E3AE"/></svg>