<svg width="66" height="66" fill="none" xmlns="http://www.w3.org/2000/svg"><rect width="66" height="66" rx="6" fill="#DAFAEF"/><path d="M27.022 35.377c.1.096.264.096.364 0l3.28-3.15 2.775 2.668c.1.095.265.095.365 0l7.293-7.008c.1-.096.1-.253 0-.35L39.913 26.4a.266.266 0 0 0-.364 0l-5.924 5.693-2.774-2.667a.266.266 0 0 0-.365 0l-4.65 4.464c-.1.096-.1.254 0 .35l1.186 1.138Z" fill="#44E5AE"/><path d="M46.097 22.027H34.624v-1.98a.254.254 0 0 0-.258-.247h-1.804a.254.254 0 0 0-.258.247v1.98H20.831c-.57 0-1.031.443-1.031.99v16.088c0 .548.46.99 1.031.99h11.486v.99l-5.311 3.344a.24.24 0 0 0-.074.34l.976 1.46v.004a.266.266 0 0 0 .358.071l5.198-3.273 5.198 3.273c.12.074.28.043.358-.071v-.003l.976-1.46a.242.242 0 0 0-.074-.34l-5.298-3.336v-.999h11.473c.57 0 1.031-.442 1.031-.99V23.018c0-.548-.46-.99-1.031-.99Zm-1.29 15.84H22.12V24.255h22.688v13.613Z" fill="#44E5AE"/></svg>