<svg width="66" height="66" fill="none" xmlns="http://www.w3.org/2000/svg"><rect width="66" height="66" rx="6" fill="#DAFAEF"/><path d="m47.171 42.282-1.295-7.672a.254.254 0 0 0-.255-.207h-8.43a.254.254 0 0 0-.255.207l-1.295 7.672c-.003.013-.003.028-.003.04 0 .137.116.248.257.248h11.022c.013 0 .029 0 .042-.003a.25.25 0 0 0 .212-.285ZM32.018 34.61a.254.254 0 0 0-.254-.207h-8.43a.254.254 0 0 0-.255.207l-1.296 7.672c-.003.013-.003.028-.003.04 0 .137.116.248.258.248h11.021c.013 0 .03 0 .042-.003a.248.248 0 0 0 .213-.285l-1.296-7.672Zm-3.02-2.683H40.02c.013 0 .03 0 .042-.003a.248.248 0 0 0 .213-.284l-1.296-7.673a.254.254 0 0 0-.254-.207h-8.43a.254.254 0 0 0-.255.207l-1.296 7.673c-.003.012-.003.028-.003.04 0 .136.116.247.258.247Z" fill="#44E5AE"/></svg>