<svg width="66" height="66" fill="none" xmlns="http://www.w3.org/2000/svg"><rect width="66" height="66" rx="6" fill="#DAFAEF"/><path d="M44.55 24.2H36.3v22h10.083V25.96c0-.467-.193-.915-.537-1.245a1.873 1.873 0 0 0-1.296-.515Zm-4.583 14.96h-1.834V37.4h1.834v1.76Zm0-4.4h-1.834V33h1.834v1.76Zm0-4.4h-1.834V28.6h1.834v1.76Zm3.666 8.8H41.8V37.4h1.833v1.76Zm0-4.4H41.8V33h1.833v1.76Zm0-4.4H41.8V28.6h1.833v1.76ZM32.523 19.8h-10.78c-.515 0-1.01.197-1.374.546-.364.35-.569.825-.569 1.32V46.2h4.583v-2.64h5.5v2.64h4.584V21.666c0-.495-.205-.97-.57-1.32a1.985 1.985 0 0 0-1.374-.546Zm-8.14 19.36H22.55V37.4h1.833v1.76Zm0-4.4H22.55V33h1.833v1.76Zm0-4.4H22.55V28.6h1.833v1.76Zm0-4.4H22.55V24.2h1.833v1.76Zm3.667 13.2h-1.833V37.4h1.833v1.76Zm0-4.4h-1.833V33h1.833v1.76Zm0-4.4h-1.833V28.6h1.833v1.76Zm0-4.4h-1.833V24.2h1.833v1.76Zm3.667 13.2h-1.834V37.4h1.834v1.76Zm0-4.4h-1.834V33h1.834v1.76Zm0-4.4h-1.834V28.6h1.834v1.76Zm0-4.4h-1.834V24.2h1.834v1.76Z" fill="#44E5AE"/></svg>