<svg width="66" height="66" fill="none" xmlns="http://www.w3.org/2000/svg"><rect width="66" height="66" rx="6" fill="#DAFAEF"/><path d="M37.73 21.12c.365 0 .714.14.972.387s.403.583.403.933v2.64h5.5c.365 0 .714.14.972.387s.403.583.403.933v15.84h2.75v2.64H18.48v-2.64h2.75V26.4c0-.35.145-.686.403-.933.258-.248.607-.387.972-.387h5.5v-2.64c0-.35.145-.686.403-.933.258-.248.607-.387.972-.387h8.25Zm-6.875 6.6h-2.75v14.52h2.75V27.72Zm8.25 0h-2.75v14.52h2.75V27.72Zm-2.75-3.96h-5.5v1.32h5.5v-1.32Z" fill="#44E5AE"/></svg>